<svg xmlns="http://www.w3.org/2000/svg" width="588.63" height="430.668" viewBox="0 0 588.63 430.668">
  <g id="_2" data-name="2" transform="translate(-8.025 -6.332)">
    <g id="Layer_1" data-name="Layer 1" transform="translate(8.025 6.332)">
      <rect id="Rectangle_40" data-name="Rectangle 40" width="19.207" height="40.275" transform="translate(219.09 190.161)" fill="#d7d8d8"/>
      <path id="Path_122" data-name="Path 122" d="M282.389,237.9H392.837L353.445,98.53H243Z" transform="translate(-110.254 -46.444)" fill="#d7d8d8"/>
      <path id="Path_123" data-name="Path 123" d="M316.859,236.047l-34.84-123.265h83.154l34.84,123.265Z" transform="translate(-127.231 -52.645)" fill="#3b4547"/>
      <path id="Path_124" data-name="Path 124" d="M243,98.53,282.389,237.9h11.306L254.3,98.53Z" transform="translate(-110.254 -46.444)" fill="#fff"/>
      <path id="Path_125" data-name="Path 125" d="M252.276,236.557c1.228,23.463,7.35,60.016,8.825,66.608,2.177,9.731,9.629,25.172,9.629,25.172L256.776,331.3s-9.9-16.668-13.5-22.467c-1.35-2.176-3.438-9.275-3.976-11.477-3.618-14.812-6.151-30.193-6.151-30.193Z" transform="translate(-105.969 -106.496)" fill="#4c5356"/>
      <path id="Path_126" data-name="Path 126" d="M138.26,218.108c6.7,1.982,23.242,3.261,42.447,2.742-10.962-11.974-11.791-23.681-3.111-34.725,13.365-17,28.916-35.438,31.468-48.5,2.926-14.965-2.387-21.714-10.988-38.67-8.967-17.68-9.925-27.789-15-34.057-7.051-8.7-18.251-10.738-28.9,1.462-23.449,26.868-40.356,80.8-36.645,136.833C120.7,209.79,128.042,215.084,138.26,218.108Z" transform="translate(-55.444 -28.721)" fill="#636a6d"/>
      <path id="Path_127" data-name="Path 127" d="M239.994,85.745a32.06,32.06,0,0,0,9.527,2.157c2.775.225,6.69,1.75,8.926,2.344,6.207,1.651,17.534,1.876,23.986-.6,10.124-3.884,18.229-14.853,24.948-19.283,3.175-2.093,6.258-13.874,5.02-20.4s-17.666-28.243-26.893-26.78-44.783,25.993-46.021,27.23a21.328,21.328,0,0,0-5.323,9.126c-1.927,6.4-3,15.066-1.541,18.666A13.307,13.307,0,0,0,239.994,85.745Z" transform="translate(-105.445 -13.633)" fill="#d7d8d8"/>
      <path id="Path_128" data-name="Path 128" d="M235.393,55.19c.717,3.167,3.3,8.173,5.442,11.395,2.59,3.887,15.6,6.121,17.437,3.887,1.851-2.25,2.288-6.093,5.026-8.006s8.442.39,12.114,1.35c1.679.44,6.531-4.963,9.626-6.324,2.565-1.127,6.373.83,7.957,2.6s8.294.26,9.31-6.855c.75-5.251.825-9.452,3.375-6.752,3.6,3.812,3.9,6.676,4.051,16.128.076,4.786,3.77,4.255,6.9-1.276,2.725-4.813,2.723-9.474,2.4-13.352-.375-4.5,4.249,2.436,7.035,2.9,4.049.668,3.176-3.127.729-6.646s-8.909-16.313-8.683-21.718c.244-5.85-.736-8-6.732-7.163-7.5,1.05-11.653-1.346-10.914-3.975.937-3.338-3.264-5.13-6.4-5.047-3.792.1-18.172.621-29.049,7.448-5.416,3.4-19.352,12.385-24.98,22.8C235.02,45.889,234.492,51.214,235.393,55.19Z" transform="translate(-106.789 -6.332)" fill="#2d3738"/>
      <path id="Path_129" data-name="Path 129" d="M247.431,566.568c2.318-19.93,21.939-52.6,27.938-74.663s8.475-36.961,5.549-43.712-32.632-42.548-32.632-42.548l-45-3.086c27.332,36.745,36.085,49.192,41.117,61.32,3.249,7.831,1.968,28.026-2.321,47.515-.649,2.948-5.656,38.557-6.894,59.035-.016.262-.294,4.992-.315,5.253,2.8,3.424,9.412,6.167,12.132,2.8C246.985,575.119,247.163,568.871,247.431,566.568Z" transform="translate(-92.978 -178.718)" fill="#14a6d7"/>
      <path id="Path_130" data-name="Path 130" d="M143.419,441H131.548l3.444,185.064h4.983Z" transform="translate(-61.766 -195.44)" fill="#fff"/>
      <path id="Path_131" data-name="Path 131" d="M269.765,405.931c-18.572-22.58-38.549-34.825-73.889-58.017-6.744-4.426-11.864-10.711-15.868-15.085-19.2.519-35.752-.76-42.447-2.742-10.218-3.024-17.56-8.318-20.731-14.911.014.211.022.421.037.632,3.476,50.394,32.951,57.011,48.929,63.762,16.066,6.789,43.09,20.917,49.556,25.454,6.942,4.87,7.942,10.135-5.418,14.44-40.767,13.134-57.184,24.717-91.41,38.98-1.9.891-3.748,5.426-2.9,8.681a5.79,5.79,0,0,0,7.6,4.216c2.678-1.457,8.944-3.861,22.991-7,10.074-2.254,94.1-17.148,107.646-21.754C270.246,437.009,283.868,423.078,269.765,405.931Z" transform="translate(-54.745 -140.7)" fill="#2fc6f9"/>
      <rect id="Rectangle_41" data-name="Rectangle 41" width="54.25" height="6.595" transform="translate(215.681 223.842)" fill="#2d3738"/>
      <path id="Path_132" data-name="Path 132" d="M200.472,286.294c-6.052-8.578-12.644-19.628-10.977-25.785,2.926-10.8,19.691-39.607,19.972-40.958s3.208-11.477,3.208-11.477l-15.416,12.378c-.675.45-17.057,25.86-20.142,30.831-5.9,9.508-12.717,21.373-3.8,34.185A256.025,256.025,0,0,0,200.472,286.294Z" transform="translate(-78.07 -94.104)" fill="#4c5356"/>
      <path id="Path_133" data-name="Path 133" d="M183.574,352.518c19.729,16.653,34.775,23.7,34.775,23.7s-5.182-17.174-5.576-18.3c-.169-.484-4.429-5.551-9-12.023a256.041,256.041,0,0,1-27.157-.826A39.015,39.015,0,0,0,183.574,352.518Z" transform="translate(-81.376 -153.706)" fill="#14a6d7"/>
      <path id="Path_134" data-name="Path 134" d="M281.5,392.214a16.266,16.266,0,0,0,4.586,2.054c3.652.649,12.542,1.842,15.387,2.419s8.655,3.048,9.874,4.457c2.152,2.49-1.223,3.489-3.244,3.489H279.64c-2.068,0-2.047.02-4.307.02s-5.055-1.282-6.605-2.111C268.255,399.684,275.037,395.121,281.5,392.214Z" transform="translate(-121.439 -174.217)" fill="#d7d8d8"/>
      <path id="Path_135" data-name="Path 135" d="M195.8,180.88c3.706,5.027,6.824,12.687,5.288,17.328s-16.653,29.422-18.9,36.259-2.707,16.623,9.289,30.189,29.5,24.322,39.065,29a78.5,78.5,0,0,0,12.773-10.329c-.853-.423-16.081-12.1-23.47-19.71-6.706-6.91-10.2-16.8-11.1-21.079s2.251-8.551,6.526-12.715,26.064-26.035,29.444-32.443,5.224-13.953,1.937-25.205-11.505-22.263-17.462-30.231Z" transform="translate(-83.247 -65.334)" fill="#636a6d"/>
      <rect id="Rectangle_42" data-name="Rectangle 42" width="176.081" height="139.369" transform="translate(381.753 52.085)" fill="#d7d8d8"/>
      <rect id="Rectangle_43" data-name="Rectangle 43" width="159.93" height="123.255" transform="translate(389.829 60.142)" fill="#3b4547"/>
      <path id="Path_136" data-name="Path 136" d="M110.706,569.806c-.951,1.679-.446,4.2,2.174,5.933,2.37,1.565,3.138,2.79,2.476,4.521-1.37,3.581-1.8,6.3-2.39,13.054-.377,4.312-1.261,9.4-4.991,10.958-1.419.591-2.979.452-4.2-1.869-7.884-14.962-2.711-14.662-9.466-26.388-1.4-2.421-1.2-5.179,1.559-6.959,3.334-2.154,5.126-1.447,11.389-4.524,1.628-.8,2.924-.464,3.587.391C111.836,566.207,111.6,568.23,110.706,569.806Z" transform="translate(-45.194 -248.989)" fill="#636a6d"/>
      <path id="Path_137" data-name="Path 137" d="M255.615,702.329c-1.447.233-2.086,1.974-2.481,4.946-.546,4.109-2.481,5.636-2.412,7.555.235,6.569,5.509,8.557,9.977,16.809,3.953,7.3,10.168,8.077,11.518,8.077,1.182,0,3.245-.043,4.321-.043s2.453-3.237-.039-6.073c-4.955-5.638-7.17-8.936-7.361-23.531-.04-3.017-2.1-3.8-3.4-3.211-1.706.766-2.644,1.8-5.516.25C258.077,705.947,257.427,702.037,255.615,702.329Z" transform="translate(-113.614 -309.131)" fill="#4c5356"/>
      <rect id="Rectangle_44" data-name="Rectangle 44" width="17.696" height="40.275" transform="translate(460.945 190.161)" fill="#d7d8d8"/>
      <rect id="Rectangle_45" data-name="Rectangle 45" width="46.8" height="4.103" transform="translate(446.393 226.334)" fill="#d7d8d8"/>
      <rect id="Rectangle_46" data-name="Rectangle 46" width="490.462" height="15.119" transform="translate(0 230.436)" fill="#fff"/>
      <rect id="Rectangle_47" data-name="Rectangle 47" width="98.169" height="15.119" transform="translate(490.462 230.436)" fill="#d4e0e5"/>
      <path id="Path_138" data-name="Path 138" d="M972.236,441h11.871L980.662,626.06H975.68Z" transform="translate(-427.522 -195.44)" fill="#d4e0e5"/>
      <path id="Path_139" data-name="Path 139" d="M905.654,441h11.871L914.081,626.06H909.1Z" transform="translate(-398.555 -195.44)" fill="#d4e0e5"/>
      <path id="Path_140" data-name="Path 140" d="M76.837,441H64.966L68.41,626.06h4.983Z" transform="translate(-32.799 -195.44)" fill="#fff"/>
      <path id="Path_141" data-name="Path 141" d="M607.574,629.381c-.288,3.764,30.313,64.947,30.313,64.947s6.733.514,8.275,0c0,0-13.393-32.359-18.436-62.831" transform="translate(-268.869 -277.401)" fill="#082d3c"/>
      <path id="Path_142" data-name="Path 142" d="M655.443,741.513c-2.893-.9-5.884-3.88-5.884-2.009,0,3.7.726,4.954-4.308,6.843-6.514,2.443-7.3,5.358-7,7.258a2.048,2.048,0,0,0,2.061,1.535l10.271.018,2.049,0,7.053.014c1.977,0,2.985-1.09,3.095-2.59.294-4.019-1.685-9.408-2.241-11.492-.985-3.69-2.059-3.631-2.564-3.292C657.34,738.228,658.336,742.409,655.443,741.513Z" transform="translate(-282.193 -324.506)" fill="#14a6d7"/>
      <path id="Path_143" data-name="Path 143" d="M601.4,278.686c-9.077.675-15.971-1.245-26.555-3.9-9.071-2.276-25.566-2.166-43.4-3.553l1.973,12.052c8.071-.271,20.36-.388,27.4,1.1,12.752,2.7,29.705,13.578,38.408,16.728,8.574,3.1,29.784,7.034,35.782,7.8L647.3,277.41C636.955,277.936,612.736,277.842,601.4,278.686Z" transform="translate(-235.749 -121.582)" fill="#2fc6f9"/>
      <path id="Path_144" data-name="Path 144" d="M486.607,267.817c-8.556-.8-15.083-1.433-16.224-1.619-3.757-.614-26.639-1.887-29.256-1.887s-2.121,2.318.225,2.926c1.8.467,16.362,2.96,18.454,4.219s1.575,4.332,2.588,6.245a9.143,9.143,0,0,0,8.5,4.5c4.481-.274,10.82-1.389,15.584-1.632,1.319-.067,3.794-.193,6.885-.3l-1.973-12.052C489.8,268.1,488.209,267.966,486.607,267.817Z" transform="translate(-195.69 -118.57)" fill="#d7d8d8"/>
      <path id="Path_145" data-name="Path 145" d="M722.7,232.321c4.426,2.213,7.21-2.351,6.864-3.788-2.644,1.716-6.771-1.281-7.2-4.538,4.435.454,4.464-2.7,4.464-2.7s-3.274,1.6-8.083-4.576c-4.951-6.357-3.21-13.791-.787-19.091,4.2-9.19,9.152-12.8,12.658-19.56,4.726-9.114,5.238-20.491,3.544-26.5s-2.607-11.815-6.445-13.84c-2.2-1.16-6.288-1.088-6.288-1.088,1.51-1.422,2.851-6.9-3.3-10.427-2.717-1.557-7.869,1.508-17.1,2.851-10.577,1.538-19.8-5.851-31.253,10.062-3.251,4.519-2.88,15.435-2.734,22.41.169,8.033-4.022,13.4-7.046,18.689a22.023,22.023,0,0,0,3.075,25.355c7.637,8.749,9.92,16.718,7.577,28.43-2.7,13.5,2.02,16.416,5.251,21.6l16.048-27.905v-2.944c.08-8.346-5.008-14-3.2-22.5l6.43-11.165s6-.3,6.823,1.951,4.787,12.452,4.983,15.6,9.948,29.518,9.948,29.518Z" transform="translate(-290.509 -58.301)" fill="#082d3c"/>
      <path id="Path_146" data-name="Path 146" d="M705.315,381.7c9.389-.909,15.59-3.8,17.51-6.742a36.2,36.2,0,0,1-2.972-8.346c-2.859-13.259.062-30.014,4.525-39.106,5.666-11.542,12.053-24.041,11.43-37.062-.924-19.336-13.766-27.485-15.528-36.607-1.6-8.281,2.085-16.982,7.933-21.961h-1.339s-12.041,8.121-12.09,8.268-11.491,7.554-11.491,7.554c1.359,4.927,2.791,11.5-1.1,22.341-1.93,5.38-10.2,13.578-13.8,19.5-4.8,7.905-2.159,13.741.567,20.585,1.306,3.279-5,47.255-8.068,67.964A55.527,55.527,0,0,0,705.315,381.7Z" transform="translate(-300.771 -104.459)" fill="#2fc6f9"/>
      <path id="Path_147" data-name="Path 147" d="M703.346,286.112c1.674-1.868,3.033-3.774,6.385-7.9,8.514-10.465,17.5-14.215,20.263-14.346,2.673-.127,4.717-.075,4.27-1.1-1.961-2.965-3.851-6.134-4.391-8.931-1.6-8.281,2.085-16.982,7.933-21.961h-1.339s-12.041,8.121-12.09,8.268-11.491,7.554-11.491,7.554c1.359,4.927,2.791,11.5-1.1,22.341-1.044,2.91-4.1,6.691-6.971,10.971C703.524,283.129,702.289,287.291,703.346,286.112Z" transform="translate(-310.363 -104.459)" fill="#d7d8d8"/>
      <path id="Path_148" data-name="Path 148" d="M704.722,439.784s12.793-15.064,18.022-22.37a104.366,104.366,0,0,0,7.4-11.358s-6.4,19.64-14.653,28.918A129.54,129.54,0,0,1,703.5,446.4Z" transform="translate(-310.606 -180.239)" fill="#14a6d7"/>
      <path id="Path_149" data-name="Path 149" d="M739.641,237.264a2.019,2.019,0,0,1,.141-.193c-3.455,2.342-7.72,5.246-7.749,5.333-.049.147-11.491,7.554-11.491,7.554a37.223,37.223,0,0,1,1.269,6.454C733.964,250.883,735.128,245.857,739.641,237.264Z" transform="translate(-318.018 -106.719)" fill="#cacbcc"/>
      <path id="Path_150" data-name="Path 150" d="M699.076,491.889a55.527,55.527,0,0,1-24.417-3.607c-.956,6.453-1.6,10.651-1.6,10.651l-6.5,32.751s16.651,7.37,33.306,6.6c16.634-.767,27.081-12.3,27.081-26.1,0-11.827-6.343-18.794-10.358-27.033C714.666,488.087,708.465,490.98,699.076,491.889Z" transform="translate(-294.531 -214.649)" fill="#123746"/>
      <path id="Path_151" data-name="Path 151" d="M604.66,588.895c-4.534-12.3.2-24.54,16.61-22.719,13.24,1.469,32.2,3.741,40.2,4.45,9.652.856,27.163-2.09,36.725-5.918,7.036-2.817,9.522-3.636,13.978-3.169,5.214.546,12.641,7.169,12.641,17.751,0,12.385-5.326,19.076-15.894,19.076H641.381C621.8,598.365,610.695,605.273,604.66,588.895Z" transform="translate(-266.893 -247.831)" fill="#4c5658"/>
      <path id="Path_152" data-name="Path 152" d="M708.994,154.2c-7.082,3.325-11.252,7.82-13.582,16.26-1.139,4.13-5.178,14.158-5.153,18.153.01,1.708,1.3,4.149,2.325,5.551a14.614,14.614,0,0,1,2.721,8.12c.232,7.1,2.412,11.468,7.445,11.132,11.8-.786,21.7-9.813,24.89-12.658,2.735-2.438,3.279-2.641,4.646-3.912a41.435,41.435,0,0,1,5.992-4.641,7.771,7.771,0,0,0,3.574-8.275c-.726-2.776-3.763-4-7.6-2.218-4.449,2.064-5.766-4.708-6.161-7.708-.558-4.255,2.978-8.366-1.637-13.04-5.1-5.17.421-9.345.421-9.345A34.267,34.267,0,0,0,708.994,154.2Z" transform="translate(-304.843 -69.429)" fill="#d7d8d8"/>
      <path id="Path_153" data-name="Path 153" d="M750.938,391.542c-2.157,7.183-4.613,21.1-2.542,29.8,1.955,8.212,7.212,15.66,17.14,12.257,8.951-3.069,7.665-21.261,11-32.828,3.488-12.1,5.083-26.181-1.4-28.254C764.271,369.037,754.855,378.492,750.938,391.542Z" transform="translate(-329.796 -165.33)" fill="#4c5658"/>
      <path id="Path_154" data-name="Path 154" d="M778.15,553.454c-8.43,0-7.92-2.994-3.7-7.211,6.363,0,7.837-2.627,7.837-7.571V441.711h6.448v96.863C788.732,548.8,786.351,553.454,778.15,553.454Z" transform="translate(-340.18 -195.751)" fill="#7e8688"/>
      <path id="Path_155" data-name="Path 155" d="M718.041,626.745H641.829l5.629,7.211h74.286Z" transform="translate(-283.773 -276.254)" fill="#7e8688"/>
      <path id="Path_156" data-name="Path 156" d="M590.8,629.381c-.288,3.764,32.069,64.947,32.069,64.947s6.732.514,8.274,0c0,0-16.207-38.14-21.427-62.831" transform="translate(-261.569 -277.401)" fill="#123746"/>
      <path id="Path_157" data-name="Path 157" d="M641.773,741.513c-2.893-.9-5.884-3.88-5.884-2.009,0,3.7.726,4.954-4.308,6.843-6.514,2.443-7.3,5.358-7,7.258a2.048,2.048,0,0,0,2.061,1.535l10.272.018,2.049,0,7.053.014c1.977,0,2.985-1.09,3.095-2.59.294-4.019-1.685-9.408-2.241-11.492-.985-3.69-2.059-3.631-2.564-3.292C643.67,738.228,644.667,742.409,641.773,741.513Z" transform="translate(-276.246 -324.506)" fill="#2fc6f9"/>
      <path id="Path_158" data-name="Path 158" d="M532.174,531.875c-.924-.9-76.192-4.5-79.192-4.2s-33.007,22.8-33.007,22.8l60.162,90.937-.255,6.1c3.324.728,10.7,5.356,13.554,4.413,2.2-.728,1.677-7.124,1.432-8.76-11.2-18.179-29.4-50.36-32.926-62.567-4.543-15.741-4.2-25.523,11.594-25.317,12.884.167,38.52,2.963,54.922,1.881C528.457,557.161,533.1,532.775,532.174,531.875Z" transform="translate(-187.251 -233.144)" fill="#14a6d7"/>
      <path id="Path_159" data-name="Path 159" d="M515.816,737.906c-8.915,2.589-12.828-5.578-13.764-2.571-1.281,4.113-2.294,4.924-9.9,7.01-13.9,3.809-14.789,6.37-14.789,8.064,0,1.537,1.036,2.134,2.456,2.134,2.037,0,38.862.049,38.862.049,3.877,0,6.048-.628,6.593-2.682,1.106-4.163-.511-10.231-1.6-13.128-1.931-5.128-2.756-5.449-3.993-4.839-.735.363-.457,2.02-.816,3.46A4.238,4.238,0,0,1,515.816,737.906Z" transform="translate(-212.218 -321.924)" fill="#4c5356"/>
      <path id="Path_160" data-name="Path 160" d="M551.633,390.98a111.8,111.8,0,0,0-14.057-11.246c-4.22-2.51-10.191-2.744-19.608,3.578a46.27,46.27,0,0,0-6.676,5.439c-3.31,3.51.419,6.059,1.342,5.585,7.5-3.85,14.933-2.746,17.358-2.422,2.327.311,4.372-.263,6.469,3.062,1.982,3.144,6.854,3.662,6.854,3.662Z" transform="translate(-226.395 -168.071)" fill="#d4e0e5"/>
      <path id="Path_161" data-name="Path 161" d="M544.968,408.193a3,3,0,0,0,.084-.68c0-3.956-7.851-7.163-17.537-7.163s-17.253,3.3-17.453,7.842Z" transform="translate(-226.446 -177.757)" fill="#2d3738"/>
      <path id="Path_162" data-name="Path 162" d="M458.631,389.012c-3.481-3.49-6.944-7.214-9.508-8.739-4.22-2.51-14.215-4.013-21.717-.3a72.005,72.005,0,0,0-10.071,6.4c-3.6,3.308.251,5.394,2.026,5.394,6.995,0,13.957-.107,16.09,0,2.345.118,6.7-.037,9.166,3.025,1,1.243,1.974,2.524,1.974,2.524Z" transform="translate(-185.456 -167.92)" fill="#d7d8d8"/>
      <path id="Path_163" data-name="Path 163" d="M579.153,241.039s-1.835,2.55-3,3.9-9.977,4.668-9.977,4.668l-10.319,1.257c-.319-1.332-2.125-2.5-3.9-3.036-4.389-1.329-10.785.034-14.758,2.575-4.075,2.607-14.983,7.555-18.755.276-11.135-21.487-14.8-36.361-18.13-65.581l42.529-2.12,16.353,19.2,8.98,24.5c1.285,5.692,4.194,7.89,8.933,11.2Z" transform="translate(-222.206 -83.185)" fill="#d4e0e5"/>
      <path id="Path_164" data-name="Path 164" d="M472.894,589.437c-5.021-12.67.221-25.268,18.393-23.393,14.661,1.513,35.13,6.14,44.021,6.3,6,.107,31.488-.232,41.819-4.7,8.552-3.7,9.5-4.218,14.459-4.238,5.49-.023,13.421,5.244,13.421,16.139,0,12.753-4.962,19.642-16.665,19.642H513.557C491.873,599.189,479.577,606.3,472.894,589.437Z" transform="translate(-209.489 -248.697)" fill="#6e7476"/>
      <path id="Path_165" data-name="Path 165" d="M470.258,366.363a477.774,477.774,0,0,0,30.624,40.011c10.846,12.446,21.947,5.69,29.556-3.463a128.115,128.115,0,0,0,23.78-43.609c2.246-7.594,5.7-29.53-4.651-42.508-8.153-10.221-12.685-11.49-16.3-9.237-14.34,8.93-14.186,20.583-15.578,33.7-1.182,11.14-1.574,21.331-3.34,34.124-1.46,10.579-3.608,11.9-7.012,8.9-7.315-6.447-17.275-17.4-25.036-26.218-.294-.3-2.47,1.053-5.485,3.066C473.819,363.13,469.986,365.789,470.258,366.363Z" transform="translate(-209.122 -136.973)" fill="#4b646f"/>
      <path id="Path_166" data-name="Path 166" d="M616.827,287.067c-3.5-2.775-6.044-5.514-9.181-6.906,1.872,3.047-4.186,9.517-14.219,10.586-5.283.563-12.1,1.725-17.5,6.015-7.575,6.016-6.359,23.592-1.65,36.14,6.938,18.494,14.871,51.012,10.738,62.489a12.122,12.122,0,0,1-3.909,5.584c7.174,7.338,21.4,21.267,33.57,25.046,20.194,6.268,29.394-10.957,32.258-21.162C654.752,361.138,651.8,314.809,616.827,287.067Z" transform="translate(-252.739 -125.466)" fill="#4b646f"/>
      <path id="Path_167" data-name="Path 167" d="M617.022,365.885c1.505-18.409-5.664-32.043-11.118-37.966,6.28,15.712,5.459,33.41,3.317,40.654a122.957,122.957,0,0,1-12.552,27.781,71.368,71.368,0,0,1,.76,14.345C609.6,399.742,615.787,380.993,617.022,365.885Z" transform="translate(-264.125 -146.244)" fill="#1d4354"/>
      <path id="Path_168" data-name="Path 168" d="M530.928,519.064c-12.174-3.779-26.4-17.707-33.57-25.046-5.109,4.067-13.945,6.562-37.736,5.218-26.555-1.5-57.3,3.705-70.663,15.6-13.845,12.328-15,21.187-1.05,42.657,21.992,33.857,47.239,59.039,56.767,69.469a24.21,24.21,0,0,1,4.479,6.738c1.944,0,10.788,2.157,13.291.667,1.911-1.138,2.058-3.733,1.944-5.29-11-17.79-29.784-50.233-36.236-68.744-7.314-20.985,11.356-26.258,27.565-24.053,14.065,1.913,44.652,10.508,75.017,3.761,14.623-3.25,26.977-16.2,30.25-31.075q1.208-5.491,2.2-11.068C560.322,508.106,551.122,525.332,530.928,519.064Z" transform="translate(-168.988 -218.509)" fill="#2fc6f9"/>
      <path id="Path_169" data-name="Path 169" d="M561.88,183.736c-3.568-4.138-2.043-12.335-1.652-15.565s-1.016-5.766-4.093-8.994c-2.765-2.9-1.205-7.17-.617-10.069s1.187-5.422-1.055-7.892c-2.866-3.159-8.8-1.788-11.732-1.764a5.37,5.37,0,0,1-5.38-3.972c-1.5-5.34-3.968-13.963-11.139-15.239-8.529-1.517-7.794,5.384-8.051,7.858a3.475,3.475,0,0,1-5.306,2.177c-5.614-3.885-8.673.432-10.283,1.051-2.863,1.1-5.727-.2-8.858,1.735-3.737,2.3-3.454,8.412-6.636,11.4s-7.609,4.34-7.021,8.99c.785,6.215,6.7,7.278,9.639,7.873,6.806,1.377,12.386,2.589,14.625,8.536,1.664,4.418,6.346,5.057,6.335,9.355-.012,4.668-1.93,15.827-3.188,18.941-1.007,2.495-6.106,2.441-7.692,2.362a155.567,155.567,0,0,0,9.834,22.772c3.772,7.28,14.575,2.187,18.82-.132a27.444,27.444,0,0,1,9.276-3.17c-5.963-.958-12.173-5.832-16.861-17.771-4.561-11.615-5.939-26.889,2.009-30.056,7.595-3.026,14,6.608,8.295,12.354-4.655,4.69-1.741,10.043-.784,11.74a58.5,58.5,0,0,0,5.5,8.073,9.887,9.887,0,0,0,12.876,2.2,123.431,123.431,0,0,1,13.458-6.958C568.241,196.831,565.448,187.873,561.88,183.736Z" transform="translate(-213.367 -55.796)" fill="#0089b8"/>
      <path id="Path_170" data-name="Path 170" d="M620.011,407.86c0,13.64,4.41,31.588,38.089,17.76,16.626-6.826,20.286-17.969,19.282-33.6C676.4,376.749,669.8,369.8,662.2,372.689c-6.627,2.52-9.994,4.745-21.525,5.455C630.343,378.78,620.011,388.331,620.011,407.86Z" transform="translate(-274.281 -165.443)" fill="#6e7476"/>
      <path id="Path_171" data-name="Path 171" d="M662.364,430.51c.006,4.868,3.565,7.313,10,5.161,2.81-.94,8.614-3.286,10.691-4.123,4.673-1.882,7.219-3.913,6.986-10.546-.194-5.527-1.155-6.764-7.884-4.662-2.488.777-7.662,2.342-10.3,3.174C664.558,421.812,662.359,425.811,662.364,430.51Z" transform="translate(-292.707 -184.294)" fill="#969b9d"/>
      <path id="Path_172" data-name="Path 172" d="M674.956,553.454c-8.431,0-9.026-2.994-4.809-7.211,6.363,0,7.837-2.627,7.837-7.571V441.711h6.448v96.863C684.432,548.8,682.233,553.454,674.956,553.454Z" transform="translate(-294.98 -195.751)" fill="#969b9d"/>
      <path id="Path_173" data-name="Path 173" d="M612.888,626.745H535.978l5.629,7.211H617.7Z" transform="translate(-237.721 -276.254)" fill="#969b9d"/>
      <path id="Rectangle_48" data-name="Rectangle 48" d="M2.981,0H6.4a4.422,4.422,0,0,1,4.422,4.422V15.352A4.422,4.422,0,0,1,6.4,19.774H2.981A2.981,2.981,0,0,1,0,16.793V2.981A2.981,2.981,0,0,1,2.981,0Z" transform="matrix(1, 0.003, -0.003, 1, 442.152, 232.37)" fill="#7e8688"/>
      <rect id="Rectangle_49" data-name="Rectangle 49" width="9.86" height="73.503" transform="translate(332.835 356.516)" fill="#969b9d"/>
      <rect id="Rectangle_50" data-name="Rectangle 50" width="4.703" height="44.453" rx="2.352" transform="translate(315.539 430.659) rotate(-90)" fill="#969b9d"/>
      <rect id="Rectangle_51" data-name="Rectangle 51" width="9.86" height="73.503" transform="translate(400.708 356.516)" fill="#7e8688"/>
      <rect id="Rectangle_52" data-name="Rectangle 52" width="4.703" height="44.453" rx="2.352" transform="translate(383.411 430.659) rotate(-90)" fill="#7e8688"/>
      <path id="Path_174" data-name="Path 174" d="M496.112,736.579c-1.419,1.365-3.656,1.191-4.886,1.139-6.667-.283-10.61-4.989-11.4-2.45-1.28,4.113-2.294,4.925-9.9,7.01-13.895,3.809-14.788,6.37-14.788,8.064,0,1.537,1.035,2.134,2.456,2.134,2.037,0,39.558.049,39.558.049,3.877,0,5.351-.628,5.9-2.682,1.106-4.164-.511-10.232-1.6-13.128-1.932-5.128-2.942-5.469-3.933-5C496.267,732.312,497.872,734.884,496.112,736.579Z" transform="translate(-202.548 -321.857)" fill="#636a6d"/>
    </g>
  </g>
</svg>
