<svg xmlns="http://www.w3.org/2000/svg" width="589.252" height="431.123" viewBox="0 0 589.252 431.123">
  <g id="Group_18" data-name="Group 18" transform="translate(-8.025 -6.332)">
    <rect id="Rectangle_26" data-name="Rectangle 26" width="19.228" height="40.317" transform="translate(227.347 196.694)" fill="#3b4547"/>
    <path id="Path_69" data-name="Path 69" d="M282.431,238.046H393L353.562,98.53H243Z" transform="translate(-102.088 -40.057)" fill="#3b4547"/>
    <path id="Path_70" data-name="Path 70" d="M316.9,236.178l-34.877-123.4H365.26l34.877,123.4Z" transform="translate(-119.042 -46.249)" fill="#2d3738"/>
    <path id="Path_71" data-name="Path 71" d="M243,98.53l39.433,139.516h11.318L254.315,98.53Z" transform="translate(-102.088 -40.057)" fill="#4c5658"/>
    <path id="Path_72" data-name="Path 72" d="M252.3,236.557c1.229,23.488,7.358,60.08,8.834,66.678,2.18,9.741,9.639,25.2,9.639,25.2L256.8,331.4s-9.914-16.686-13.517-22.491c-1.352-2.178-3.442-9.285-3.98-11.489-3.622-14.828-6.157-30.225-6.157-30.225Z" transform="translate(-97.809 -100.026)" fill="#14a6d7"/>
    <path id="Path_73" data-name="Path 73" d="M138.283,218.277c6.7,1.984,23.266,3.265,42.492,2.745-10.974-11.986-11.8-23.706-3.114-34.761,13.379-17.02,28.946-35.475,31.5-48.548,2.929-14.981-2.39-21.737-11-38.71-8.977-17.7-9.936-27.818-15.02-34.093-7.058-8.711-18.27-10.749-28.928,1.464-23.473,26.9-40.4,80.884-36.684,136.977C120.7,209.95,128.053,215.25,138.283,218.277Z" transform="translate(-47.354 -22.358)" fill="#2fc6f9"/>
    <path id="Path_74" data-name="Path 74" d="M240,85.812a32.093,32.093,0,0,0,9.537,2.159c2.778.225,6.7,1.751,8.936,2.346,6.214,1.652,17.553,1.878,24.011-.6,10.135-3.889,18.248-14.868,24.975-19.3,3.179-2.1,6.264-13.888,5.025-20.421S294.8,21.719,285.565,23.184,240.735,49.2,239.5,50.443a21.35,21.35,0,0,0-5.328,9.136c-1.929,6.409-3.007,15.082-1.543,18.686A13.321,13.321,0,0,0,240,85.812Z" transform="translate(-97.286 -7.291)" fill="#d7d8d8"/>
    <path id="Path_75" data-name="Path 75" d="M235.393,55.242c.718,3.17,3.3,8.182,5.448,11.407,2.592,3.891,15.616,6.128,17.456,3.891,1.853-2.252,2.29-6.1,5.032-8.014s8.451.39,12.127,1.352c1.681.44,6.538-4.969,9.637-6.331,2.568-1.128,6.38.831,7.965,2.6s8.3.26,9.32-6.862c.751-5.257.826-9.462,3.379-6.759,3.6,3.816,3.9,6.683,4.055,16.145.076,4.791,3.774,4.259,6.908-1.277,2.728-4.818,2.726-9.484,2.4-13.366-.376-4.506,4.254,2.439,7.042,2.9,4.053.668,3.179-3.131.73-6.653s-8.918-16.33-8.692-21.741c.244-5.856-.736-8.011-6.739-7.17-7.51,1.051-11.666-1.347-10.926-3.98.938-3.342-3.267-5.136-6.4-5.052-3.8.1-18.191.622-29.079,7.455-5.422,3.4-19.372,12.4-25.007,22.828C235.02,45.93,234.492,51.262,235.393,55.242Z" transform="translate(-98.628 0)" fill="#4c5658"/>
    <path id="Path_76" data-name="Path 76" d="M247.478,566.741c2.32-19.951,21.962-52.659,27.968-74.741s8.483-37,5.555-43.758-32.666-42.593-32.666-42.593l-45.046-3.089c27.361,36.784,36.123,49.244,41.16,61.385,3.252,7.839,1.97,28.056-2.324,47.565-.649,2.951-5.662,38.6-6.9,59.1-.016.262-.294,5-.316,5.259,2.807,3.427,9.422,6.173,12.145,2.8C247.031,575.3,247.21,569.047,247.478,566.741Z" transform="translate(-84.836 -172.149)" fill="#082d3c"/>
    <path id="Path_77" data-name="Path 77" d="M143.431,441H131.548L135,626.255h4.988Z" transform="translate(-53.667 -188.849)" fill="#7e8c91"/>
    <path id="Path_78" data-name="Path 78" d="M269.928,406.027c-18.591-22.6-38.589-34.862-73.967-58.079-6.751-4.43-11.877-10.722-15.885-15.1-19.225.52-35.79-.761-42.492-2.745-10.229-3.027-17.578-8.327-20.753-14.927.014.211.022.422.037.633,3.48,50.447,32.986,57.071,48.98,63.83,16.083,6.8,43.136,20.939,49.609,25.48,6.95,4.875,7.95,10.146-5.424,14.455-40.81,13.147-57.244,24.744-91.507,39.022-1.905.892-3.752,5.431-2.905,8.69a5.8,5.8,0,0,0,7.612,4.221c2.681-1.458,8.953-3.865,23.015-7.012,10.085-2.256,94.2-17.166,107.76-21.777C270.41,437.138,284.046,423.192,269.928,406.027Z" transform="translate(-46.656 -134.183)" fill="#1d4354"/>
    <rect id="Rectangle_27" data-name="Rectangle 27" width="54.307" height="6.602" transform="translate(223.935 230.41)" fill="#2d3738"/>
    <path id="Path_79" data-name="Path 79" d="M200.5,286.377c-6.059-8.587-12.657-19.649-10.988-25.812,2.929-10.813,19.712-39.649,19.993-41s3.211-11.489,3.211-11.489l-15.432,12.391c-.676.451-17.075,25.888-20.163,30.863-5.906,9.518-12.731,21.4-3.807,34.221A256.3,256.3,0,0,0,200.5,286.377Z" transform="translate(-69.948 -87.651)" fill="#14a6d7"/>
    <path id="Path_80" data-name="Path 80" d="M183.581,352.526c19.75,16.671,34.812,23.725,34.812,23.725s-5.188-17.192-5.582-18.318c-.169-.485-4.433-5.556-9-12.036a256.3,256.3,0,0,1-27.186-.827A39.053,39.053,0,0,0,183.581,352.526Z" transform="translate(-73.249 -147.172)" fill="#082d3c"/>
    <path id="Path_81" data-name="Path 81" d="M281.515,392.214a16.281,16.281,0,0,0,4.59,2.056c3.656.65,12.555,1.844,15.4,2.422s8.664,3.051,9.884,4.462c2.155,2.492-1.224,3.493-3.248,3.493H279.652c-2.07,0-2.049.02-4.312.02s-5.06-1.284-6.612-2.113C268.255,399.692,275.043,395.124,281.515,392.214Z" transform="translate(-113.258 -167.654)" fill="#d7d8d8"/>
    <path id="Path_82" data-name="Path 82" d="M195.814,180.921c3.71,5.032,6.832,12.7,5.294,17.346s-16.671,29.453-18.924,36.3-2.71,16.641,9.3,30.221,29.529,24.347,39.106,29.034a78.584,78.584,0,0,0,12.787-10.34c-.854-.424-16.1-12.109-23.495-19.731-6.713-6.918-10.212-16.821-11.114-21.1s2.253-8.56,6.533-12.728,26.092-26.063,29.475-32.478,5.229-13.967,1.939-25.232-11.518-22.286-17.48-30.263Z" transform="translate(-75.119 -58.921)" fill="#2fc6f9"/>
    <rect id="Rectangle_28" data-name="Rectangle 28" width="176.267" height="139.516" transform="translate(390.182 58.473)" fill="#3b4547"/>
    <rect id="Rectangle_29" data-name="Rectangle 29" width="160.099" height="123.385" transform="translate(398.266 66.538)" fill="#2d3738"/>
    <path id="Path_83" data-name="Path 83" d="M110.725,569.812c-.952,1.681-.447,4.207,2.176,5.94,2.372,1.567,3.141,2.793,2.478,4.526-1.371,3.585-1.8,6.311-2.393,13.068-.378,4.316-1.262,9.414-5,10.97-1.42.592-2.982.453-4.207-1.871-7.893-14.978-2.713-14.677-9.476-26.416-1.4-2.424-1.2-5.184,1.561-6.967,3.337-2.156,5.132-1.449,11.4-4.529,1.63-.8,2.927-.465,3.591.391C111.855,566.209,111.619,568.234,110.725,569.812Z" transform="translate(-37.118 -242.324)" fill="#2fc6f9"/>
    <path id="Path_84" data-name="Path 84" d="M255.62,702.329c-1.449.234-2.089,1.976-2.484,4.951-.547,4.114-2.483,5.642-2.415,7.563.235,6.575,5.515,8.566,9.988,16.826,3.957,7.308,10.178,8.086,11.53,8.086,1.183,0,3.248-.044,4.326-.044s2.456-3.24-.04-6.079c-4.96-5.644-7.177-8.945-7.369-23.555-.04-3.02-2.1-3.8-3.4-3.214-1.707.767-2.647,1.8-5.522.25C258.085,705.951,257.434,702.037,255.62,702.329Z" transform="translate(-105.444 -302.384)" fill="#0089b8"/>
    <rect id="Rectangle_30" data-name="Rectangle 30" width="17.715" height="40.317" transform="translate(469.458 196.694)" fill="#3b4547"/>
    <rect id="Rectangle_31" data-name="Rectangle 31" width="46.85" height="4.107" transform="translate(454.89 232.905)" fill="#3b4547"/>
    <rect id="Rectangle_32" data-name="Rectangle 32" width="490.98" height="15.135" transform="translate(8.025 237.012)" fill="#7e8c91"/>
    <rect id="Rectangle_33" data-name="Rectangle 33" width="98.272" height="15.135" transform="translate(499.005 237.012)" fill="#4b646f"/>
    <path id="Path_85" data-name="Path 85" d="M972.236,441h11.883l-3.448,185.26h-4.988Z" transform="translate(-418.922 -188.849)" fill="#4b646f"/>
    <path id="Path_86" data-name="Path 86" d="M905.654,441h11.883l-3.447,185.26H909.1Z" transform="translate(-389.993 -188.849)" fill="#4b646f"/>
    <path id="Path_87" data-name="Path 87" d="M76.849,441H64.966l3.448,185.26H73.4Z" transform="translate(-24.739 -188.849)" fill="#7e8c91"/>
    <path id="Path_88" data-name="Path 88" d="M607.573,629.381c-.288,3.768,30.345,65.016,30.345,65.016s6.74.515,8.283,0c0,0-13.407-32.394-18.456-62.9" transform="translate(-260.485 -270.697)" fill="#0089b8"/>
    <path id="Path_89" data-name="Path 89" d="M655.462,741.517c-2.9-.9-5.89-3.884-5.89-2.012,0,3.708.727,4.96-4.313,6.85-6.521,2.445-7.31,5.364-7.008,7.266a2.05,2.05,0,0,0,2.063,1.537l10.282.018,2.051,0,7.06.014c1.979,0,2.988-1.092,3.1-2.592.294-4.023-1.686-9.418-2.243-11.5-.986-3.694-2.061-3.635-2.567-3.3C657.36,738.228,658.357,742.414,655.462,741.517Z" transform="translate(-273.791 -317.738)" fill="#082d3c"/>
    <path id="Path_90" data-name="Path 90" d="M601.472,278.694c-9.086.676-15.987-1.246-26.583-3.9-9.08-2.278-25.593-2.168-43.443-3.557l1.975,12.065c8.079-.271,20.382-.388,27.426,1.1,12.766,2.7,29.737,13.592,38.448,16.746,8.583,3.108,29.815,7.041,35.819,7.81l12.306-31.54C637.066,277.943,612.822,277.849,601.472,278.694Z" transform="translate(-227.411 -115.091)" fill="#7e8c91"/>
    <path id="Path_91" data-name="Path 91" d="M486.657,267.82c-8.565-.8-15.1-1.434-16.241-1.621-3.761-.614-26.667-1.889-29.287-1.889s-2.123,2.32.225,2.929c1.806.468,16.379,2.963,18.474,4.224s1.577,4.336,2.591,6.251a9.152,9.152,0,0,0,8.5,4.506c4.486-.274,10.832-1.391,15.6-1.633,1.321-.067,3.8-.193,6.892-.3l-1.975-12.065C489.855,268.1,488.261,267.97,486.657,267.82Z" transform="translate(-187.407 -112.084)" fill="#bec0c2"/>
    <path id="Path_92" data-name="Path 92" d="M722.765,232.433c4.431,2.215,7.218-2.354,6.871-3.792-2.647,1.717-6.778-1.282-7.209-4.543,4.439.455,4.468-2.7,4.468-2.7s-3.277,1.6-8.092-4.581c-4.956-6.364-3.214-13.806-.788-19.111,4.205-9.2,9.162-12.813,12.672-19.581,4.731-9.124,5.244-20.512,3.548-26.527s-2.609-11.827-6.452-13.855c-2.2-1.162-6.295-1.089-6.295-1.089,1.512-1.424,2.854-6.909-3.3-10.438-2.72-1.559-7.877,1.51-17.121,2.854-10.588,1.539-19.825-5.857-31.286,10.073-3.255,4.524-2.883,15.451-2.737,22.433.17,8.042-4.027,13.417-7.054,18.708a22.046,22.046,0,0,0,3.079,25.382c7.645,8.758,9.93,16.736,7.585,28.46-2.7,13.517,2.022,16.434,5.257,21.627l16.065-27.935v-2.947c.08-8.355-5.013-14.016-3.2-22.522l6.437-11.177s6-.3,6.831,1.953,4.792,12.465,4.988,15.619,9.958,29.549,9.958,29.549Z" transform="translate(-282.096 -51.897)" fill="#e9f1f4"/>
    <path id="Path_93" data-name="Path 93" d="M705.341,381.857c9.4-.91,15.607-3.805,17.529-6.749a36.243,36.243,0,0,1-2.975-8.355c-2.862-13.273.062-30.046,4.53-39.147,5.672-11.554,12.066-24.067,11.442-37.1-.925-19.356-13.78-27.514-15.544-36.646-1.6-8.29,2.087-17,7.941-21.984h-1.34s-12.054,8.129-12.1,8.277-11.5,7.562-11.5,7.562c1.361,4.932,2.794,11.512-1.1,22.365-1.932,5.386-10.208,13.592-13.812,19.524-4.808,7.913-2.161,13.755.567,20.607,1.307,3.283-5,47.3-8.076,68.036A55.586,55.586,0,0,0,705.341,381.857Z" transform="translate(-292.344 -97.992)" fill="#7e8c91"/>
    <path id="Path_94" data-name="Path 94" d="M703.347,286.169c1.676-1.87,3.036-3.778,6.392-7.9,8.523-10.476,17.516-14.23,20.284-14.362,2.676-.127,4.722-.075,4.274-1.1-1.963-2.968-3.855-6.141-4.4-8.94-1.6-8.29,2.087-17,7.941-21.984H736.5s-12.054,8.129-12.1,8.277-11.5,7.562-11.5,7.562c1.361,4.932,2.794,11.512-1.1,22.365-1.045,2.913-4.105,6.7-6.979,10.983C703.524,283.184,702.288,287.349,703.347,286.169Z" transform="translate(-301.923 -97.992)" fill="#bec0c2"/>
    <path id="Path_95" data-name="Path 95" d="M704.723,439.82s12.806-15.08,18.042-22.393a104.467,104.467,0,0,0,7.405-11.371S723.758,425.717,715.5,435a129.665,129.665,0,0,1-12,11.433Z" transform="translate(-302.165 -173.668)" fill="#4b646f"/>
    <path id="Path_96" data-name="Path 96" d="M739.661,237.264a2.051,2.051,0,0,1,.141-.193c-3.459,2.344-7.728,5.251-7.757,5.339-.049.147-11.5,7.562-11.5,7.562a37.237,37.237,0,0,1,1.271,6.461C733.979,250.9,735.143,245.867,739.661,237.264Z" transform="translate(-309.567 -100.249)" fill="#a8adb1"/>
    <path id="Path_97" data-name="Path 97" d="M699.11,491.9a55.587,55.587,0,0,1-24.443-3.61c-.957,6.459-1.6,10.662-1.6,10.662l-6.51,32.785s16.668,7.378,33.341,6.608c16.651-.768,27.109-12.315,27.109-26.133,0-11.839-6.349-18.814-10.369-27.062C714.717,488.091,708.509,490.986,699.11,491.9Z" transform="translate(-286.113 -208.031)" fill="#14a6d7"/>
    <path id="Path_98" data-name="Path 98" d="M604.661,588.923c-4.539-12.318.2-24.566,16.628-22.743,13.254,1.471,32.233,3.745,40.24,4.455,9.663.857,27.192-2.092,36.764-5.924,7.043-2.82,9.532-3.64,13.992-3.173,5.219.547,12.655,7.177,12.655,17.77,0,12.4-5.332,19.1-15.911,19.1H641.421C621.818,598.4,610.7,605.319,604.661,588.923Z" transform="translate(-258.512 -241.167)" fill="#3b4547"/>
    <path id="Path_99" data-name="Path 99" d="M709.014,154.2c-7.089,3.329-11.264,7.829-13.6,16.277-1.141,4.134-5.183,14.173-5.159,18.172.01,1.71,1.3,4.153,2.328,5.557a14.629,14.629,0,0,1,2.724,8.129c.232,7.112,2.414,11.48,7.453,11.144,11.808-.787,21.721-9.824,24.917-12.672,2.738-2.44,3.282-2.644,4.651-3.916a41.479,41.479,0,0,1,6-4.646,7.78,7.78,0,0,0,3.578-8.283c-.727-2.778-3.768-4-7.6-2.22-4.454,2.066-5.772-4.713-6.167-7.716-.559-4.26,2.982-8.375-1.639-13.054-5.11-5.175.421-9.354.421-9.354A34.3,34.3,0,0,0,709.014,154.2Z" transform="translate(-296.411 -63.01)" fill="#bec0c2"/>
    <path id="Path_100" data-name="Path 100" d="M750.941,391.562c-2.159,7.19-4.618,21.12-2.545,29.829,1.957,8.22,7.22,15.677,17.158,12.27,8.96-3.073,7.673-21.283,11.013-32.863,3.492-12.109,5.088-26.208-1.4-28.284C764.289,369.034,754.863,378.5,750.941,391.562Z" transform="translate(-321.329 -158.78)" fill="#3b4547"/>
    <path id="Path_101" data-name="Path 101" d="M778.157,553.572c-8.439,0-7.929-3-3.707-7.219,6.37,0,7.846-2.63,7.846-7.579V441.711h6.455v96.966C788.751,548.917,786.367,553.572,778.157,553.572Z" transform="translate(-331.698 -189.16)" fill="#636a6d"/>
    <path id="Path_102" data-name="Path 102" d="M718.122,626.745H641.829l5.635,7.219h74.365Z" transform="translate(-275.369 -269.552)" fill="#636a6d"/>
    <path id="Path_103" data-name="Path 103" d="M590.8,629.381c-.288,3.768,32.1,65.016,32.1,65.016s6.739.515,8.283,0c0,0-16.224-38.18-21.45-62.9" transform="translate(-253.196 -270.697)" fill="#14a6d7"/>
    <path id="Path_104" data-name="Path 104" d="M641.792,741.517c-2.9-.9-5.89-3.884-5.89-2.012,0,3.708.727,4.96-4.313,6.85-6.521,2.445-7.31,5.364-7.008,7.266a2.051,2.051,0,0,0,2.063,1.537l10.282.018,2.051,0,7.06.014c1.979,0,2.988-1.092,3.1-2.592.294-4.023-1.686-9.418-2.243-11.5-.986-3.694-2.061-3.635-2.567-3.3C643.69,738.228,644.688,742.414,641.792,741.517Z" transform="translate(-267.852 -317.738)" fill="#1d4354"/>
    <path id="Path_105" data-name="Path 105" d="M532.292,531.88c-.925-.9-76.272-4.506-79.276-4.205S419.975,550.5,419.975,550.5L480.2,641.535l-.255,6.1c3.327.729,10.716,5.361,13.568,4.417,2.2-.729,1.679-7.131,1.433-8.769-11.208-18.2-29.434-50.413-32.961-62.633-4.547-15.757-4.206-25.549,11.606-25.344,12.9.167,38.561,2.966,54.98,1.883C528.572,557.192,533.217,532.781,532.292,531.88Z" transform="translate(-178.98 -226.5)" fill="#082d3c"/>
    <path id="Path_106" data-name="Path 106" d="M515.856,737.912c-8.925,2.591-12.842-5.584-13.779-2.574-1.282,4.118-2.3,4.93-9.913,7.018-13.91,3.813-14.8,6.377-14.8,8.073,0,1.538,1.037,2.136,2.459,2.136,2.039,0,38.9.049,38.9.049,3.881,0,6.054-.628,6.6-2.685,1.107-4.168-.512-10.242-1.6-13.142-1.934-5.134-2.759-5.455-4-4.844-.736.363-.457,2.022-.817,3.463A4.242,4.242,0,0,1,515.856,737.912Z" transform="translate(-203.912 -315.159)" fill="#0089b8"/>
    <path id="Path_107" data-name="Path 107" d="M551.677,390.993a111.922,111.922,0,0,0-14.072-11.258c-4.225-2.513-10.2-2.747-19.629,3.582a46.32,46.32,0,0,0-6.683,5.444c-3.313,3.514.419,6.065,1.343,5.591,7.508-3.854,14.949-2.749,17.376-2.425,2.329.312,4.377-.264,6.476,3.066,1.984,3.147,6.862,3.666,6.862,3.666Z" transform="translate(-218.07 -161.517)" fill="#d7d8d8"/>
    <path id="Path_108" data-name="Path 108" d="M545.005,408.2a3,3,0,0,0,.084-.68c0-3.96-7.86-7.17-17.555-7.17s-17.271,3.3-17.471,7.851Z" transform="translate(-218.121 -171.19)" fill="#2d3738"/>
    <path id="Path_109" data-name="Path 109" d="M458.677,389.023c-3.485-3.494-6.951-7.221-9.518-8.748-4.224-2.513-14.23-4.018-21.739-.3a72.084,72.084,0,0,0-10.082,6.4c-3.607,3.311.252,5.4,2.028,5.4,7,0,13.971-.107,16.107,0,2.347.118,6.708-.037,9.176,3.028,1,1.244,1.976,2.526,1.976,2.526Z" transform="translate(-177.188 -161.367)" fill="#d7d8d8"/>
    <path id="Path_110" data-name="Path 110" d="M579.237,241.1s-1.837,2.553-3,3.9-9.988,4.673-9.988,4.673l-10.33,1.258c-.319-1.333-2.128-2.5-3.9-3.04-4.394-1.331-10.8.034-14.774,2.578-4.079,2.609-15,7.563-18.775.276-11.147-21.51-14.812-36.4-18.15-65.651l42.574-2.122,16.37,19.224,8.99,24.522c1.287,5.7,4.2,7.9,8.943,11.213Z" transform="translate(-213.886 -76.748)" fill="#d7d8d8"/>
    <path id="Path_111" data-name="Path 111" d="M472.9,589.464c-5.026-12.683.221-25.295,18.413-23.417,14.676,1.514,35.167,6.146,44.068,6.3,6.006.107,31.521-.232,41.863-4.7,8.561-3.7,9.506-4.223,14.474-4.243,5.5-.023,13.435,5.249,13.435,16.157,0,12.766-4.968,19.663-16.682,19.663H513.6C491.895,599.226,479.586,606.346,472.9,589.464Z" transform="translate(-201.188 -242.033)" fill="#4c5658"/>
    <path id="Path_112" data-name="Path 112" d="M470.258,366.426a478.268,478.268,0,0,0,30.657,40.053c10.857,12.459,21.97,5.7,29.587-3.467a128.25,128.25,0,0,0,23.8-43.655c2.249-7.6,5.707-29.561-4.656-42.553-8.161-10.232-12.7-11.5-16.321-9.246-14.355,8.939-14.2,20.605-15.594,33.739-1.183,11.152-1.576,21.354-3.343,34.16-1.461,10.591-3.612,11.909-7.02,8.907-7.323-6.454-17.293-17.416-25.063-26.246-.294-.3-2.473,1.054-5.491,3.07C473.823,363.189,469.986,365.851,470.258,366.426Z" transform="translate(-200.821 -130.462)" fill="#2fc6f9"/>
    <path id="Path_113" data-name="Path 113" d="M616.876,287.075c-3.5-2.778-6.05-5.52-9.19-6.914,1.874,3.05-4.19,9.527-14.234,10.6-5.289.564-12.109,1.727-17.516,6.022-7.583,6.022-6.366,23.616-1.652,36.179,6.946,18.513,14.887,51.066,10.75,62.555a12.135,12.135,0,0,1-3.913,5.59c7.181,7.346,21.419,21.289,33.605,25.072,20.215,6.275,29.425-10.969,32.292-21.184C654.841,361.224,651.887,314.846,616.876,287.075Z" transform="translate(-244.378 -118.971)" fill="#2fc6f9"/>
    <path id="Path_114" data-name="Path 114" d="M617.044,365.925c1.507-18.429-5.67-32.077-11.13-38.006,6.286,15.728,5.465,33.445,3.32,40.7a123.082,123.082,0,0,1-12.565,27.81,71.438,71.438,0,0,1,.761,14.36C609.609,399.818,615.807,381.049,617.044,365.925Z" transform="translate(-255.749 -139.72)" fill="#14a6d7"/>
    <path id="Path_115" data-name="Path 115" d="M531.09,519.09c-12.187-3.783-26.424-17.726-33.605-25.072-5.115,4.072-13.96,6.569-37.776,5.224-26.583-1.5-57.363,3.709-70.738,15.62-13.86,12.341-15.012,21.209-1.051,42.7,22.015,33.893,47.289,59.1,56.827,69.542a24.235,24.235,0,0,1,4.483,6.745c1.946,0,10.8,2.16,13.305.667,1.913-1.14,2.06-3.737,1.946-5.3-11.016-17.809-29.816-50.286-36.274-68.816-7.322-21.008,11.368-26.285,27.594-24.078,14.08,1.915,44.7,10.519,75.1,3.765,14.639-3.253,27.006-16.22,30.282-31.108q1.21-5.5,2.2-11.079C560.515,508.121,551.305,525.365,531.09,519.09Z" transform="translate(-160.741 -211.885)" fill="#1d4354"/>
    <path id="Path_116" data-name="Path 116" d="M561.967,183.8c-3.571-4.142-2.046-12.348-1.654-15.581s-1.017-5.772-4.1-9c-2.768-2.9-1.206-7.177-.618-10.08s1.188-5.427-1.056-7.9c-2.87-3.162-8.8-1.79-11.744-1.766a5.376,5.376,0,0,1-5.386-3.976c-1.5-5.345-3.972-13.978-11.151-15.255-8.538-1.519-7.8,5.389-8.06,7.867a3.478,3.478,0,0,1-5.312,2.18c-5.62-3.889-8.683.432-10.294,1.052-2.866,1.1-5.733-.2-8.867,1.737-3.74,2.307-3.458,8.421-6.643,11.41s-7.617,4.345-7.029,9c.785,6.221,6.705,7.286,9.65,7.882,6.813,1.379,12.4,2.591,14.64,8.545,1.665,4.422,6.353,5.062,6.342,9.365-.012,4.673-1.932,15.844-3.191,18.961-1.008,2.5-6.113,2.443-7.7,2.364a155.721,155.721,0,0,0,9.845,22.8c3.777,7.287,14.59,2.19,18.84-.132a27.472,27.472,0,0,1,9.285-3.173c-5.969-.959-12.186-5.838-16.879-17.79-4.565-11.627-5.945-26.917,2.011-30.087,7.6-3.029,14.013,6.615,8.3,12.367-4.66,4.694-1.743,10.053-.784,11.752a58.558,58.558,0,0,0,5.5,8.081,9.9,9.9,0,0,0,12.89,2.2,123.554,123.554,0,0,1,13.473-6.966C568.334,196.912,565.538,187.945,561.967,183.8Z" transform="translate(-205.06 -49.396)" fill="#4c5658"/>
    <path id="Path_117" data-name="Path 117" d="M620.011,407.9c0,13.654,4.415,31.622,38.129,17.779,16.643-6.833,20.308-17.988,19.3-33.636-.982-15.287-7.593-22.245-15.2-19.351-6.634,2.523-10,4.75-21.548,5.461C630.354,378.787,620.011,388.348,620.011,407.9Z" transform="translate(-265.89 -158.893)" fill="#4c5658"/>
    <path id="Path_118" data-name="Path 118" d="M662.364,430.526c.006,4.873,3.569,7.321,10.012,5.167,2.813-.941,8.623-3.29,10.7-4.128,4.678-1.884,7.226-3.917,6.993-10.557-.194-5.533-1.156-6.772-7.892-4.667-2.491.778-7.67,2.345-10.316,3.178C664.56,421.819,662.359,425.822,662.364,430.526Z" transform="translate(-284.291 -177.718)" fill="#7e8688"/>
    <path id="Path_119" data-name="Path 119" d="M674.963,553.572c-8.44,0-9.036-3-4.814-7.219,6.37,0,7.846-2.63,7.846-7.579V441.711h6.455v96.966C684.45,548.917,682.249,553.572,674.963,553.572Z" transform="translate(-286.561 -189.16)" fill="#7e8688"/>
    <path id="Path_120" data-name="Path 120" d="M612.969,626.745h-76.99l5.635,7.219h76.17Z" transform="translate(-229.38 -269.552)" fill="#7e8688"/>
    <path id="Rectangle_34" data-name="Rectangle 34" d="M2.981,0H6.414a4.422,4.422,0,0,1,4.422,4.422v10.95a4.422,4.422,0,0,1-4.422,4.422H2.981A2.981,2.981,0,0,1,0,16.814V2.981A2.981,2.981,0,0,1,2.981,0Z" transform="matrix(1, 0.003, -0.003, 1, 450.644, 238.948)" fill="#636a6d"/>
    <rect id="Rectangle_35" data-name="Rectangle 35" width="9.87" height="73.581" transform="translate(341.212 363.225)" fill="#7e8688"/>
    <rect id="Rectangle_36" data-name="Rectangle 36" width="4.708" height="44.5" rx="2.354" transform="translate(323.897 437.446) rotate(-90)" fill="#7e8688"/>
    <rect id="Rectangle_37" data-name="Rectangle 37" width="9.87" height="73.581" transform="translate(409.157 363.225)" fill="#636a6d"/>
    <rect id="Rectangle_38" data-name="Rectangle 38" width="4.708" height="44.5" rx="2.354" transform="translate(391.841 437.446) rotate(-90)" fill="#636a6d"/>
    <path id="Path_121" data-name="Path 121" d="M496.155,736.585c-1.42,1.367-3.66,1.193-4.891,1.141-6.674-.284-10.621-4.994-11.412-2.453-1.281,4.118-2.3,4.93-9.913,7.018-13.91,3.813-14.8,6.377-14.8,8.073,0,1.538,1.037,2.136,2.459,2.136,2.039,0,39.6.049,39.6.049,3.881,0,5.357-.628,5.9-2.685,1.107-4.168-.512-10.242-1.6-13.142-1.934-5.134-2.945-5.475-3.937-5C496.31,732.313,497.917,734.888,496.155,736.585Z" transform="translate(-194.256 -315.093)" fill="#2fc6f9"/>
  </g>
</svg>
