<svg xmlns="http://www.w3.org/2000/svg" width="1366" height="798.967" viewBox="0 0 1366 798.967">
  <g id="World_map_-_low_resolution_-_Copy" data-name="World_map_-_low_resolution - Copy" transform="translate(-13.8 -19.8)" opacity="0.3">
    <path id="kalimantan" d="M787.524,341.452l-3.464,13.1-18.826,6.326-5.723-6.627-2.711.753,5.121,19.729,7.681.9,10.241,3.916v3.916l4.669-.9,6.777-9.488V365.4l3.916-7.681,4.217.9L794.3,347.928,793.548,341l-6.024.452Z" transform="translate(376.006 162.548)" fill="#fff"/>
    <path id="papua_new_guinea" d="M848.5,365.2l-.6,36.748,5.271-.3,6.928-8.133,5.874.3,3.765,3.313,1.2,10.392,12.048,6.326,3.012-1.2v-3.765l-9.639-7.982L871.545,389.9l3.765-1.807-2.711-6.024-5.573-.151-1.355-6.476-14.759-9.94-2.41-.3Z" transform="translate(422.108 174.795)" fill="#fff"/>
    <path id="mexico" d="M133,242.754l7.229,22.892-3.464,1.958.452,4.518,6.476,4.97v9.036l7.982,7.53-3.464-22.44-4.518-14.759,1.2-10.241,3.765.452,1.506,3.464-1.506,8.735,19.579,38.254v13.705l15.814,18.525,17.32,7.982,7.229-4.217,10.241,8.283,6.024-6.024-2.711-6.777,8.735-2.711,2.711,1.506,2.711-2.711h4.217l7.53-13.253-3.765-3.464-14.759,3.464-3.464,9.789-8.735,1.506L207.1,318.509l-4.518-14.458,3.464-18.223-6.928-4.368L195.8,263.99l-2.861-1.2-5.121,5.121-5.874-3.163-2.259-11.6-23.193-2.41L144.6,241.7,133,242.754Z" transform="translate(60.323 112.296)" fill="#fff"/>
    <path id="estonia" d="M517.905,160.7l-8.434-.3-5.271,3.313v2.41l3.464,3.313,10.693,1.807-.452-10.542Z" transform="translate(248.174 71.153)" fill="#fff"/>
    <path id="algeria" d="M491.211,245.108,485.036,243l-25.6,4.819-5.572,4.217,3.464,17.621-10.241.452-6.175,9.789L426.3,283.362v7.229l48.043,36.748,8.133.753,27.26-21.236-2.711-3.464-5.121-.753-3.012-5.121V276.284l-2.109-2.109.3-5.422-5.422-5.422-.753-5.874,2.41-1.657-1.054-6.175-1.054-4.518Z" transform="translate(208.751 112.953)" fill="#fff"/>
    <path id="morocco" d="M465.814,249.2h-17.32l-3.464,7.53L437.2,260.5l-6.476,17.47-12.651,7.53L400.3,314.714l17.32-.3.753-8.585h4.368V294.081H438.1l.3-15.061,14.609-3.464,6.175-9.94,9.488-.3L465.814,249.2Z" transform="translate(195.594 116.091)" fill="#fff"/>
    <path id="mauretania" d="M400.4,302.659l3.313,4.368-.753,18.525,4.819-3.464,3.464-.753,4.819,1.657,5.422,7.53,5.121-3.464,24.85-.3-6.175-41.567h6.627l-12.35-9.488v6.175H424.045v11.747h-4.518l-.6,8.585-18.525.452Z" transform="translate(195.644 129.502)" fill="#fff"/>
    <path id="senegal" d="M408.281,307.5l-5.874,4.367-1.355,2.41-.452,2.41,2.259,1.506,7.229-.151,4.669-1.2.6,2.259-.452,3.012,4.518,2.259.9,1.054,5.874.151.151-2.56-5.422-6.476-6.024-8.133-3.765-1.506-2.862.6Z" transform="translate(195.746 145.291)" fill="#fff"/>
    <path id="gambia" d="M402.451,315.806l-.151,1.657,10.392-.151.6-1.506-.151-1.506-3.012,1.2-7.681.3Z" transform="translate(196.606 149.036)" fill="#fff"/>
    <path id="casamance" d="M402.3,317.2l1.807,4.518,1.054-2.862,12.651,1.355-5.422-2.862L402.3,317.2Z" transform="translate(196.606 150.503)" fill="#fff"/>
    <path id="bissau" d="M404.1,322.664l2.108,4.217,5.874-5.121v-1.506l-6.928-1.054-1.054,3.464Z" transform="translate(197.517 151.515)" fill="#fff"/>
    <path id="guinee" d="M406,327.531l4.518,7.079,6.024-5.121,6.175-.3,5.121,6.777,4.368,2.862,1.657-3.163,1.506-.753-.151-6.928-2.862-8.283-8.886.9-10.994-.9v2.861L406,327.531Z" transform="translate(198.478 151.769)" fill="#fff"/>
    <path id="sierra_leone" d="M409.5,331.821l8.434,8.283,6.024-7.38-3.765-6.024-5.271.6-5.422,4.518Z" transform="translate(200.25 155.311)" fill="#fff"/>
    <path id="liberia" d="M415.7,338.681l16.567,10.994-.452-8.434-4.97-5.874L422.025,331l-6.325,7.681Z" transform="translate(203.387 157.487)" fill="#fff"/>
    <path id="ivoire" d="M429.675,353.315l6.476-4.518,7.982-1.355,8.133,1.807-4.217-6.326-1.2-3.916,1.2-11.446-7.38.3-3.313-3.163-6.928.151-3.313.6.3,7.681-1.807.753L423.5,337.8l5.422,6.325.753,9.187Z" transform="translate(207.334 154.299)" fill="#fff"/>
    <path id="mali" d="M415,327.881l4.669-3.163,25.754-.151L439.4,283.151l6.777-.151,32.983,25.151,4.368.6-1.657,14.006-20.784,1.958-15.964,11.9-2.861,8.133-11.145.452-2.862-8.133-8.434.6.3-2.711L415,327.881Z" transform="translate(203.033 133.196)" fill="#fff"/>
    <path id="burkina" d="M452.122,311.352l5.422-.452,9.036,12.651-8.283,6.325-6.024-1.506-8.133.151-1.355,4.819-6.777.3-1.807-2.56,2.41-7.681,15.512-12.049Z" transform="translate(212.749 147.315)" fill="#fff"/>
    <path id="niger" d="M459.183,335.651l3.765-.151,3.464-5.271,5.874-1.054,6.175,3.765,13.253.452,10.241-4.217,3.765-3.313.3-4.368,7.079-7.229,1.958-15.814-4.669-9.789L498.341,285.8l-27.712,21.838-3.916-.452-1.657,15.061L450.9,323.6l8.283,12.049Z" transform="translate(221.201 134.613)" fill="#fff"/>
    <path id="ghana" d="M439.9,339.415l1.657,3.916,4.368,6.928,2.41-.151,6.627-3.765-.452-21.537-5.121-1.506-7.229.151L439.9,339.415Z" transform="translate(215.634 153.59)" fill="#fff"/>
    <path id="togo" d="M450.9,345.69l4.066-2.41-.151-15.663-2.56-4.217-1.657,1.355.3,20.934Z" transform="translate(221.049 153.641)" fill="#fff"/>
    <path id="benin" d="M455.211,344.9h3.163l.151-9.036,4.066-5.874-.151-10.241-3.615-.151-6.326,4.97,2.56,4.97.151,15.362Z" transform="translate(222.01 151.718)" fill="#fff"/>
    <path id="nigeria" d="M457.1,346.927l5.874.3,7.078,7.982,3.464.9,2.711-1.355,4.066-.6,1.355-5.723,5.572-3.765,6.024-.3,11.145-20.482-.151-4.669-5.121-3.916-10.241,4.518-13.705-.151-6.627-4.217-4.669,1.054-2.41,4.217-.151,12.049-3.916,5.572-.3,8.584Z" transform="translate(224.338 149.542)" fill="#fff"/>
    <path id="tunisia" d="M470.652,245.413l8.283-3.313,2.711,1.807.151,2.108-1.355,1.657.151,3.012,1.355.753v5.271l-1.506,2.41.151,1.657,5.572,1.958-4.518,6.928-1.807-.151-.3,5.573-1.958.3-1.657-1.506.452-5.723-5.422-5.271-.753-4.669,2.711-2.108-2.259-10.693Z" transform="translate(230.968 112.498)" fill="#fff"/>
    <path id="libya" d="M475.651,269.605l2.41-.452.753-5.422h1.2l4.819-7.831,11.9,3.464,3.163,4.97,11.6,5.271,6.024-2.56-.6-2.56-2.711-2.56.3-1.807,4.368-3.615h8.585l3.313,4.368,6.777,1.054.9,55.574-5.121-.151-30.874-16.115-3.313,1.958-12.651-3.163-3.464-4.518-4.97-.753-2.56-4.518.151-20.633Z" transform="translate(233.65 119.482)" fill="#fff"/>
    <path id="egypt" d="M517.5,260.506l4.066.151,7.832,2.108,3.765.151L537.832,259h2.109l3.916,2.108h5.874l3.163,9.036.9,2.861.9,4.368-1.506,1.054-2.56-1.355-2.862-9.639-2.711-.151-.151,3.313,1.807,5.572,14.157,17.47.3,7.53-4.066,4.669-38.555-.452L517.5,260.506Z" transform="translate(254.904 121.05)" fill="#fff"/>
    <path id="chad" d="M489.616,326.058l.151-4.518,7.079-6.928,1.958-17.019-4.819-9.036L497.3,286.9l32.23,16.717-.151,16.416-5.723,4.819v8.434l3.765,7.229h-6.627l-10.844,10.693-.3,3.313-7.982-.151-.151,1.506-4.518-.6-3.163-5.874-2.41-1.2.3-1.807,3.012-2.259V333.588l-4.066-.6-4.97-3.615,3.916-3.313Z" transform="translate(238.812 135.17)" fill="#fff"/>
    <path id="south_sudan" d="M559.175,331.6l-4.368-7.38-.452-5.422-1.054.151-.3,1.657-5.874,8.434-4.669-2.259-4.669,3.916-9.639-.6-4.217-3.313-6.024,3.163-.3,2.109-1.807,1.054,18.525,19.127,10.091.6,1.506,2.259,14.458.3.151-3.313,1.2-2.259,4.82-.6-6.024-8.735h-4.368l-1.2-6.175,3.615-1.506Z" transform="translate(254.044 151.313)" fill="#fff"/>
    <path id="sudan" d="M565.617,287.5l-5.572,5.572-38.857-.3.452,9.94-3.765-.151-.3,17.772L512,325.152l-.3,7.38,4.066,7.982,4.368,2.56v.6l6.024-3.163,4.669,3.615,8.434.452,4.97-4.066,4.368,2.108,4.97-7.079.452-2.41,3.765-.753.6,6.777,3.765,6.325,9.036-19.428V314.308l6.627-7.681Z" transform="translate(251.969 135.473)" fill="#fff"/>
    <path id="cameroon" d="M473.4,352.738l4.819,4.518-.3,6.928,26.657-.6,2.108-2.41L499,352.889l-1.2-3.012,4.819-9.036-3.313-6.024-2.711-1.506V330.3l3.163-2.108.151-9.488-2.56-.3v4.97L486.2,344.3l-6.777.3-4.669,3.163-1.355,4.97Z" transform="translate(232.587 151.111)" fill="#fff"/>
    <path id="eritrea" d="M552.452,316.914,552,308.028l6.024-6.928,1.657,1.2,3.012,9.789,14.157,10.542-2.56,3.163-10.241-8.886Z" transform="translate(272.364 142.356)" fill="#fff"/>
    <path id="djibouti" d="M567.3,319.765l-.9,5.121,6.024-.151.151-7.38L570.466,316l-3.163,3.765Z" transform="translate(279.651 149.896)" fill="#fff"/>
    <path id="ethiopia" d="M546.063,336.9l10.994-24.4H567.9l9.639,8.434-.6,6.928h7.53l.753,4.217,12.049,7.229,7.53.452-14.157,15.211L571.214,361h-4.819l-8.585-7.38-3.464-1.506-6.627-9.789h-4.368L542.9,337.8l3.163-.9Z" transform="translate(267.758 148.125)" fill="#fff"/>
    <path id="somaliland" d="M571.3,322.4l6.175,4.217,1.807-.151,15.211-5.271,1.807,5.572-1.2,4.669L591.782,334l-8.284-.6-11.747-7.229L571.3,322.4Z" transform="translate(282.131 152.528)" fill="#fff"/>
    <path id="soqotra" d="M595.2,317.106l3.163,3.615,4.368-2.56,1.506-.6-1.958-1.958-3.765,1.2-3.313.3Z" transform="translate(294.226 149.694)" fill="#fff"/>
    <path id="somalia" d="M599.038,321.86l6.627-2.56,2.259,1.355-.3,5.874-6.024,17.32-32.832,35.242L565,376.53l-.3-14.91,4.97-5.723,10.542-3.163,15.362-16.265,4.066-3.615,1.2-5.271-1.807-5.723Z" transform="translate(278.791 151.566)" fill="#fff"/>
    <path id="centrafrique" d="M491.5,349.856l7.079,7.53,2.711-3.615,4.368.151.9-3.464,4.368-2.711,9.036,6.175,5.271-5.121,20.181.9-18.675-19.278,2.56-1.506.3-3.464L525.39,323.5h-6.175l-10.091,9.94-.3,4.066-7.982-.3-.3,1.807-5.271-.6L490.6,347.3l.9,2.56Z" transform="translate(241.291 153.692)" fill="#fff"/>
    <path id="sao_tome" d="M466.3,354.4l1.657-.9,1.355,1.054-1.355,1.958-1.506-.6L466.3,354.4Z" transform="translate(228.994 168.874)" fill="#fff"/>
    <path id="principe" d="M468.6,350.552l2.56-.452.9,1.657-1.355,1.355-1.356-.151-.753-2.41Z" transform="translate(230.158 167.153)" fill="#fff"/>
    <path id="bioko" d="M472.653,344.4l-.753,3.012,2.108,1.2,1.958-1.506-.753-3.012-2.56.3Z" transform="translate(231.828 164.117)" fill="#fff"/>
    <path id="gabon" d="M486.556,349.6l-.151,3.765-8.434-.151L472.7,363.305l12.2,13.4,3.012-2.56-.151-2.56-2.108-.9v-1.807l4.669-3.012,4.217,3.163,4.518.151-.151-15.814-7.229-.3-.151-3.313-4.97-.151Z" transform="translate(232.233 166.9)" fill="#fff"/>
    <path id="equatorial_guinea" d="M476.551,349.6l-.151,2.108,6.777.3-.151-2.41Z" transform="translate(234.105 166.9)" fill="#fff"/>
    <path id="congo" d="M489.283,351.98l-.151,2.259,7.229.151.3,18.675-6.627-.151-3.765-3.012-3.012,1.657-.151.753,1.506.753.452,3.765L481,380.294l.9,1.807,4.518-3.464h2.108l.753,2.109,2.861,1.2,9.187-7.832-.151-5.723,1.958-4.669,5.874-4.368,1.506-14.759H506.3l-4.819,6.627-12.2.753Z" transform="translate(236.433 164.37)" fill="#fff"/>
    <path id="cabinda" d="M482.1,371.212l2.56,3.464,3.464-3.163L487.07,368.2h-.9l-4.066,3.012Z" transform="translate(236.99 176.313)" fill="#fff"/>
    <path id="drc" d="M484.9,388.642l15.512-.3,3.163,4.518-.151,3.313,1.2,1.054h7.681l2.259-4.368h3.163l1.355,1.355,4.368-.151,1.2,15.211,7.53.3v1.2l20.031,9.036.9,1.807h4.217l-.452-6.325-7.53-3.615.452-4.819,3.313-7.681,7.53-.3-6.476-21.236.151-9.036L564.42,352.8l.151-2.259-1.506-.753v-4.368l-1.807-.151-1.807-2.41L528.877,341.5l-5.573,5.422-9.187-6.024-3.163,1.958-2.41,19.729-5.874,4.518-1.807,3.916.3,5.874-10.543,8.585-2.861-1.2.452,1.657-3.313,2.711Z" transform="translate(238.407 162.497)" fill="#fff"/>
    <path id="rwanda" d="M534.26,356.8l4.217,3.916-.151,4.217-6.627.151v-4.669l2.56-3.615Z" transform="translate(262.091 170.544)" fill="#fff"/>
    <path id="burundi" d="M531.851,363.151l6.476-.151-1.657,5.572-1.657,1.355h-1.958l-1.356-3.765.151-3.012Z" transform="translate(262.091 173.681)" fill="#fff"/>
    <path id="uganda" d="M533.8,362.225l4.518,4.217,2.862-1.807,7.681-1.2,1.356.151.452-3.012,4.368-9.187-3.615-7.681h-11.9l-.151,3.163,1.657,1.506-.3,3.163L533.8,362.225Z" transform="translate(263.153 163.914)" fill="#fff"/>
    <path id="kenya" d="M546.855,345.372l4.066,7.832-4.82,10.091-.6,3.012,23.946,14.91,7.38-11.747-3.765-3.012L572.91,351.1l4.669-5.121-7.53,2.56h-5.723L555.44,341l-2.862-1.2-5.121.452-.9,1.506.3,3.614Z" transform="translate(269.074 161.94)" fill="#fff"/>
    <path id="tanzania" d="M552.831,404.037l26.356-3.163-5.874-11.446-.3-10.994,1.958-5.271-25-15.663-7.832,1.355-2.711,1.958-.3,4.518-1.807,6.326-1.807,2.259-2.711.3,4.97,17.47,8.283,3.916,5.723.151,1.054,8.283Z" transform="translate(262.647 170.898)" fill="#fff"/>
    <path id="zambia" d="M510.1,412.48l4.819,6.627,7.38.452,2.56,1.506,7.681.151,6.627-9.338,18.675-8.283,1.657-7.38-2.109-10.542L547.6,380.1l-6.476.452-3.313,7.229.151,3.313,7.681,3.765.452,8.133-6.627.3-1.657-2.711-18.223-7.832-.6,6.024-8.585.3-.3,13.4Z" transform="translate(251.16 182.335)" fill="#fff"/>
    <path id="angola" d="M485.465,373.651l5.121,19.127-.151,6.024-7.53,8.133-1.2,13.1,28.916.3,9.338,3.464,7.832-1.054-4.518-5.723V400.91l8.886-.452v-6.326l-7.229-.3-1.506-14.91h-3.012l-1.657-1.506-1.807.151-2.41,4.669h-9.187l-2.108-2.108.6-3.012-2.56-3.615-15.814.151Z" transform="translate(236.787 178.995)" fill="#fff"/>
    <path id="malawi" d="M542.9,402.727l4.669,4.97-.151,6.326.9,2.711,6.175-6.777-.753-8.585-3.313-2.56L547.42,383.75l-5.12-.151,2.259,10.844-1.656,8.283Z" transform="translate(267.455 184.106)" fill="#fff"/>
    <path id="mozambique" d="M538.117,452.062l4.066,3.313,9.488-5.874,1.506-8.585V426.61l15.362-12.5,2.56.151,9.337-8.886L578.931,387l-24.549,3.163.753,5.573,4.217,3.313,1.054,9.94-8.283,8.133-1.958-4.518.3-6.024-4.82-5.121L533.9,406.88l10.844,5.572.3,16.115-7.229,10.693.3,12.8Z" transform="translate(263.204 185.827)" fill="#fff"/>
    <path id="zimbabwe" d="M520.3,413.653l13.555,15.211,10.392,2.711,6.928-10.844-.6-14.458-11.3-5.874-4.217,1.958L528.735,412,520,411.846l.3,1.807Z" transform="translate(256.17 192.608)" fill="#fff"/>
    <path id="namibia" d="M497.363,455.9l5.121.3,3.012,3.012,7.078.151,1.657-20.031v-13.1l4.518-.9,1.657-13.705,11.446-.3,4.066-3.313-6.777-.3-9.338,1.2-9.94-3.615H481.7l.753,7.982,9.338,13.856-1.657,7.079.151,3.765,7.079,17.922Z" transform="translate(236.787 195.088)" fill="#fff"/>
    <path id="botswana" d="M504.1,438.676l3.163,1.054-.452,9.187,3.313.452,7.681-6.928,9.187,1.054,2.41-6.175L541,426.778l-14.006-16.115-.151-2.711-1.506-.452-4.217,3.916-10.994.3-1.506,13.705-4.368,1.054-.151,12.2Z" transform="translate(248.123 196.201)" fill="#fff"/>
    <path id="swaziland" d="M538.222,430.9l-3.765.6-1.657,4.518,2.862,2.711h3.464l3.012-4.217-3.916-3.615Z" transform="translate(262.647 208.043)" fill="#fff"/>
    <path id="lesotho" d="M523.355,443.515l4.669-3.615,2.109.151,2.56,3.313-.3,3.313-4.368,1.657v1.2l-4.819-.3-1.2-3.615,1.356-2.108Z" transform="translate(257.182 212.598)" fill="#fff"/>
    <path id="south_africa" d="M548.576,420.6l-11.9,10.994-2.862,6.777-9.488-1.2-7.832,6.928-5.271-.452.452-9.639-1.807-.6-1.356,19.729-9.187-.151-2.862-3.313H492.4l3.765,10.693,6.627,6.325-4.669,5.572,3.012,6.928,7.079,2.711,5.723-4.819,16.266.151,1.2-1.506,7.229-1.2,24.4-24.248-.151-7.681-2.56,3.313h-3.916l-4.819-3.916,2.41-6.024,4.217-.9-.452-12.35-9.187-2.109Zm-5.723,27.862,2.259-.151,3.615,4.066-.151,4.669-4.367,2.259-.3,1.506h-6.627l-1.807-4.97,1.958-3.615,5.422-3.765Z" transform="translate(242.202 202.83)" fill="#fff"/>
    <path id="greenland" d="M317.409,78.285,315.3,81.6l3.765,3.615-1.657,3.765,5.271,6.928,6.627-2.108,8.585-.753,9.789,10.693,6.627,17.621-5.271,10.994,7.38-1.2,4.066,2.41.452,5.271-9.036.452,4.97,4.97,6.175,1.2-13.555,18.073-1.657,10.994,2.861,9.036-2.108,5.271,3.765,11.446,6.928,7.832,2.109-.452,4.518-1.2.452,6.627,2.862,4.066,5.271-.452,4.066-15.211L390.9,186.27l18.374-7.38,11.446-14.308,5.271,2.41H436.99l9.036-9.036,10.994-4.518,1.2-6.928-6.928-6.175-6.175-2.108-3.313-8.585,7.832-4.518,12.35,6.476,4.066-4.518-6.627-3.615,14.006-18.826-2.41-8.133-6.627-.452,2.41-7.38,8.133-3.765L491.66,70.152l-4.97-5.271-18.826,1.657-9.789,9.789L463.8,63.676l-6.627-1.657L453.406,68.5l-5.271-4.518-14.759,1.657,4.066-6.476,24.1-.753-6.175-8.133L429.158,45.3l-10.693,1.657.452,5.271-10.994-3.765.452-3.765-7.832,1.657-1.657,4.066,8.133,2.862-8.585,6.175-6.175-6.928-8.585-2.41-1.2,6.627h-8.585l-3.313-6.928-13.555-2.108-7.38,3.765-.452,4.97-9.488-1.2-5.723,2.41.452,5.723v2.862l-10.693,2.108-4.97-3.313L315.451,70.3l4.97,5.271,10.241-1.2.753,3.313L323.583,81.3l-6.175-3.012Z" transform="translate(152.578 12.601)" fill="#fff"/>
    <path id="disko" d="M339.918,109.4l2.41,3.615-1.2,4.518h-2.41l-3.313-3.615.753-2.862,3.765-1.657Z" transform="translate(162.75 45.343)" fill="#fff"/>
    <path id="milne" d="M407.26,102.6l6.928,2.108-.452,5.723-7.38-3.615-1.657-2.109,2.56-2.108Z" transform="translate(197.82 41.902)" fill="#fff"/>
    <path id="australia" d="M758.977,468.634l-.452,38.254-5.874,4.368-.452,3.765,7.982,5.422,19.729-3.765H790l3.765-5.422,22.44-4.368,15.964,4.819-1.054,6.476,2.109,6.476,12.349-2.108.452,3.163-7.982,5.874,2.711,2.109,5.874-2.109-1.656,17.771,11.3,8.585,6.476-2.108L865.908,559l18.675-2.711L902.2,527.672l6.476-1.657,12.8-23.645,3.163-20.482-7.982-10.241,3.163-2.108-6.476-19.88-6.928-4.819,1.054-26.959L901,413.061,899.343,398H896.18l-10.693,35.543-5.874.6-13.4-13.4,7.53-19.88-13.856-2.711-15.512,4.367-4.217,12.35-6.928,1.657-.452-8.585-28.314,17.169.452,6.476-4.217,5.874H790L766.96,447.1l-7.982,21.537Z" transform="translate(373.678 191.393)" fill="#fff"/>
    <path id="tasmania" d="M822.211,513.2,819.5,523.893l.452,7.53,7.982-.6,9.036-14.006L822.211,513.2Z" transform="translate(407.736 249.692)" fill="#fff"/>
    <path id="new_zealand_north_island" d="M911.434,498.9l1.657,17.772-2.108,8.133L903,530.678l.452,7.079v7.53L905.56,548,927.4,529.172V524.8h-5.271l-7.53-25.3-3.163-.6Z" transform="translate(449.992 242.455)" fill="#fff"/>
    <path id="new_zealand_south_island" d="M912.475,524.6l4.217,8.133-11.747,11.3L903.89,549.9l-7.982,1.054-13.4,12.35-12.35-5.874-1.054-4.368,22.44-9.639L912.475,524.6Z" transform="translate(432.836 255.461)" fill="#fff"/>
    <path id="new_caledonia" d="M902.352,437.4l-.452,2.711,6.928,9.639,3.765,1.657.452-3.765L902.352,437.4Z" transform="translate(449.435 211.332)" fill="#fff"/>
    <path id="sumatra" d="M718.152,334.5l-.452,3.464,10.241,17.169h3.012l21.386,35.694,8.585.9,4.217-12.5-6.777-4.367-1.2-6.928L718.152,334.5Z" transform="translate(356.219 159.258)" fill="#fff"/>
    <path id="east_malaysia" d="M759.7,360.072l4.518,5.271,17.47-6.024,3.464-13.253,7.831-.6,7.079-5.121-9.187-6.777-2.109-3.765-4.518,8.434,1.657,4.819-2.711,4.066-5.271-1.355L765.272,355.1l.3,5.422-5.874-.452Z" transform="translate(377.473 156.88)" fill="#fff"/>
    <path id="brunei" d="M776.768,336.2l-4.368,5.271,3.614,1.054,1.958-2.862-1.2-3.464Z" transform="translate(383.9 160.119)" fill="#fff"/>
    <path id="sulawesi" d="M785.1,374.907l3.464,4.217-2.259,6.325v1.2h4.97l1.807-15.663,1.657.452,3.012,14.308,2.862.753,2.711-6.175-2.711-9.187-2.259-4.066,6.928-5.121-1.657-2.259L797,364.063H795.19l-3.313-4.819,1.054-2.108,5.422-2.711,8.283,2.56,2.56-.151,6.175-5.874-2.56-2.56-5.723,4.518h-3.765l-5.572-2.711-4.066.151-4.368,7.229-2.862,12.35-1.355,4.97Z" transform="translate(390.327 166.293)" fill="#fff"/>
    <path id="maluku" d="M810.661,347.4l-2.862,6.777,4.518,5.874h1.506l1.958-3.916,1.054-1.355-1.958-2.108-2.861-1.054-1.355-4.217Z" transform="translate(401.815 165.787)" fill="#fff"/>
    <path id="seram" d="M818.132,362.4l-6.024,1.355-1.807,1.958,1.506,2.56,4.066-1.506,2.56-1.506,3.765,3.012,1.656-1.355-3.012-3.615-2.711-.9Z" transform="translate(403.08 173.378)" fill="#fff"/>
    <path id="java" d="M750.117,375.3l-4.217,2.862.9,2.41,13.254,3.012,6.627,1.2,2.861,3.012,7.53.6,3.615,3.012,3.313-.753,3.012-2.711-5.422-2.56-4.669-4.066-12.35-3.012L750.117,375.3Z" transform="translate(370.489 179.906)" fill="#fff"/>
    <path id="bali" d="M778.413,383.9l-3.313,1.807,1.958,2.108,4.669-1.807-3.313-2.108Z" transform="translate(385.267 184.258)" fill="#fff"/>
    <path id="lombok" d="M781,383.051l.6,2.861,3.464.9,1.356-1.657-1.506-2.259-3.916.151Z" transform="translate(388.252 183.752)" fill="#fff"/>
    <path id="sumba" d="M787.817,387.9l-4.217.6,3.765,3.163h3.012l-2.56-3.765Z" transform="translate(389.568 186.282)" fill="#fff"/>
    <path id="flores" d="M787.5,385.1l-.9,1.807,6.627,1.054,5.121-3.012-3.012-.9-4.669,1.355-1.807-1.506-1.356,1.2Z" transform="translate(391.087 184.258)" fill="#fff"/>
    <path id="timor" d="M804.281,385.4l-7.681,6.476.753,1.657,3.313-.6,3.916-3.615,7.53-1.054-1.506-2.56-6.326-.3Z" transform="translate(396.147 185.017)" fill="#fff"/>
    <path id="new_ireland" d="M876.455,365.9l-1.355,1.958,7.229,6.476,1.054,3.765,1.958-.151.3-3.916-2.259-1.958-6.928-6.175Z" transform="translate(435.873 175.149)" fill="#fff"/>
    <path id="new_britain" d="M882.9,372l-1.506.3-.9,3.916-2.711,1.807L869.5,379.53l.3,3.163,8.735-.452,5.573-3.464-.3-6.024-.9-.753Z" transform="translate(433.039 178.236)" fill="#fff"/>
    <path id="bougainville" d="M884.9,376.552l1.807,5.271,3.313,3.163,1.054-.9-.3-3.464-3.765-4.518-2.109.452Z" transform="translate(440.832 180.311)" fill="#fff"/>
    <path id="choiseul" d="M891,381.6l.3,3.464,2.108,1.958,1.958-1.2L893.56,382.2l-2.56-.6Z" transform="translate(443.919 183.094)" fill="#fff"/>
    <path id="new_georgia" d="M893.307,387.2l-1.807,1.958,1.807,3.464,2.259.6-.151-2.259-2.109-3.765Z" transform="translate(444.172 185.928)" fill="#fff"/>
    <path id="santa_isabel" d="M895.6,385.9l1.506,3.765,3.012,3.615,1.657-2.711-2.259-3.765-3.916-.9Z" transform="translate(446.247 185.27)" fill="#fff"/>
    <path id="malaita" d="M900.7,389.7l.9,4.669,2.109,2.861,1.807-3.615L900.7,389.7Z" transform="translate(448.828 187.193)" fill="#fff"/>
    <path id="santa_ana" d="M902.553,396.6l-.753,1.355,2.56,3.313,1.807.151-1.054-4.368-2.56-.452Z" transform="translate(449.385 190.685)" fill="#fff"/>
    <path id="rennell" d="M899.511,401l-2.711,1.2,2.259,3.163,1.958-1.054L899.511,401Z" transform="translate(446.854 192.912)" fill="#fff"/>
    <path id="espiritu_santo" d="M917.007,414.2l-1.807,2.56.753,2.862.9.6,1.657-2.259-1.506-3.765Z" transform="translate(456.166 199.592)" fill="#fff"/>
    <path id="malakula" d="M917,419.3l.151,2.108,1.958.6,1.356-.753L919.108,419l-2.108.3Z" transform="translate(457.077 202.021)" fill="#fff"/>
    <path id="efate" d="M919.3,431.3l-.9,1.355,1.355,1.506,2.259-.753L919.3,431.3Z" transform="translate(457.786 208.245)" fill="#fff"/>
    <path id="palawan" d="M788.038,314.5l-1.356,2.41-.753,3.012-7.229,9.187.452,1.958,3.012-.452,9.338-10.392-3.464-5.723Z" transform="translate(387.088 149.137)" fill="#fff"/>
    <path id="negros" d="M792.75,312.2l-.151,7.53,2.711,2.711,1.054,5.422,2.711.6,1.355-3.313-2.108-1.657-.6-9.488-4.97-1.807Z" transform="translate(394.123 147.973)" fill="#fff"/>
    <path id="cebu" d="M797.85,314.1l-.15,6.627,1.506,2.56,2.711-3.163-.753-5.874-3.313-.151Z" transform="translate(396.703 148.935)" fill="#fff"/>
    <path id="samar" d="M799,310.5l2.711,3.615,1.355,3.464h2.41l-.452-6.024-2.711-1.958-3.313.9Z" transform="translate(397.361 146.657)" fill="#fff"/>
    <path id="path7462" d="M806.9,319.3l.6,4.368-4.97,4.066-4.217.452-4.518,4.819.151,2.259,4.217-1.355,2.862-1.958,2.41,6.175,4.368,3.012,1.807-.6,1.657-1.958-3.464-3.464,1.958-1.657,2.259,1.958,1.506-2.56-1.506-3.163-.3-7.078L806.9,319.3Z" transform="translate(394.73 151.566)" fill="#fff"/>
    <path id="luzon" d="M788.367,289.9l-3.916,2.711L784,301.346l6.024,11.747,1.958,1.657,2.56-1.807,4.518.753.9,3.916,3.313.3,1.506-2.109-1.958-2.711-2.41-2.259-5.121-.6-2.711-4.518,3.163-4.819.3-4.217-2.109-5.422-5.572-1.355Z" transform="translate(389.771 136.688)" fill="#fff"/>
    <path id="mindoro" d="M788.3,307.1l1.2,4.066,1.958,1.355,1.506-1.958L790.71,307.4l-2.41-.3Z" transform="translate(391.947 145.392)" fill="#fff"/>
    <path id="hainan" d="M757.475,287.1l-3.615,1.054-2.56,3.163,2.109,4.217,3.163.3,3.615-3.163.9-4.217-3.615-1.356Z" transform="translate(373.222 135.271)" fill="#fff"/>
    <path id="taiwan" d="M784.872,265.2l-5.271,4.066-.3,7.832,4.669,5.422,1.2-1.054-.3-16.266Z" transform="translate(387.392 124.188)" fill="#fff"/>
    <path id="kyushu" d="M799.61,233.4l-2.41,2.41,1.054,3.464,2.109.151,1.506,7.53,1.807,1.958,3.012-2.711,1.355-4.97-3.765-5.422-4.669-2.41Z" transform="translate(396.45 108.095)" fill="#fff"/>
    <path id="shikoku" d="M809.068,230.1l-4.217,3.916-.15,4.518,1.054,1.355,5.573-4.819-.452-4.819-1.807-.151Z" transform="translate(400.246 106.425)" fill="#fff"/>
    <path id="honshu" d="M806.18,235.793l-7.38,8.434,1.356,2.108,3.615.452,6.777-5.271,4.819-.9,4.368,5.121,3.313-1.2,1.355-4.97,6.175-.151,6.024-7.229-3.163-12.049-1.506-6.325,3.163-2.56L827.867,200.4l-1.807.151-3.916,4.368v3.615l1.807,2.108.6,9.639-4.518,5.572-2.56-1.657-1.958,4.518-.452,4.217,1.506,2.41-1.054,1.958-3.313-2.711h-2.259l-1.958,1.2Z" transform="translate(397.26 91.395)" fill="#fff"/>
    <path id="hokkaido" d="M813.265,180.4l-2.259,2.108,1.2,4.368,1.958,2.108-.151,6.627-2.56,1.054-1.958,4.518,5.874,8.133,3.916-1.355.753-2.109-4.217-3.765,2.56-3.313,2.711.452,2.109,2.259.151-4.819,5.874-4.819,3.313-.9-2.711-4.669-1.356-2.108-2.108,1.506-1.807,2.259-4.066-.9-4.217-2.711-3.012-3.916Z" transform="translate(402.675 81.274)" fill="#fff"/>
    <path id="iturup" d="M827.766,177.4l-4.066,5.723.3,2.711,1.958-.9,4.819-5.874-3.012-1.657Z" transform="translate(409.861 79.756)" fill="#fff"/>
    <path id="urup" d="M830.406,172.457l-1.506,3.916.15,2.56,2.41-1.657,2.259-4.669V170.8l-3.313,1.657Z" transform="translate(412.493 76.416)" fill="#fff"/>
    <path id="paramushir" d="M836.207,149l-1.807,2.259.151,3.615,1.807-.151,2.862-5.121-3.012-.6Z" transform="translate(415.276 65.383)" fill="#fff"/>
    <path id="onekotan" d="M833.3,154.851v6.325l1.958.753,1.506-2.259V154.7l-3.464.151Z" transform="translate(414.719 68.268)" fill="#fff"/>
    <path id="sakhalin" d="M794.25,139.5l-.151,9.338,11.6,17.922,4.217,15.663,7.38,14.006,2.862,1.054,2.41-2.108,1.2-3.313-10.543-11.446.3-5.874,2.259-1.054.6-3.464-20.633-29.218L794.25,139.5Z" transform="translate(394.882 60.576)" fill="#fff"/>
    <path id="bering_island" d="M849.062,120.4l-2.862.3,1.807,2.41,3.615,2.41,1.054-1.2-3.614-3.916Z" transform="translate(421.248 50.91)" fill="#fff"/>
    <path id="medny" d="M851.8,121.5l.452,2.41,4.518,1.355.452-1.807L851.8,121.5Z" transform="translate(424.082 51.467)" fill="#fff"/>
    <path id="attu" d="M868.1,127.8l1.958,3.313,3.163-.151.6-2.259-5.723-.9Z" transform="translate(432.331 54.655)" fill="#fff"/>
    <path id="amchitka" d="M889.1,131.5l2.56,4.669,1.958-2.108V130.9l-4.518.6Z" transform="translate(442.958 56.224)" fill="#fff"/>
    <path id="adak" d="M904.514,121.5l-3.614,4.669.9,2.108,4.368-2.711.452-2.711-2.109-1.355Z" transform="translate(448.929 51.467)" fill="#fff"/>
    <path id="umnak" d="M916.263,111.9l-3.163,3.765,3.313,1.2-.151-4.97Z" transform="translate(455.103 46.608)" fill="#fff"/>
    <path id="st._lawrence_island" d="M878.318,55.3,874.7,57.559l-.9,3.012,1.657,1.958,3.765-1.2,3.765,1.2,2.108.6-.151-6.928-6.627-.9Z" transform="translate(435.215 17.965)" fill="#fff"/>
    <path id="st._lawrence_island_west" d="M64.7,70.3l5.271,9.789,3.313-.753V75.872L64.7,70.3Z" transform="translate(25.759 25.556)" fill="#fff"/>
    <path id="unalaska_west" d="M45.3,127.2l-.3,4.518,3.313-.753v-1.958L45.3,127.2Z" transform="translate(15.789 54.351)" fill="#fff"/>
    <path id="umnak_west" d="M44.076,128.5,37.6,131.813l1.054,3.464,2.56-1.958,4.97-2.259-2.108-2.56Z" transform="translate(12.044 55.009)" fill="#fff"/>
    <path id="another_aleutian_west" d="M25.671,131.754,21.153,130.7l-.753,1.958.452,3.765,4.819-4.669Z" transform="translate(3.34 56.123)" fill="#fff"/>
    <path id="adak_west" d="M19.523,131.807,15.306,130,13.8,132.711l2.711,2.711,3.012-3.615Z" transform="translate(0 55.768)" fill="#fff"/>
    <path id="kerguelen" d="M618.4,516.6l-.3,6.476,8.886,2.109,2.109-5.271-3.163.9-4.066.9-1.2-4.819-2.259-.3Z" transform="translate(305.814 251.413)" fill="#fff"/>
    <path id="mauritius" d="M609.359,415.9l-2.259,3.012.452,3.163,4.819-3.916-3.012-2.259Z" transform="translate(300.248 200.452)" fill="#fff"/>
    <path id="reunion" d="M604.165,419.3l-3.464.151-.3,3.012,2.259.452,3.464-1.657-1.958-1.958Z" transform="translate(296.857 202.173)" fill="#fff"/>
    <path id="madagascar" d="M597.112,390.052l-3.163,7.681-5.572,9.639-9.639.753-4.066,4.819.753,14.759-6.024,6.928.753,11.747,4.97,5.723,6.024-.753,6.024-4.368-1.356-6.928,13.705-23.8-2.711-3.012,2.711-5.723,3.012.9.9-2.259-2.711-11.747-1.657-4.819-1.958.452Z" transform="translate(281.169 187.142)" fill="#fff"/>
    <path id="grande_comore" d="M573.2,388.3l.753,2.259,3.012.452,1.2-3.012-4.97.3Z" transform="translate(283.092 186.333)" fill="#fff"/>
    <path id="mayotte" d="M576.1,391.4l1.2,2.56h1.807l.9-3.163-3.916.6Z" transform="translate(284.56 187.75)" fill="#fff"/>
    <path id="aldabra" d="M598.2,375.3l-.9,1.807,2.56,2.108,1.807-2.108L598.2,375.3Z" transform="translate(295.288 179.906)" fill="#fff"/>
    <path id="praslin" d="M607.311,366.1l-2.711,1.807,2.109,3.163h2.711l-2.108-4.97Z" transform="translate(298.983 175.25)" fill="#fff"/>
    <path id="mahe" d="M607.807,371.4,606,373.508l1.355,2.108,2.56.452.3-4.368-2.41-.3Z" transform="translate(299.691 177.932)" fill="#fff"/>
    <path id="male" d="M651.9,337.7l.452,3.916,2.56.9.452-3.464L651.9,337.7Z" transform="translate(322.919 160.878)" fill="#fff"/>
    <path id="maldive" d="M654.2,343.2l-.3,4.819,1.807.9,1.657-3.163L654.2,343.2Z" transform="translate(323.931 163.661)" fill="#fff"/>
    <path id="gan" d="M654.957,349.5l-1.657,1.657,1.807,1.657,2.259-1.657-2.41-1.657Z" transform="translate(323.628 166.849)" fill="#fff"/>
    <path id="path151" d="M368.908,234l-2.109,2.108,3.615,2.109.452-2.861L368.908,234Z" transform="translate(178.641 108.399)" fill="#fff"/>
    <path id="terceira" d="M376.31,233.1l-2.41,1.657,2.108,1.657,3.313-.9-3.012-2.41Z" transform="translate(182.234 107.943)" fill="#fff"/>
    <path id="pico" d="M377,237l-1.2,3.313,1.657,2.108,2.108-1.657L377,237Z" transform="translate(183.195 109.917)" fill="#fff"/>
    <path id="sao_miguel" d="M383.353,241.3l-.753,2.108,1.2,1.2,3.313-2.108-3.765-1.2Z" transform="translate(186.636 112.093)" fill="#fff"/>
    <path id="madeira" d="M404.257,253.4l-1.657,2.108,1.657,2.108,2.41-1.2-2.41-3.012Z" transform="translate(196.758 118.217)" fill="#fff"/>
    <path id="lanzarote" d="M412.111,270.7l-2.711,1.506,1.2,1.2,1.506-2.711Z" transform="translate(200.199 126.971)" fill="#fff"/>
    <path id="gran_canaria" d="M406.213,270.9l-3.313.9,1.657,2.41h2.41l-.753-3.313Z" transform="translate(196.909 127.073)" fill="#fff"/>
    <path id="tenerife" d="M400.608,269.2l-2.108,2.108,2.862,2.41,1.657-3.765-2.41-.753Z" transform="translate(194.683 126.212)" fill="#fff"/>
    <path id="santo_antao" d="M384.062,307.5l-2.861,1.657,2.108,1.657,2.41-1.2-1.657-2.109Z" transform="translate(185.928 145.595)" fill="#fff"/>
    <path id="boa_vista" d="M388.407,309.7l-1.807,1.657,1.355,2.41,3.163-1.506-2.711-2.56Z" transform="translate(188.661 146.708)" fill="#fff"/>
    <path id="santiago" d="M385.91,312.8l-2.41,1.506,2.56,3.464,2.109-1.054L385.91,312.8Z" transform="translate(187.092 148.277)" fill="#fff"/>
    <path id="guadeloupe" d="M272.859,300.3l-2.259.9.753,1.958,2.711-1.657-.6-.6-.6-.6Z" transform="translate(129.957 141.951)" fill="#fff"/>
    <path id="dominica" d="M275.055,301.8l-1.355,2.861,1.657,2.108,1.958-1.657-2.259-3.313Z" transform="translate(131.526 142.71)" fill="#fff"/>
    <path id="martinique" d="M278.157,307l-1.657,1.506,1.2,2.41,2.259-.6L278.157,307Z" transform="translate(132.943 145.342)" fill="#fff"/>
    <path id="st._lucia" d="M277.854,311l-1.054,2.259,1.657,1.807,2.259-1.2L277.854,311Z" transform="translate(133.095 147.366)" fill="#fff"/>
    <path id="st._vincent" d="M278.207,314.8l-1.807,1.355,1.506,2.711,2.41-1.355-2.108-2.711Z" transform="translate(132.892 149.289)" fill="#fff"/>
    <path id="grenada" d="M276.657,318.2,275,319.857l.6,1.054h2.108l.6-1.807-1.657-.9Z" transform="translate(132.184 151.01)" fill="#fff"/>
    <path id="trinidad" d="M278.913,321.7l-1.657,1.506-1.657.3v2.108l3.163,3.012,1.355-2.109.753-2.41-.3-1.958-1.657-.452Z" transform="translate(132.488 152.781)" fill="#fff"/>
    <path id="puerto_rico" d="M268.978,298.455l-3.916-1.355-3.163,1.958,1.657,1.807,5.422.753v-3.163Z" transform="translate(125.554 140.332)" fill="#fff"/>
    <path id="haiti-dominican_border" d="M248.272,292.3l-2.56,2.56,2.862,1.2.452,3.614-6.326.6.6,3.464,1.807.151,1.054-1.657,7.38.3,1.355,2.56,1.657-1.958,4.97-1.355,4.368.9.452-2.711-7.982-5.271-5.121-1.958-4.97-.452Z" transform="translate(115.838 137.902)" fill="#fff"/>
    <path id="domincan_republic" d="M262.952,299.627l-7.982-5.271L251.2,293l-1.2,9.036,1.355,2.56,1.657-1.958,5.121-1.355,4.368.9.452-2.56Z" transform="translate(119.532 138.257)" fill="#fff"/>
    <path id="haiti" d="M248.222,292.3l5.121.6-.6,6.326-.452,3.313-6.024-.3L245.21,303.9l-1.807-.151-.6-3.464,6.325-.6-.452-3.614-2.862-1.2,2.41-2.56Z" transform="translate(115.889 137.902)" fill="#fff"/>
    <path id="falklands_west" d="M306.131,525.252l-3.916-.452-3.916,2.711,2.861,3.163,4.97-5.422Z" transform="translate(143.975 255.562)" fill="#fff"/>
    <path id="falklands_east" d="M307.821,523.8l-1.355,4.217L302.7,531.33l.151,1.054,6.325-2.41,2.711-3.313-4.066-2.861Z" transform="translate(146.202 255.056)" fill="#fff"/>
    <path id="iceland" d="M405.392,134.757,402.38,133.1l-3.916,2.56L395,138.823l.151,1.807,4.368.6-.3,3.163-1.506,1.657.452,1.054,4.368.3v5.121l6.326,1.054,3.765,2.108,4.217.151,7.229-3.615,5.572-7.38.151-4.97-3.464-2.862-2.862-2.41-1.355.9-1.958,2.56-2.259-.3-2.259-2.41-2.862.3-4.217,3.464-2.56,2.711-1.355-1.2-.151-3.012,1.355-.9-.452-1.958Z" transform="translate(192.912 57.337)" fill="#fff"/>
    <path id="spitsbergen" d="M490.429,71.76l-2.41-2.56-5.572,2.711H472.357L470.7,77.785l5.723,4.97,2.41-.3,3.614-6.024,3.012,2.108-2.108,4.217L482.3,89.08,484.706,93l5.271-8.886,6.928-8.434-2.711-2.259-3.765-1.657Z" transform="translate(231.221 25)" fill="#fff"/>
    <path id="nordaustlandet" d="M487.318,63.9,482.8,67.968l2.711,4.066h4.819l1.958,2.711,5.874,3.012,6.777-3.916,4.669-3.916-1.657-3.163-4.669-2.711-3.313,3.012L497.71,64.2l-1.807.151-2.259,4.97-3.313-3.464-.3-2.259-2.711.3Z" transform="translate(237.344 22.166)" fill="#fff"/>
    <path id="edgeoya" d="M494.727,76l-3.615,3.163L488.1,81.422l1.355,2.56,2.862.9,4.669-2.108,2.108-2.711L497.136,76.9l-2.41-.9Z" transform="translate(240.026 28.441)" fill="#fff"/>
    <path id="prince_george" d="M546.639,55.7l2.56,1.054-1.807,3.163v4.518l-3.916,2.41H539.41L537,63.983l.3-3.163,1.807-2.41h3.615l3.916-2.711Z" transform="translate(264.773 18.168)" fill="#fff"/>
    <path id="salisbury" d="M549.9,54.255v3.163l2.56,2.108,3.615-.3,3.163-2.862V54.255h-2.862l-2.41.753L552.159,52.9,549.9,54.255Z" transform="translate(271.301 16.751)" fill="#fff"/>
    <path id="wilczek" d="M559.7,54.4l1.807,3.916,3.614.3,2.56-1.054-1.356-3.615-3.313-.753L559.7,54.4Z" transform="translate(276.26 16.903)" fill="#fff"/>
    <path id="bell" d="M571.322,50.652,568.46,50.2l-2.56,2.56,1.356,2.41.753,3.615,3.313-2.56.753-2.862-.753-2.711Z" transform="translate(279.398 15.384)" fill="#fff"/>
    <path id="novaya_zemlya_north" d="M590.627,68.9l-.753,3.615-6.024,5.271L571.2,80.647,560.807,97.816,559,102.786l10.392,2.56,1.506-6.325,3.163-9.639,7.982-4.217,6.777-5.271,4.97-2.108h2.56V70.707L590.627,68.9Z" transform="translate(275.906 24.848)" fill="#fff"/>
    <path id="novaya_zemlya_south" d="M559.267,94.2l7.079.753,2.259,8.133,6.024,6.325-2.109,4.217h-3.615l-3.313-3.916-7.53-.3-3.163-4.217v-2.862l4.669-1.355-.3-6.777Z" transform="translate(273.831 37.651)" fill="#fff"/>
    <path id="komsomolets" d="M635.813,35.808,632.5,33.7h-3.916l-.753,2.41-4.217,2.41-3.163,1.054L620,42.736l7.229.6,8.584-7.53Z" transform="translate(306.776 7.034)" fill="#fff"/>
    <path id="october" d="M640.051,35.6l-1.807,3.916-3.615-.3-5.723,4.217L627.4,48.7h3.615l2.109-3.464,4.97,3.615,4.669-2.108,3.313-2.862-1.356-4.518L642.912,36.2l-2.862-.6Z" transform="translate(310.521 7.996)" fill="#fff"/>
    <path id="bolshevik" d="M640.8,37.5l1.807,7.38,2.862,6.777,3.163-5.422,6.024-1.355V40.964L650.74,38.1l-9.94-.6Z" transform="translate(317.302 8.957)" fill="#fff"/>
    <path id="kotelny" d="M742.486,31.927l4.066,3.464,2.862-1.2.9-4.819L744.444,25.3l-3.916,2.56-9.488.9v4.217l-9.94.151v6.928l11.6,8.735,3.012-2.259-.6-6.175,7.38-1.807-1.506-2.862-2.711-2.711,4.217-1.054Z" transform="translate(357.939 2.783)" fill="#fff"/>
    <path id="novaya_sibir" d="M742.5,28.417l2.711,5.121,10.542-1.2,2.862-3.765-.753-3.163L755,24.2l-2.711,2.108-7.831,1.657-1.958.452Z" transform="translate(368.769 2.227)" fill="#fff"/>
    <path id="lyakhovsky" d="M745.239,40.655,739.968,39.3l-3.012,3.163L735.6,46.83l7.079-.753,5.422-2.711-2.861-2.711Z" transform="translate(365.277 9.868)" fill="#fff"/>
    <path id="wrangel" d="M836.249,21.155,831.881,19.8l-5.121,1.807-2.56,3.765,3.163,4.217,8.434-3.765,1.657-1.807-1.2-2.862Z" transform="translate(410.114 0)" fill="#fff"/>
    <path id="sri_lanka" d="M676.555,325.354l.452,4.066.452,3.012-2.259.452,1.054,6.777,3.313,1.807,5.121-3.012-1.506-7.079.452-2.56-4.819-4.518-2.259,1.054Z" transform="translate(334.711 154.097)" fill="#fff"/>
    <path id="cuba" d="M216.4,285.064v1.958l7.982.151,3.765-2.259.6,1.657,7.831,1.958,6.928,6.325-1.657,2.259.3,2.56,5.874,1.506,5.874-2.711,2.56-2.711L252.7,293.8l-19.428-11.446-6.777-.753L216.4,285.064Z" transform="translate(102.529 132.488)" fill="#fff"/>
    <path id="bimini" d="M235.908,276.3l-1.958-.6-.151,3.615,2.41,2.41,1.657-2.41-1.958-3.012Z" transform="translate(111.334 129.502)" fill="#fff"/>
    <path id="andros" d="M238.56,279.9,236,281.406l2.41,3.464,1.355-1.807-1.2-3.163Z" transform="translate(112.447 131.627)" fill="#fff"/>
    <path id="inagua" d="M244.211,281.651,241.5,281.5l.3,1.807,2.108,3.012,1.807-1.958-1.506-2.711Z" transform="translate(115.231 132.437)" fill="#fff"/>
    <path id="eleuthera" d="M244.222,281.729l-4.518-1.958-.9-4.518,1.807-.753,1.807,3.464,1.807,1.355v2.41Z" transform="translate(113.864 128.895)" fill="#fff"/>
    <path id="grand_bahama" d="M241.271,275.124l-2.41-.6-.452-2.861-2.41-.9,1.657-1.657,2.862,1.054,2.108,1.356-1.355,3.615Z" transform="translate(112.447 126.162)" fill="#fff"/>
    <path id="jamaica" d="M236.271,296.5,231,297.855v1.506l3.012,1.807h3.163l2.108-2.41-3.012-2.259Z" transform="translate(109.917 140.028)" fill="#fff"/>
    <path id="irian_jaya" d="M830.992,356.3l-6.325.753-4.066,3.012,1.656,3.313,6.777,1.2v1.2l-4.368,3.464,2.109,7.38,2.109.151,1.807-7.229H834l1.356,7.079,16.266,13.555.452,10.542,5.572,6.024,2.56-.151.6-37.2-9.488-6.627-8.886,6.024-3.163,1.958L834,367.445l-.15-10.693-2.862-.452Z" transform="translate(408.292 170.291)" fill="#fff"/>
    <path id="alaska-westcopy" d="M107.93,71.162,95.279,74.174l2.56,14.308,13.705,3.765.753,3.012-20.482,6.325-11.6,19.127,4.066,20.181,6.627,4.518,5.271-4.819,1.506,3.012-6.325,7.53-24.549,11.3-15.663,3.765-.452,5.572,35.995-10.542,14.91-4.066,13.705-16.868L130.521,130.2l-7.832,13.1,8.585,1.2,14.458-6.325,2.56,10.542,10.091,2.259,10.392,10.091.753,7.53-1.506,1.807,1.807,7.078h2.56l.452-12.049h3.012l.753,29.519,7.38-6.325-5.271-30.724h-7.832L162.3,147.068l42.019-71.237L162.751,43.3l-46.387,9.036-1.807,14.308,10.091,6.024-3.464,9.338L107.93,71.162Z" transform="translate(18.674 11.893)" fill="#fff"/>
    <path id="galapagos" d="M191.36,355.1l-.9,4.217-1.657,1.807,1.2,2.108,3.012-1.2,1.506-2.56-.9-2.711L191.36,355.1Z" transform="translate(88.561 169.683)" fill="#fff"/>
    <path id="banks" d="M203.247,53.1l.3,6.024L191.5,71.628l3.012,10.091,8.735-2.41,4.97-7.38,12.651-4.669,10.392-.753-7.982-8.735-4.066,3.012L216.2,59.73l-1.657-3.765L210.928,52.2l-7.681.9Z" transform="translate(89.928 16.396)" fill="#fff"/>
    <path id="prince_patrick" d="M210.611,42.518,207.9,47.187l12.952,4.669,4.669-7.078,1.958,4.669h3.313l6.325-7.079-7.681-1.958L226.425,38l-4.066,4.066-11.747.452Z" transform="translate(98.227 9.21)" fill="#fff"/>
    <path id="eglinton" d="M228.292,47.2,217.9,51.568v3.313l13.4,4.97-3.012,3.313,1.958,4.368,8.283-3.765h7.079l3.313,5.422,5.723-5.723-1.355-5.422L248.624,59.7l-.6-6.777,2.41-4.066h-2.41l-3.615,2.41-1.657,1.355,1.054,4.669-2.711,1.958-4.066-.3-1.054-6.024L228.292,47.2Z" transform="translate(103.288 13.866)" fill="#fff"/>
    <path id="mackenzie_king" d="M234.254,40.3,233.2,43.613l6.325,3.012,4.669-2.711-.3-1.958L234.254,40.3Z" transform="translate(111.03 10.374)" fill="#fff"/>
    <path id="king_christian" d="M238.769,36.5,234.1,38.157l.3,2.41,10.392-.753-.3-2.41-5.723-.9Z" transform="translate(111.486 8.451)" fill="#fff"/>
    <path id="ellef_ringnes" d="M252.759,40.4l-.6,2.41-1.657,2.41v3.313l6.325-1.054,6.627,5.723h2.259V47.48l-6.627-7.38-6.326.3Z" transform="translate(119.785 10.273)" fill="#fff"/>
    <path id="amund_ringnes" d="M263.4,45l2.711,3.012-2.259,4.066,1.657,4.368,7.38-4.066V49.37l-4.368-4.97L263.4,45Z" transform="translate(126.314 12.449)" fill="#fff"/>
    <path id="axel_heiberg" d="M269.8,42.282l.3,5.422h9.036l2.259,1.958-.3,2.41-7.982,1.054,5.723,7.681,7.681,1.355,10.693-4.669L281.849,34.3l-4.669,3.012.3,4.066-5.271-1.958-2.41,2.862Z" transform="translate(129.552 7.338)" fill="#fff"/>
    <path id="victoria" d="M225.286,64.9l-12.651,3.313-7.38,6.476.6,7.078,13.4,4.066-3.012,6.777-9.639-6.024L203.9,91.708l6.325,4.368-.3,7.079,9.639,2.711,11.747-.6,1.958-3.765L242,111.287l6.024-1.958,1.054-6.777,4.368,3.012.6-6.777-5.422-3.313.3-21.235-4.669-3.765-4.97,6.777L225.286,64.9Z" transform="translate(96.203 22.823)" fill="#fff"/>
    <path id="prince_of_wales" d="M247.477,76.623l-4.368-1.958-2.41,3.012,4.669,7.38.3,7.078,9.94-6.024V77.376l3.615-3.765L255.61,70.9h-6.024l-2.109,5.723Z" transform="translate(114.826 25.86)" fill="#fff"/>
    <path id="prescott" d="M261.778,72.7,254.7,78.423l1.657,7.078h4.368l1.958-3.765,3.012,3.012,3.012-.3,7.982-6.777-14.91-4.97Z" transform="translate(121.911 26.771)" fill="#fff"/>
    <path id="cornwallis" d="M259.457,65.3,257.8,68.613l7.38,2.711,1.958-3.012L259.457,65.3Z" transform="translate(123.48 23.026)" fill="#fff"/>
    <path id="bathurst" d="M259.947,56.8l-7.38,1.054L248.2,61.921l7.982.3-2.259,6.024,1.657,2.711,2.259-.3,5.723-9.036L259.947,56.8Z" transform="translate(118.621 18.724)" fill="#fff"/>
    <path id="devon" d="M265.866,55.3,261.8,56.655l.6,5.422,6.627,4.368.3,3.313-1.958,1.958,1.054,6.777,25.754,8.434,7.079,2.41,7.078-6.024-8.283-6.777-7.681,1.958L281.68,77.439l-4.066-4.066-1.054-11.145-6.627-3.313L265.866,55.3Z" transform="translate(125.504 17.965)" fill="#fff"/>
    <path id="baffin" d="M285.384,78.7,278,78.1l-8.735,3.313L264.6,87.739l1.355,17.47,14.308.6,13.705,6.777,9.639,11.145,7.38-.3-1.958,10.392L302.4,144.969l-7.38,3.313-5.271-1.054-2.711-2.41-4.066,5.422,1.657,5.422,5.723.3,7.078-3.313,6.024,15.512,15.061,9.789,10.392-13.1-8.735-14.157,4.97-5.723,7.079,11.747,12.651-11.145-2.259-4.97-8.735,2.711L327.855,126.9l5.723-9.488-11.3-12.049-6.326,4.368-6.024-13.1-12.651,1.657-3.464-15.814-10.392,7.079-1.054,8.735h-5.723l.6-7.681,8.133-11.9Z" transform="translate(126.921 29.504)" fill="#fff"/>
    <path id="bylot" d="M289.311,82.5,286.6,85.211l2.259,3.765,10.994,1.355-7.079-7.38-3.464-.452Z" transform="translate(138.054 31.73)" fill="#fff"/>
    <path id="ellesmere" d="M283.78,69.142v3.012l-7.38,1.657,1.958,3.313,8.283,3.313,9.338,1.054,6.627,4.669,6.627-3.765-4.669-4.669h6.024L314.2,73.66l9.036-1.355V70.347l-4.97-3.313.6-3.765,14.006,2.41,20.784-8.133-7.681-2.41,1.958-2.711H363.9l2.711-2.711L334.534,38.569l-7.681-2.711-8.283,6.024L309.232,34.2l-4.97-.3-1.054,6.476-6.326-5.723-7.38,2.41,1.355,3.765,10.994,2.41-.6,5.422,6.024,3.765,14.759-3.765.3,4.97-12.048,5.723-7.38-5.723-6.627.753,6.627,9.488-3.313,1.657-4.97-4.368-3.615,2.41,3.313,6.325h5.723l-1.355,6.024-4.669-.753L288,68.69l-4.217.452Z" transform="translate(132.892 7.136)" fill="#fff"/>
    <path id="southhampton" d="M263.877,118.8l-6.325,7.982-.452,8.886,5.572-3.163h6.777l4.819,4.368,4.368-3.615L263.877,118.8Z" transform="translate(123.125 50.1)" fill="#fff"/>
    <path id="newfoundland" d="M318.464,188,302.5,203.211l1.657,3.615,19.428,7.229,2.862-4.819-1.657-7.982-6.325.753-3.615-4.066,6.024-6.024L318.464,188Z" transform="translate(146.101 85.12)" fill="#fff"/>
    <path id="canada" d="M167.363,65.6l3.012,4.518,1.506,6.024,7.53,1.958,5.271-5.723,4.518,2.259,12.8,1.2,9.036-3.765,1.506,12.5h5.271V79.305l5.271.452,13.1,15.512,8.585,5.271-4.518,7.229,1.958,1.958,16.868,3.464.452,7.53,4.518.753,1.2-11.3,7.079-1.958,5.271,7.982,11.3,5.271,5.572,1.2,3.765-4.518.452-7.229,6.777-4.217,2.259,6.024L301.7,123.282l.753,5.271,3.313-5.271,6.777-6.024.452-7.982-3.765-6.024,1.2-4.97,9.036-4.518,4.066,3.012.753,26.507,6.325-5.723,3.765,2.259-5.271,9.036,6.777,1.506L345.68,115.3l8.283,8.735-3.313,15.512-8.283,4.518-7.832-3.765-14.308,3.012,1.506,4.97-3.765,6.024-11.6,2.711-13.1,10.241-11.6,15.512-1.506,4.97L288,190.754l3.012,7.53,10.844,10.994,17.32,7.53-3.765,17.32-.452,4.97,4.518,3.012,6.024-7.982.753-15.061,9.338-.452,4.518-8.735.753-13.253,12.048-23.495L367.97,178.4,375.8,189.4l-3.313,10.994,6.024,3.464,14.609-9.789,4.066,26.808,13.555,16.266.452,8.283-15.061,3.765-7.079,7.53-15.061-3.464-7.53-.452-13.1,10.241,7.832-1.958,9.789-1.958,1.958,2.259-2.56,8.283.452,7.53,4.518,3.012,4.518-1.2,2.259-3.464h3.012l-4.819,9.036-9.338.452-4.066,6.024h-5.271l-1.506-4.518,7.53-7.53-9.036,3.012-.452-12.8-2.56-1.506-7.832,3.464-.753,6.476H328.963L313.6,288.2l-20.633,6.777-2.259-3.012L301.1,276.449l-5.874-5.723-3.765-7.229-7.681-5.874-8.133-.6L260.889,246.78,154.41,229.309,152.6,222.08l-9.789-9.036v-7.53l1.506-6.777-.753-3.765-3.765-3.765-.753-6.024,9.789-6.777-6.024-32.531-8.283-.452L127,135.632,167.363,65.6Z" transform="translate(57.286 23.178)" fill="#fff"/>
    <path id="usa" d="M154.118,175.3l-1.506,6.024-5.271-3.464h-2.56l-1.506,6.476L124.9,225.6l4.819,35.844,6.024,3.012,1.2,9.789H149.3l12.048,9.036,23.645,2.259,2.56,12.048,3.765,2.711,5.271-5.271,4.066,1.958,3.765,17.32,6.325,4.217,5.271-9.789,16.115-11.747,10.542,4.97,9.036.753.452-5.723,18.675.452,3.765,4.217.753,9.488-2.259,5.271,2.56,9.036h5.572l5.572-8.735-2.259-4.217-2.259-9.036,3.313-10.241,15.362-13.253,11.6-3.464-1.506-10.994,16.115-17.47,16.115-2.711-2.56-9.036,15.814-9.036V215.211l-1.506-.753-5.572,1.958-.753,7.38-18.675.151-14.609,9.789-23.043,7.53-3.615-4.518,10.392-15.814-5.121-4.97-3.464-6.627-7.229-5.874-7.982-.6-14.91-10.241L154.118,175.3Z" transform="translate(56.224 78.693)" fill="#fff"/>
    <path id="haida_gwaii" d="M130.26,145.3l-2.56,4.97.9,3.464,1.657,1.054-.452,1.355L128,156.6l.452,5.121,1.958,1.958,1.506-1.657-1.958-4.97,1.2-4.066,2.862-3.765-2.108-3.464-1.657-.452Z" transform="translate(57.641 63.511)" fill="#fff"/>
    <path id="vancouver" d="M135.759,164.9l-2.259.9,4.217,4.97,1.054,5.874,4.217,4.518,3.615-.6v-5.874l-4.368-2.711-6.476-7.079Z" transform="translate(60.576 73.43)" fill="#fff"/>
    <path id="guatemala" d="M190.4,313.561l8.886,6.476,9.036-11.145-1.506-2.259-3.012-.151v-6.627l-2.259-1.355-6.928,2.109,2.711,6.175-6.928,6.777Z" transform="translate(89.371 141.04)" fill="#fff"/>
    <path id="honduras" d="M204.669,305.9l13.856-.6,4.066,4.97-2.56-.6-4.97.151-6.476,6.024-2.711,6.175-1.807-.9v-6.777L200,311.625l4.669-5.723Z" transform="translate(94.229 144.481)" fill="#fff"/>
    <path id="el_salvador" d="M197.2,314.668l7.078,3.464-.151-5.572-3.615-2.259-3.313,4.368Z" transform="translate(92.812 147.012)" fill="#fff"/>
    <path id="nicaragua" d="M217.7,309l3.313.6.151,6.777-3.916,10.994-10.392-1.054-2.259-5.271,3.012-6.476,5.874-5.422L217.7,309Z" transform="translate(96.557 146.354)" fill="#fff"/>
    <path id="costa_rica" d="M216.24,322.153l2.108,4.066,1.657,2.259-2.259,6.777-4.368-3.012-7.079-6.476V321.4l9.94.753Z" transform="translate(97.417 152.629)" fill="#fff"/>
    <path id="panama" d="M216.859,327.411l-2.259,6.928,7.229,1.958,4.518.9.753-5.271,4.819-2.41,4.368,2.259,1.657,2.711,2.108-.3,1.657-4.97-5.422-2.259-4.066-2.259-4.066,2.711-4.819,2.41-4.97-1.958-1.506-.452Z" transform="translate(101.618 154.299)" fill="#fff"/>
    <path id="colombia" d="M260.939,316.8l-3.163-.3-20.483,16.868-2.108,6.024-2.862.3,1.2,13.1-7.229,17.47,7.832,6.627,9.94.6,6.777,10.091,9.94.3-.3,7.53h3.765l4.066-13.705-3.765-4.669.9-8.735,7.832-.6-.9-20.332-17.47-5.572-4.066-10.994L260.939,316.8Z" transform="translate(107.539 150.149)" fill="#fff"/>
    <path id="venezuela" d="M247.113,325.278l.6,3.916,4.97,1.506,1.054-7.229,5.121-5.271,5.121,6.024,11.9,3.163,10.091-2.108,6.777,8.434,5.121,3.163-5.723,8.585,1.958,6.476L290.94,356l-3.313,2.862-7.229-3.615-1.657,1.807v5.271l5.271,2.56L280.1,369.1l-3.916,4.217-5.121-.452-5.271-5.723-1.054-21.537-17.772-6.024L243.8,330.1l3.313-4.819Z" transform="translate(116.395 151.01)" fill="#fff"/>
    <path id="guyana" d="M282.422,331.1l10.844,9.789-4.368,4.97-.3,3.012,5.723,5.874-.151,5.572-9.94,3.765-5.874-7.982,1.2-9.639L277,339.233l5.422-8.133Z" transform="translate(133.196 157.538)" fill="#fff"/>
    <path id="suriname" d="M290.168,338.151l3.012,2.862L298,338l4.368.151-.6,1.657-1.807,3.765-.3,9.488-8.735,3.464.452-6.024-5.572-5.271.3-2.711,4.066-4.368Z" transform="translate(137.649 161.03)" fill="#fff"/>
    <path id="guyane" d="M298.51,338.7l8.886,5.422-4.669,9.187-1.657,2.108-4.97-2.861.151-9.789,2.259-4.066Z" transform="translate(142.862 161.384)" fill="#fff"/>
    <path id="ecuador" d="M228.686,352.8l-7.078,4.367-.452,6.627L219.8,365.9l4.518,4.368-1.958,2.108.452,5.422,7.982,1.958,12.2-14.308v-4.97l-5.874-.452-8.434-7.229Z" transform="translate(104.249 168.519)" fill="#fff"/>
    <path id="peru" d="M221.561,370.9l-2.861,3.012.151,4.669L244.3,425.121,270.81,442.14l4.066-6.928.9-15.061-2.108-9.488-7.229-12.2-4.368,1.355-1.958,2.108-8.585-9.789,2.108-11.6,9.94-6.476-.753-6.024-10.091-.452-5.271-8.886-2.861-.9.151,5.271-13.1,15.512-9.789-2.41-.3-5.271Z" transform="translate(103.692 171.05)" fill="#fff"/>
    <path id="bolivia" d="M254.3,391.522l12.35-5.422,4.066.452L273.427,398l18.826,6.326,3.163,9.639,7.832.9,3.313,8.283-2.259,7.53-12.651.9-4.669,12.049-9.94-.151-3.163-.6-5.723,5.573-2.861-.3L255.5,425.559l2.711-4.066.9-15.964-2.41-9.488-2.41-4.518Z" transform="translate(121.708 185.371)" fill="#fff"/>
    <path id="paraguay" d="M292.664,416.4l3.313,3.615-.452,7.681,9.488-.6,7.229,9.187-.6,8.283-4.669,7.079-9.488.452-.452-3.916,2.711-6.476-9.338-5.874h-7.832L276.7,429.5l4.217-12.2,11.747-.9Z" transform="translate(133.044 200.705)" fill="#fff"/>
    <path id="uruguay" d="M296.912,448.9l-3.012,3.313,1.355,17.772,9.639,2.862,12.35-12.35-20.332-11.6Z" transform="translate(141.749 217.152)" fill="#fff"/>
    <path id="argentina" d="M322.508,440.312l2.862,2.711L314.224,459.59l-3.916,4.368,1.355,18.826,8.585,10.392-7.229,12.5-5.422,2.41h-6.175l1.807,9.789-9.789,3.313,2.259,8.283-5.874,18.675,7.229,5.874-3.916,9.639-6.627,10.392,3.464,7.229-8.585,1.355-7.079-8.585-1.2-26.808-10.844-45.634,3.313-15.964L258.5,465.313l4.669-26.507,4.368-5.121-1.054-3.916,5.573-4.97,12.35.9,6.928,7.38,7.982.151,8.133,4.97-2.41,5.573.6,5.723,11.446-.6,5.422-8.585Z" transform="translate(123.834 204.956)" fill="#fff"/>
    <path id="tierra_del_fuego_chile" d="M282.776,531,276.3,545.157l11.145,1.2.151-9.488L282.776,531Z" transform="translate(132.842 258.7)" fill="#fff"/>
    <path id="tierra_del_fuego_argentina" d="M284.5,535.7l.452,8.585,6.627-.6,5.723-3.765-9.488-1.958L284.5,535.7Z" transform="translate(136.991 261.079)" fill="#fff"/>
    <path id="chile" d="M292,588.506l-4.819,5.271-.6,6.326-9.338-5.271-9.94-14.308-2.862-5.121,4.066-5.271-.452-6.627-4.669-1.958-3.765-2.711.753-3.765,4.819-1.356.9-21.537-7.53-4.368L253.6,415.459l1.355-2.259,9.789,22.29h3.163l1.054,3.615-4.066,4.97-4.669,26.959L267,491.816l-3.163,15.663,10.994,46.086,1.2,26.959,7.832,9.187,8.133-1.2Z" transform="translate(121.354 199.086)" fill="#fff"/>
    <path id="chiloe" d="M258.458,492.1l-1.958,3.012.9,5.121,1.958.151.9-6.476-1.807-1.807Z" transform="translate(122.822 239.014)" fill="#fff"/>
    <path id="brazil" d="M344.415,513.39l9.488-18.073.3-15.211,17.621-11.3h9.789l7.681-13.1,1.355-25.151-3.163-6.777,18.675-17.018.753-18.826-25.3-12.35L351.041,366.1l-14.458-1.355,3.916-8.133-1.054-12.35-3.163-1.054-4.669,9.187L329.2,355.4l-6.325-2.711-21.085,7.38-7.079-8.886,1.2-9.187-6.627,6.777-7.38-3.916-.753,1.054v3.163l6.326,3.464L278,362.482h-6.024l-6.024-6.175-6.777.151-.9,7.38,3.916,4.819-4.669,14.91-5.422.452-8.585,5.422L241.4,400.134l7.53,7.982,1.355-1.506,5.271-1.355,4.518,7.53,12.8-5.572,4.97.3,3.464,12.2,18.374,5.874,3.163,9.639,7.832.9,3.765,9.187-2.56,8.283,3.313,4.368-.452,6.476,8.735-.753,8.133,10.241-.6,7.229,4.819,4.066-11.446,17.32,20.031,10.844Z" transform="translate(115.18 163.054)" fill="#fff"/>
    <path id="belize" d="M200.151,300.16,200,305.582h1.2l4.368-7.982h-2.862l-2.56,2.56Z" transform="translate(94.229 140.585)" fill="#fff"/>
    <path id="russia" d="M966.635,118.746l2.711,9.187,5.271,1.506L979.888,121l-3.012-5.723,1.2-4.97h7.982l-1.958,3.765.753,13.705-11.3,28.163,1.2,6.175-.452,10.241,21.236,30.874,4.217,1.2.452-25.151,4.217-3.765-4.518-9.94,3.765-4.217L995.4,150.373l-4.518.452-1.506-18.374,11.747-3.012.753-5.422,6.024-1.506,3.464,3.012,4.217-16.717,7.229-12.2,5.723-3.012,4.97.452V88.323l-7.982-1.506-10.994-9.187,5.271-6.024-4.518-10.241,3.765-3.765,4.518,6.024,11.3,4.217,12.5,1.2,1.506-5.271L1042.39,57.3l7.229-9.94-16.265-5.723-4.217,8.434-5.271-6.928L994.045,32.9l-28.314,4.97-4.217,2.259v1.958l6.024,3.012-.753,7.229L955.791,47.81,931.543,57.3l-4.217-8.735H910.157l-7.53,7.982-26.808-6.024-24.549,4.97-3.012,7.681,3.765,1.2-.452,5.723-23.8,2.711,1.506,7.681-21.989-3.765,5.271-9.94-22.29-1.2,1.958,10.241L785,79.287l-6.024-5.723L754.43,77.781l-9.488,8.735-.452,5.271-6.024.452-.753-6.024L756.991,69.2V57.75l-12.5-3.464-16.265,5.271-6.777-6.928h-3.012L714.67,60.31l3.012,3.464L696.146,75.522,677.621,89.679l-11.446,15.663v6.476l12.048,4.97-6.024,4.518-12.8-4.518-5.271,4.518-7.982-9.187-1.506,3.464,8.735,27.41,2.259.753,6.024-3.012,3.012,2.259v4.97l-5.723-2.259-3.464,2.711,2.259,4.97-1.958,12.952-11.747,1.2-.753-4.217,6.777-4.217,1.506-11.446-7.53-9.94-2.711-17.169L629.277,118.6l-1.2,6.175,2.259,3.012L625.361,132l1.958,11.446,7.229,3.012,1.506,8.434-7.229-4.518L610.3,146.909l-2.259,6.175-14.76,5.271-2.259-3.765-19.278,10.693-.452,7.229-7.53,1.2,2.259-5.271v-5.271l-7.53-2.711-4.97,1.958,4.217,7.982,3.012,5.271v4.217l-5.723-1.2-1.2-1.2-5.723,6.175,3.012,5.271-12.8-.452,4.217,5.422-1.2,2.259h-6.777l-4.97-3.464-1.2-9.488-7.982-3.012v-3.765l16.717,3.464,9.036.753,3.765-5.723-3.464-6.175L522.2,159.259l-8.434,2.108-2.862,2.41.9,5.723,3.615.6-.9,8.886,10.994,25.754-7.982,12.5-.6,2.862,4.066,2.861-3.614,2.41h-2.41l.452,11.145,3.313,4.669v4.518l4.217.452,6.476,2.41,6.928,9.488v2.56l-2.259,3.916,5.121-.3,4.97,1.506,6.777,9.639,16.717,1.506-.753,11.446L561.2,293.3l1.2,1.958-5.723,6.175-1.506,5.723,3.464,4.97,10.994,3.765,4.518-2.711,29.067,10.994,1.2-3.012-6.024-5.723v-7.229l-3.765-1.2.753-6.175,6.024-7.229-10.844-8.133.753-11.3,11.6-7.681,13.705.753,2.259,4.217,14.006.753,10.241-5.723-5.271-5.723,1.2-10.693,26.507-12.952,20.332,9.187,6.777-6.175,20.031,19.127,15.061-1.506,5.271,5.271,14.458,1.506,9.488-12.952L769.039,257l6.476,1.2,6.476-5.723-5.723-3.765,4.97-7.681,14.006,4.518,3.012,6.175,6.024.452,3.765-2.711,10.241-.452,1.2,2.711,11.747.753,7.982-8.434,16.266,1.958,4.97-1.958,1.506-9.187-4.97-10.994,4.97-4.217h15.512l14.76,17.47,18.976,10.693h5.723l.753-4.518,6.777-4.217.753,24.85-6.024.452v6.175l3.464,4.217-.6,5.422,2.56,1.054,1.506-3.765,2.259.753,1.506,1.506,6.777-1.506,6.777-19.88.753-24.85-8.735-19.88-10.994-13.4-5.271.753v4.217l-12.8-4.97,4.97-10.693,4.217-28.163,17.47-5.271,8.283-5.271h9.036l-2.259,3.012,2.259,3.765,7.982-8.434,4.518.452-.753-4.97-7.229-1.506,4.97-17.922,6.778-6.476Z" transform="translate(251.565 6.629)" fill="#fff"/>
    <path id="china" d="M678.7,201.929l-5.271,13.1-7.229-.452-7.53,16.567,6.476,8.133L651.9,257.5l-6.777-1.2-4.518,5.723,1.2,3.464,5.271.452,2.711,6.175,5.271,1.2,16.266,20.934v10.693l7.982,4.97,8.735-1.506,10.994,6.476,13.253,3.765,6.476-.753,7.229-.753L741.2,307.2l4.97.753,1.958,4.518,4.217,1.2,5.723,8.434-3.765,8.434,2.259,5.723,6.476,2.259,1.2,6.928,7.53.753,1.2-3.464,10.994-5.723,6.777.452,7.982,8.735,5.271-2.259,3.464.452,1.506,4.217,2.711.452,3.765-5.271,15.211-5.723,13.555-16.416L848.737,306l-.452-10.241-5.723-1.2,3.464-3.765-.753-6.175-14.307-14.458v-7.229l4.217-5.271L839.4,255.7l.452-4.217H829.309l-1.958,5.723-4.97-1.2-6.024-6.476,3.765-9.94,5.271-5.723,4.97.452-.753,8.735,2.711,2.259,6.476-6.476,2.259-.452-.753-4.97,6.024-7.229,4.518.452,2.711-8.434,3.163-1.657.3-5.271-3.012-3.163-.3-8.283,5.723-.452-.452-21.236-4.066,2.41-1.506,5.422h-6.777L826.9,174.82l-14.157-17.169-14.458-.151-3.615,3.163,4.669,10.693-1.657,10.091-5.874,2.41-3.313-.3-.3,9.94,3.464.753,6.024-2.711,7.982,3.765v3.765l-5.723.452-4.518,9.94-4.217.452-14.759,19.428-15.512,6.928-10.542.753-7.229-4.97-10.241,5.422-10.994-3.464-2.711-7.229-18.524-1.2L690.9,209.61h-4.217l-3.313-7.38Z" transform="translate(317.201 69.685)" fill="#fff"/>
    <path id="mongolia" d="M669.3,194.742l8.735-11.6,10.542,4.819,7.229,1.958,8.735-7.982-5.874-4.368L702.584,172l11.747,4.066,4.066,6.627,7.38.151,3.765-2.862,7.832-.3,1.657,2.861,13.1.6,8.283-8.434,11.446,1.2-.6,11.446,4.97,1.2,6.175-2.862,6.476,3.163-.151,1.657-4.669.151-4.97,10.392-3.765.452-14.91,19.428-15.211,6.627-9.488.753-7.832-5.121L717.8,228.628l-9.94-3.163-2.862-7.229-18.826-1.355-9.639-16.416-4.669-.3-2.56-5.422Z" transform="translate(331.725 77.023)" fill="#fff"/>
    <path id="north_korea" d="M773.952,218.133l2.711,1.2.9,9.639,5.573.3,5.121-6.024-1.807-1.657.151-6.476,4.819-5.723-2.41-4.368,1.657-1.807.9-4.518-2.711-1.2-2.41,1.2-2.862,8.886-4.669-.452-5.422,6.476.452,4.518Z" transform="translate(384.457 89.928)" fill="#fff"/>
    <path id="south_korea" d="M785.57,215.1l9.338,7.53,1.506,7.38-.3,3.916-4.518,5.121-3.916.151-4.518-9.639L781.5,225.04l1.807-1.355-.452-1.958-2.259-1.054,4.97-5.572Z" transform="translate(388.05 98.834)" fill="#fff"/>
    <path id="kazakhstan" d="M575.793,223.919l6.175-2.711,6.928-.3.452,10.542h-4.066l-3.163,4.97,4.066,6.627,5.874,3.313.6,3.916,2.259-.753,1.958-2.41,3.313.753,1.657,3.313h4.217v-4.066l-2.56-7.681-1.2-6.175,7.53-3.313,10.241,1.657,6.476,6.476,14.458-1.355,8.133,11.446,9.488.452,2.56-4.368,3.313-.753.452-4.819,4.97-.3,2.56,3.163,2.56-6.175,22.591,3.163,3.765-4.97-6.476-7.982,8.585-18.675,6.928.452,4.819-11.446-9.488-.9-5.422-5.271-15.061,1.807-19.428-18.675-6.777,6.024L638.295,169.4l-25.453,12.5-.753,8.886,6.024,6.928-11.6,6.627-15.061-.3-3.163-4.669-11.747-.6L565.4,206l-.3,9.789,10.693,8.133Z" transform="translate(278.993 75.707)" fill="#fff"/>
    <path id="turkmenistan" d="M591.829,226.777l-.9,3.916H584.6v5.422l6.777,4.368-2.109,6.024v2.862l2.711.452,3.765-4.97,8.283-1.807L621.8,249.82l.3,4.97,9.94.9,11.145-11.747-1.356-3.765-7.38-1.657L613.667,224.97l-.9-4.97h-7.982l-3.464,6.476h-3.464l-6.024.3Z" transform="translate(288.861 101.314)" fill="#fff"/>
    <path id="uzbekistan" d="M641.6,249.056l4.669.3v-7.982l-4.368-2.56,7.38-9.338H652.3l3.012,3.464,7.832-3.012L652.3,226.164l-.452-2.259-2.56.6-2.56,4.368-10.994-.3-7.982-11.446-14.157,1.355-6.777-6.627-9.338-1.657-6.777,2.711,3.916,13.1v4.368h2.861l3.464-6.627,9.338.151,1.356,5.121,20.031,13.253,7.681,1.807,2.259,4.97Z" transform="translate(291.948 96.355)" fill="#fff"/>
    <path id="tajikistan" d="M625.7,231.381l6.175-7.681h2.41l.753,1.657-2.862,2.108v1.657l1.958,1.355,9.036.6,3.012-1.2,1.355.3.9,2.862,5.422.6,2.711,5.723-.753,1.657-1.054.151-1.054-2.108-2.259-.151-4.066.6-.3,3.765-4.066-.3.151-4.819-3.012-2.862-4.518,3.765.151,2.41-3.916,1.355h-2.259l.151-8.434-4.066-3.012Z" transform="translate(309.661 103.186)" fill="#fff"/>
    <path id="kirgizstan" d="M633.059,217.112l-.452,3.765.452,2.41,13.1,4.368-11.446,4.669-1.356-1.054-2.56,1.657.151.9,1.355.6,8.133.151,4.066-1.2,5.271-6.627,6.627,1.2,7.982-10.994L643.15,214.1l-3.012,7.079-3.765-3.916-3.313-.151Z" transform="translate(312.241 98.328)" fill="#fff"/>
    <path id="afghanistan" d="M609.7,249.921l2.41,18.826,6.024,1.355.6,3.313-4.217,3.615,7.982,6.476,15.513-5.572,1.205-6.627,9.789-6.024,3.765-14.157,2.711-3.012-2.862-4.97,9.488-5.874-1.2-1.657-4.367.3-.452,4.066h-5.874l-.15-5.422L648.1,232.3l-3.163,2.862.151,2.711-4.819,1.807-8.735-.6-11.446,12.048-10.392-1.2Z" transform="translate(301.563 107.539)" fill="#fff"/>
    <path id="pakistan" d="M619.459,283.146l3.916,5.874-.452,3.012-5.271,2.108-.452,4.819h6.024l2.108-1.657h11.3l10.241,9.036,1.355-4.368h7.681l.151-5.422-7.832-7.53,1.657-4.066,7.982-.6,10.844-22.591-6.024-4.669-2.259-7.831,14.458-1.355L666.3,235.7l-4.518-1.2-1.807,2.259-1.355.151-8.584,5.422L652.893,247l-3.163,3.313-3.916,14.458-9.639,6.175-1.356,6.777-15.362,5.422Z" transform="translate(305.359 108.652)" fill="#fff"/>
    <path id="india" d="M681.125,373.371l6.928-3.313,4.066-14.759-.151-18.223,23.495-25.3v-6.024l4.819-1.958-.151-6.928-5.271-10.091,3.012-5.422,6.476,6.024,8.434.452v3.313L730.223,294l.6,1.506,4.518.151.9,5.121H737.6l3.313-6.024,1.657-15.814,5.572-3.916.151-5.422-2.259-4.368-3.464-.151-14.006,9.036.9,5.874H719.68l-3.464-4.217-1.807.3.6,5.874-21.085-1.506-13.1-5.874-.753-7.229-8.735-5.422-.151-11.145L665.161,244l-13.705,1.355,1.506,6.024,6.777,5.422-11.6,23.8-7.832.6-1.2,2.862,7.681,7.078-.452,7.229-7.832-.151-.9,3.615,6.476-.3.151,2.861-4.669,2.41,3.012,5.572,5.723,1.958,3.464-2.56,1.657-4.669,2.109-.9,2.41,2.41-.753,6.024-1.657,2.861.452,4.819,25.151,51.056Z" transform="translate(315.683 113.46)" fill="#fff"/>
    <path id="nepal" d="M666.7,259.955l.753,6.476,12.2,5.572,19.579,1.506-.753-4.669-13.1-3.615L674.381,258.6l-7.681,1.355Z" transform="translate(330.409 120.848)" fill="#fff"/>
    <path id="bhutan" d="M690.9,265.4l2.259,3.163h7.832l-.753-4.368-9.338,1.2Z" transform="translate(342.656 123.682)" fill="#fff"/>
    <path id="bangladesh" d="M691.758,270l-1.958,3.615,5.121,9.789.151,7.53.9,2.108,6.024.151,3.464-3.313,2.41,1.506.452,4.669,1.958-1.2.151-5.874-1.657-.151-1.054-4.97-4.217-.151-1.054-2.862,2.56-3.464v-1.657h-7.38L691.758,270Z" transform="translate(342.099 126.617)" fill="#fff"/>
    <path id="burma" d="M736.386,350.761l-4.217-6.627,3.012-4.217-2.862-5.271-2.711-.452-.452-8.886-4.067-7.832-1.2,1.807-2.711,4.518-3.313.452L716.205,322l-.9-6.024-2.56-4.819L702.5,301.362l2.56-1.657.452-7.078,3.765-6.326,1.657-15.814,5.422-3.765.151-5.723,3.313,1.054,5.121,7.53-3.765,8.133,2.56,6.476,6.326,2.56,1.2,6.928,8.585,1.355-2.41,4.066L726.6,303.32l-1.2,6.928,7.982,10.241.3,5.422-1.807,1.807.15,1.657,5.874,8.735.151,9.036-1.657,3.615Z" transform="translate(348.526 122.063)" fill="#fff"/>
    <path id="thailand" d="M729.142,287.4l4.819,6.326v7.681l1.657.9,7.832-3.765,1.506.452,9.338,10.693-.452,7.229-3.012-.452-2.711-1.657-1.958.151-3.464,5.874.6,3.163,2.862,1.506-.15,3.615-1.958,1.054-6.928-4.819v-4.217l-2.862-.151-1.2,1.807-.6,18.976,4.518,8.133,7.982,7.681-.3,2.259-4.217-.151-3.916-5.723h-4.066l-5.121-4.066-1.506-4.217,2.109-3.615.753-3.163,2.41-4.217-.151-9.639-5.874-8.434-.3-1.054,1.958-1.958-.452-6.627-7.681-9.789.9-5.723,9.639-4.066Z" transform="translate(356.674 135.423)" fill="#fff"/>
    <path id="malaysia" d="M728.3,332.451l3.012,6.777.753,8.886,4.066,6.326,9.789,5.874,3.765.3-.753-6.175-3.163-7.832-4.669-9.94-.452,1.807-5.723-.3L730.86,332.3l-2.56.151Z" transform="translate(361.583 158.145)" fill="#fff"/>
    <path id="cambodia" d="M736.354,321.511l6.175,6.627,11.446-8.434,1.054-13.4-5.874,4.066-3.012-1.657-4.217-.6-2.41-1.657h-1.2l-3.012,4.97.452,2.259,3.163,1.657-.452,4.669-2.109,1.506Z" transform="translate(365.125 144.987)" fill="#fff"/>
    <path id="laos" d="M733.227,279.9l-3.615,1.807-3.012,8.886,5.121,6.476-.9,7.079.9.3,8.434-4.066,11.3,12.651-.3,7.982,2.41,1.355,6.024-4.97-.452-3.916-17.47-16.567.151-2.56,2.109-1.506-1.506-4.217-7.229-1.2-1.958-7.53Z" transform="translate(360.722 131.627)" fill="#fff"/>
    <path id="vietnam" d="M745.155,343.616l1.807,2.862.3,3.163,4.669.452,5.723-7.681,5.422-1.506,2.862-7.831-1.356-12.5-5.572-7.681-5.874-4.669-7.38-12.8,5.271-8.886-7.681-8.735-6.175-.3-5.573,3.012,1.657,7.079,7.38,1.355,1.958,5.422-2.56,1.657.151,1.355,17.169,16.868.753,4.97-1.054,15.663-11.9,8.735Z" transform="translate(363.253 130.413)" fill="#fff"/>
    <path id="georgia" d="M551,221.859l4.97,6.476,6.175,2.862h3.765l6.476-1.807,1.657-2.56L554.765,219.6,551,221.859Z" transform="translate(271.858 101.112)" fill="#fff"/>
    <path id="armenia" d="M567.425,226.8l7.229,9.488-2.109,2.41-5.121-.9-6.325-5.723.3-3.765,6.024-1.506Z" transform="translate(276.969 104.755)" fill="#fff"/>
    <path id="azerbaijan" d="M567.406,224.7l-1.506,2.56,7.078,9.338,2.41-.753,4.067,4.217,1.807-7.53,4.368.753-.151-2.108-7.229-6.325-1.356,3.765-9.488-3.916Z" transform="translate(279.398 103.692)" fill="#fff"/>
    <path id="iran" d="M565.807,235.963,564,237.921l.151,3.012,2.259,3.163,8.133,8.886-1.2,3.615h-1.356l-.753,3.615,4.518,5.874,4.217.3,8.434,11.747,4.819.3,3.765,2.711.151,5.271L611.742,295h5.422l3.313-2.862,4.217-.151,2.41,5.723,15.814,2.259.452-5.874,5.271-1.958.3-2.108-4.217-5.723-9.338-7.53,4.819-4.518-.3-1.958-6.175-.9-2.56-20.633-.3-4.669L614.3,237.77l-7.38,1.657-4.066,5.121-3.615-.3-1.054.9-8.133-.6-10.241-7.53-3.765-4.217-1.807.452-3.163,3.614-5.271-.9Z" transform="translate(278.436 107.792)" fill="#fff"/>
    <path id="turkey" d="M574.189,226.5l-3.313,3.615-12.35-.3-7.38-4.368-7.229-.151-8.283,5.874-7.832.3-.753,4.368h-8.886l-3.464,3.163v1.807l2.109,1.807v1.958l-.9,2.259.9,1.958,2.861-1.355,2.862,3.012-.753,2.108-1.054,1.355,1.506,1.807,7.832,1.657,5.422-2.259v-3.313l2.711.6,6.325,3.765,6.928-1.054,3.012-2.861,1.958.753v3.163h2.711l2.259-4.368,20.181-2.108,8.735-1.054-2.259-3.012v-4.066l1.807-2.108-6.476-5.121.3-4.368h-3.464l-6.024-3.464Z" transform="translate(253.488 103.996)" fill="#fff"/>
    <path id="yemen" d="M567.5,310.248l2.109,6.476v6.325l5.271,4.669,36.748-14.91.3-4.066L606.055,298.2l-14.76,4.669-8.434,8.283-9.789-5.874-5.573,4.97Z" transform="translate(280.208 140.888)" fill="#fff"/>
    <path id="oman" d="M593.9,307.415l11.145-6.476L607,291.451l-2.41-1.355L605.647,280l2.108-1.2,2.259,3.615,13.555,7.078v3.916l-16.416,24.1-7.53.3L593.9,307.415Z" transform="translate(293.568 131.071)" fill="#fff"/>
    <path id="emirates" d="M589.6,285.088l1.355,5.271,14.91,1.355,1.054-10.693,2.862-1.506.753-3.916-4.669,1.355-5.271,7.832-10.994.3Z" transform="translate(291.392 129.451)" fill="#fff"/>
    <path id="qatar" d="M588.453,276.4l-.753,6.024,2.259,1.807,2.108-.151.753-7.53-1.807-1.355-2.56,1.2Z" transform="translate(290.43 129.249)" fill="#fff"/>
    <path id="kuwait" d="M580.773,264.707,577.31,262.9l-2.41,2.41.3,4.669,5.422,2.108.151-7.38Z" transform="translate(283.952 123.024)" fill="#fff"/>
    <path id="saudi" d="M598.477,276.222l10.542,14.759,3.464,2.711,1.506,6.627,16.265,1.355,1.807.9-1.807,8.133-10.693,6.326L603.9,321.705l-8.284,8.133-9.94-5.723-6.024,5.271-8.283-13.705-5.723-2.56-2.109-3.163V303.03l-20.784-25.151L542,273.361h6.024l7.229-6.325.3-3.163-2.108-2.108,4.217-3.464,8.886.6,15.061,12.651,8.886-.452.6,2.259,7.38,2.862Z" transform="translate(267.303 120.696)" fill="#fff"/>
    <path id="syria" d="M542.352,248.225l-.452,3.765,4.217,1.807-.151,10.542,4.217-.151,4.217-3.163,1.657-.3,9.639-7.681,1.958-11.145-19.278,1.958-1.958,4.518-4.066-.151Z" transform="translate(267.252 112.397)" fill="#fff"/>
    <path id="iraq" d="M563.9,242.455l-2.41,11.6-9.789,8.133.6,3.765,9.488.6L577,278.9l8.434-.3.3-2.861,3.163-3.313,4.368,2.41.6-.6-8.434-11.145-3.916-.3-5.271-6.777,1.054-4.97,1.657-.151.6-2.259-7.229-7.53-8.434,1.355Z" transform="translate(272.212 111.992)" fill="#fff"/>
    <path id="jordan" d="M545.716,258.763l-3.765,12.952-.151,1.958h5.874l6.476-5.723.151-2.109-2.711-2.711,4.819-3.916-.753-3.615-1.355.3-3.916,2.862Z" transform="translate(267.202 119.33)" fill="#fff"/>
    <path id="lebanon" d="M542.054,249.4l.151,2.862L541,256.78l4.217.3.3-6.325-3.464-1.355Z" transform="translate(266.797 116.192)" fill="#fff"/>
    <path id="israel" d="M541.71,255l-2.41,7.53,3.012,9.036,3.464-13.253v-2.862L541.71,255Z" transform="translate(265.937 119.026)" fill="#fff"/>
    <path id="cyprus" d="M541.684,246.8l1.807,1.355-5.723,5.422-2.711-.151-1.958-1.355.3-2.711,4.217-.3,4.066-2.259Z" transform="translate(262.799 114.877)" fill="#fff"/>
    <path id="norway" d="M536.455,123.3l3.012-2.259-.3-2.56-1.958-1.054.3-3.012h1.657v-1.657l-7.229-1.958-10.693,1.054-1.054,4.669-2.41-.753-1.657-2.711-5.271.3-.6,5.271-2.41,1.054-1.355-2.711-10.994,8.886,2.259,2.56-4.217,1.958-9.338,18.675-3.313,2.259.3,1.657,3.313,1.657-.753,3.615-5.573-.3-1.657-1.958L472.9,160.2l-2.259,1.657-.6,3.916-1.958,1.054-4.97,1.054-2.41,7.831,1.657,12.8,1.958,5.874,2.259,2.259,4.97-.3,7.229-6.928,2.711-4.669.753,6.928,4.669-8.283.3-23.344,3.765-2.41,1.2-12.952,11.6-16.717,5.572-1.958,2.41-3.012,8.283,1.958,4.217,2.56,1.355-6.928,6.928-4.217,3.916,6.928Z" transform="translate(226.16 46.052)" fill="#fff"/>
    <path id="britain" d="M446.153,166.81l-2.711,4.217,1.054,1.657h6.325v2.862l-1.657,2.259,1.054,5.874,3.614,6.928,2.711,6.476,4.368,1.657,1.958,3.313-.3,3.012-2.711,1.657-.3,1.355,1.958,1.054-1.657,2.259-3.916,1.657-7.53-.9-11.6,5.271-3.916-1.958,10.994-6.476-1.355-.9-5.874-.6,3.615-5.271.6-4.518,4.669-.6L444.8,188.5l-5.572-.3-1.657-1.958.3-6.476-3.313.3,3.313-11.145,6.024-4.518,2.259,2.41Z" transform="translate(212.091 73.177)" fill="#fff"/>
    <path id="ulster" d="M435.771,178.4l-4.97.6-.3,4.518,3.313,2.259,3.615-.9,1.355-2.56-3.012-3.916Z" transform="translate(210.877 80.262)" fill="#fff"/>
    <path id="ireland" d="M441.881,186.03l-1.355,9.036-12.2,4.518h-3.916l-2.711-1.958V195.82l6.024-3.916-1.657-3.313.3-4.669,5.271.3,2.41-5.723-.3,4.97,4.066,3.163,4.066-.6Z" transform="translate(206.424 80.312)" fill="#fff"/>
    <path id="sweden" d="M502.561,121.5l3.012,2.711h5.572l3.012,5.874.753,9.94-7.53,5.271v5.271l-5.271,7.229-3.012.3-4.217,6.928.3,6.627,7.229,5.271-.6,3.012-2.711,4.217-4.217,3.615.3,11.9-6.326,2.259-2.259,4.669h-3.012l-1.657-8.283L475,187.767l5.723-9.488.452-23.495,3.916-2.108.9-13.4,11.145-15.964,5.422-1.807Z" transform="translate(233.397 51.467)" fill="#fff"/>
    <path id="finland" d="M506.551,143.212l3.163,1.355,1.958,3.615-1.958,2.56-9.639,10.542-1.657,5.572,2.259,8.133,7.53,5.572,9.94-4.669,7.982-1.054,7.53-11.9-5.572-13.1-5.271-12.5.9-8.133-3.313-.6-.9-5.874-4.518-7.229-4.97,3.464-1.958,7.982-5.271-3.163-7.229-1.807-1.657,1.958,2.862,2.56,5.121-.151,4.066,6.627.6,10.241Z" transform="translate(242.961 48.43)" fill="#fff"/>
    <path id="path302" d="M517.041,168.857,506.8,167.2l.151,5.723,9.639,5.874,3.916-1.2-.3-4.368-3.163-4.368Z" transform="translate(249.49 74.594)" fill="#fff"/>
    <path id="hiumaa" d="M503.514,164.651l-2.259-.151-1.355,1.355.9,1.506,2.259.151,1.2-1.807-.753-1.054Z" transform="translate(245.998 73.227)" fill="#fff"/>
    <path id="saaremaa" d="M504.225,168.751l-2.259-.151-4.066,4.819v2.259l1.356.6,2.711.151,4.368-3.615.6-1.2-2.711-2.862Z" transform="translate(244.986 75.302)" fill="#fff"/>
    <path id="lithuania" d="M510.954,171.651l-3.163-.151-4.518,4.217h-3.765l.151,5.271-2.259,4.217,8.133.151,2.259-.3,2.259,2.862,5.422-.151,5.121-6.476-.3-3.916-9.338-5.723Z" transform="translate(244.733 76.77)" fill="#fff"/>
    <path id="belarus" d="M506.2,187.451l2.259,3.765-.9,3.012.151,2.41.753,2.862,4.669-2.711,5.723.151,4.066,1.657h10.241l3.012-7.229,1.807-2.711v-1.807l-6.476-9.187-5.723-2.259-4.669-.6-4.066,1.355.151,4.066-5.723,7.078-5.271.151Z" transform="translate(249.186 78.44)" fill="#fff"/>
    <path id="poland" d="M518.336,197.874l1.355,2.41.3,2.56-1.054,2.41-2.41,4.669-2.108.9-2.711-1.2-1.506.151-3.765,1.506-4.368-1.355-7.079-4.97-6.928-3.765L485.2,196.82l-.6-9.94,5.422-4.669,7.078-2.41,2.711-.3-1.054,2.108.753.9,11.9.151,2.56-.151,4.217,6.476-1.054,2.711.452,3.163.753,3.012Z" transform="translate(238.255 80.818)" fill="#fff"/>
    <path id="spain" d="M453.009,222.507H433.882l-3.916-1.807-1.807.151-2.259,4.669.753,4.819,7.38.6.9,3.163-3.163,17.922.151,3.163,5.271,2.862,6.024.452,12.049-3.012,5.874-7.38.151-7.53,10.392-9.338.6-4.217-9.488-.151-9.789-4.368Z" transform="translate(208.549 101.668)" fill="#fff"/>
    <path id="portugal" d="M427.714,228.2l-.9,12.952-2.711,2.41.3,1.506,1.807,3.163L425,252l1.958.6,4.669-.6-.3-3.765,3.012-17.47-.6-2.41-6.024-.151Z" transform="translate(207.638 105.464)" fill="#fff"/>
    <path id="majorca" d="M457.41,234.1l-2.41.753.6,2.109h3.464l1.506-1.657-3.163-1.2Z" transform="translate(223.276 108.449)" fill="#fff"/>
    <path id="sardinia" d="M474.416,230.3l-3.916,1.958.6,7.832,3.163.6,2.41-2.259v-7.38l-2.259-.753Z" transform="translate(231.12 106.526)" fill="#fff"/>
    <path id="corsica" d="M474.513,223.9l-3.012,3.012-.3,2.711,2.41,1.506.9-.151.6-3.916-.6-3.163Z" transform="translate(231.474 103.288)" fill="#fff"/>
    <path id="france" d="M465.11,195.6l-3.313.753-6.627,7.229-1.958.151-2.711-1.958-1.657.452-1.355,4.217-9.789.3.3,2.108,6.627,4.368,7.681,6.175-.151,7.38L448.092,234l8.886,4.368,9.036.3,2.862-3.163,5.723.151,1.657,1.506,5.723-.452,3.012-3.765-3.765-4.368-.3-2.861.753-3.163-1.807-2.711-3.163.9-.452-2.41,7.078-7.832v-4.669l-4.669-2.711-2.41-.452L465.11,195.6Z" transform="translate(214.521 88.966)" fill="#fff"/>
    <path id="netherlands" d="M469.648,185.2l-6.777,3.313,1.506,1.355.151,3.313-1.506-.3-1.657-2.41L457.6,196.5l5.874,1.2,2.259,2.259h1.2l.753-5.271,3.765-1.506-1.807-7.982Z" transform="translate(224.591 83.703)" fill="#fff"/>
    <path id="belgium" d="M457.4,193.5l-.9,2.41,10.392,6.777,3.012.753.151-3.163-2.56-2.862h-1.657l-2.259-2.41L457.4,193.5Z" transform="translate(224.035 87.903)" fill="#fff"/>
    <path id="germany" d="M467.763,186.622l5.422-.9v-3.765l4.518-.753,2.41,2.41,2.56.3,4.066-1.807,3.615,1.054,3.163,2.711.452,10.392,3.163,4.217-4.217.6-6.928,4.368.6,1.506,6.175,5.874-.452,2.861-5.874,2.862-5.422.151-1.356,2.711h-2.41L475.9,218.55l-4.819-1.2-.151-4.819-4.066-2.711.452-3.464-2.711-3.765.753-4.97,3.765-1.807-1.355-9.187Z" transform="translate(228.134 81.679)" fill="#fff"/>
    <path id="denmark" d="M474.425,168.4l-6.175,6.928-.151,4.518,2.861,7.38,4.518-.9-.6-6.024,3.012-3.464v-2.711l-2.109-5.572-1.355-.151Z" transform="translate(229.905 75.201)" fill="#fff"/>
    <path id="sjlland" d="M478.063,176.6h-1.355l-1.807,1.657.151,2.711,4.368.151.151-3.012-1.506-1.506Z" transform="translate(233.346 79.351)" fill="#fff"/>
    <path id="gotland" d="M495.063,167.1l-3.163,2.56,1.657,3.615,2.861-2.711-1.355-3.464Z" transform="translate(241.949 74.543)" fill="#fff"/>
    <path id="switzerland" d="M470.727,206.3l-6.627,6.928.151.753,2.711-.9,2.41,3.313,4.066-1.506,2.862,2.259,1.2-.6,3.464-5.422-.9-.9-3.464-.151-1.657-3.464-4.217-.3Z" transform="translate(227.881 94.381)" fill="#fff"/>
    <path id="czech" d="M486.024,205.292H492.8l3.614,2.56,6.627-5.422-6.476-4.518-6.325-3.012-4.368.753L480,199.418l6.024,5.874Z" transform="translate(235.927 88.612)" fill="#fff"/>
    <path id="slovakia" d="M491.4,206.023l1.054.9.151,1.506,11.446-.3,8.434-3.615-.151-3.765-1.657.753-2.259-1.2h-1.506l-3.765,1.506-5.121-1.2-6.627,5.422Z" transform="translate(241.696 91.345)" fill="#fff"/>
    <path id="austria" d="M476.5,209.377l-.9,2.108.9,1.506,3.464-.753h3.012l3.163,2.711,6.928-1.2,5.121-3.012,1.355-2.108-.151-2.56-4.518-3.464h-6.024l-.452,3.464-6.476,3.163-5.422.151Z" transform="translate(233.7 92.509)" fill="#fff"/>
    <path id="hungary" d="M492.907,207.968l-1.807,2.711.15,4.217,2.862,1.355,8.585.3,11.9-10.091V204.2l-1.355-.6-8.585,3.916-11.747.452Z" transform="translate(241.544 93.015)" fill="#fff"/>
    <path id="slovenia" d="M493.944,208.9l-3.765,2.259-7.078,1.506,1.506,4.066h4.97l4.669-3.916-.3-3.916Z" transform="translate(237.496 95.697)" fill="#fff"/>
    <path id="croatia" d="M495,212.1l-5.271,4.368H484.3l-.6,3.765,2.41.6,1.2-1.807,1.958,1.657,1.506,5.422,10.693,4.97,1.054-1.2-10.844-11.145,1.054-2.108,10.241-.452,1.054-3.313-6.627.151-2.41-.9Z" transform="translate(237.799 97.316)" fill="#fff"/>
    <path id="bosnia" d="M490.5,215.951l-.6.9,10.091,10.392,3.765-5.422-.151-2.108-3.163-3.916-9.94.151Z" transform="translate(240.937 99.189)" fill="#fff"/>
    <path id="italy" d="M468.1,216.127l-.9,2.41.3,2.56,3.615,4.217,5.723-.151,12.5,14.458,7.832,2.259,4.669,4.368,1.054,9.94,2.41-1.506,2.108-5.422-.6-3.916,3.615-.3.6-2.259-10.392-4.97-9.789-9.639-3.916-5.723-.9-5.422,4.97-1.2-1.355-3.615-3.012-2.56-2.711-.151-3.615,1.054-3.464,4.819-2.108,1.355-3.163-1.958-3.464,1.356Z" transform="translate(229.449 96)" fill="#fff"/>
    <path id="sicily" d="M491.289,240.4l-2.259-1.2-7.53,1.2.3,1.958,6.777,3.313,1.054,1.054,1.807.3-.151-6.627Z" transform="translate(236.686 111.03)" fill="#fff"/>
    <path id="malta" d="M488.96,247.4l-2.56.452.151,2.862,2.259.753,1.054-.9-.9-3.163Z" transform="translate(239.166 115.18)" fill="#fff"/>
    <path id="ukraine" d="M513.58,191.821l-4.367,2.41,1.054,4.669-4.066,8.434V211.1l1.958,1.2,12.2.6,3.464-2.862,3.615,1.2,5.271,6.928-3.765,6.928,4.518,1.355,5.874-6.928,3.464.6,3.163,2.259-2.711,3.615,3.765,5.874h4.066l2.108-3.916,4.217-.9.151-3.163-7.832-1.2.3-3.464h7.681l8.283-6.627,3.615-3.163.6-10.091-16.266-1.506-6.627-9.488-4.669-1.657-5.573.3-2.56,6.175-11.446.151L519.3,191.67l-5.723.151Z" transform="translate(249.186 84.462)" fill="#fff"/>
    <path id="moldova" d="M516.3,205.308l4.669,7.229-.452,4.066,1.657.151,3.916-6.627-4.819-5.874-2.711-1.054-2.259,2.108Z" transform="translate(254.297 92.812)" fill="#fff"/>
    <path id="romania" d="M510.787,204.5l-.452,2.259-8.735,7.229,7.229,10.693,4.669,3.313h8.434l2.711-2.259,3.765-.452,2.711,1.657,4.97-5.572-.9-2.861-4.97-1.355L526.751,217l.151-4.819-4.518-7.079-11.6-.6Z" transform="translate(246.858 93.47)" fill="#fff"/>
    <path id="montenegro" d="M502.121,225.617v-1.355l-1.958-2.862L497,225.918l.6,1.958,2.56.452Z" transform="translate(244.53 102.022)" fill="#fff"/>
    <path id="serbia" d="M503.023,211.5l-3.163,2.259h-1.506l-1.054,3.163,3.615,4.217.3,3.313-.452.753,2.41,3.464.151,1.807,1.807,1.657,5.723-1.807-.452-8.283Z" transform="translate(244.682 97.012)" fill="#fff"/>
    <path id="bulgaria" d="M507,219.351l.3,7.53,2.56,5.271,9.488.151,4.217-3.012,4.217-1.657-1.054-4.819.9-2.56-2.109-1.054-2.862.3L520.4,221.76l-9.639.151L507,219.351Z" transform="translate(249.591 100.909)" fill="#fff"/>
    <path id="albania" d="M499.6,227.611v6.928l1.958,3.765,1.506-.151,2.41-4.518-1.506-1.958-.6-4.97-1.958-1.807-1.807,2.711Z" transform="translate(245.846 103.794)" fill="#fff"/>
    <path id="macedonia" d="M508.221,224.9l-5.121,1.657.3,4.368,1.2,1.506,6.024-2.862-2.41-4.669Z" transform="translate(247.617 103.794)" fill="#fff"/>
    <path id="greece" d="M502.351,238.3l-.151,1.958,6.928,3.464,3.313,1.355-1.807,1.807-3.916.452-.6,1.807,1.355,3.012,4.368,2.259,1.958.151.3-5.121,2.861-3.464-7.831-9.187,1.054-3.163,1.807-.151,2.711,2.259,1.807-.9.6-3.163,8.133.151.3-4.819-3.464,2.41-9.94-.3-6.476,3.313-3.313,5.874Z" transform="translate(247.162 104.856)" fill="#fff"/>
    <path id="thrace" d="M518.7,227.055l-.3,5.422,4.669-1.355,2.109-1.355-.6-2.259-2.259-1.807-3.614,1.355Z" transform="translate(255.36 104.199)" fill="#fff"/>
    <path id="crete" d="M512.6,247.5l2.41.151,1.054,1.506h3.615l2.41-.9.753.9-1.657,2.108-6.928.3-1.2-1.657-1.355-.753.9-1.657Z" transform="translate(251.969 115.231)" fill="#fff"/>
  </g>
</svg>
