<?xml version="1.0" encoding="utf-8"?>
<!-- Generator: Adobe Illustrator 24.2.0, SVG Export Plug-In . SVG Version: 6.00 Build 0)  -->
<svg version="1.1" id="Ebene_1" xmlns="http://www.w3.org/2000/svg" xmlns:xlink="http://www.w3.org/1999/xlink" x="0px" y="0px"
	 viewBox="0 0 300 300" style="enable-background:new 0 0 300 300;" xml:space="preserve">
<style type="text/css">
	.st0{fill:#E23237;}
	.st1{fill:#B52E31;}
	.st2{fill:#FFFFFF;}
	.st3{display:none;}
	.st4{display:inline;}
	.st5{fill:#C63D14;}
</style>
<g id="Layer_1">
	<path class="st0" d="M41,71.8l107.5-38.3L259,71.1l-17.8,142.3l-92.6,51.3L57.4,214L41,71.8z"/>
	<path class="st1" d="M259,71.1L148.5,33.4v231.2l92.6-51.2L259,71.1z"/>
	<path class="st2" d="M148.7,60.4l-67,149.1l25.1-0.4l13.5-33.7h28.7h0.1h31.5l14.7,34l23.9,0.4L148.7,60.4z M148.8,108.2l22.7,47.3
		h-21.7h-1.2h-19.7L148.8,108.2z"/>
</g>
<g id="Ebene_2_1_" class="st3">
	<g class="st4">
		<path class="st5" d="M254.1,148c0-13.5-11-24.5-24.5-24.5c-0.9,0-1.7,0-2.6,0.1l33.6-99.1H117.9l33.6,99.1c-0.5,0-1,0-1.5,0
			c-13.5,0-24.5,11-24.5,24.5c0,10.9,7.2,20.2,17,23.3c-5.2,9-11.8,17.2-19.2,24.2c-10.1,9.6-21.7,16.8-34.3,21.3
			c-14.9-7.7-22-24.7-15.6-39.7c0.7-1.7,1.5-3.4,2.2-5.1c10.8-2.5,18.9-12.2,18.9-23.8c0-13.5-11-24.5-24.5-24.5s-24.5,11-24.5,24.5
			c0,8.3,4.1,15.6,10.4,20c-6.1,13.8-15,28.2-17.7,45c-3.3,20,0,41.3,17.3,53.3c40.4,28,84.2-17.4,130.4-28.7
			c16.7-4.1,35.1-3.5,49.9-12c11.1-6.4,18.4-17.1,20.5-29c2-11.8-0.9-23.5-7.8-33.1C252,159.4,254.1,154,254.1,148L254.1,148z
			 M174.4,148.1C174.4,148,174.4,148,174.4,148.1c0-9-4.7-16.7-11.8-21l26.7-54l26.8,54.6c-6.6,4.4-10.9,11.9-10.9,20.4
			c0,0.2,0,0.4,0,0.5L174.4,148.1L174.4,148.1z"/>
		<path class="st2" d="M260.1,148c0-14.9-10.7-27.3-24.8-29.9L269,18.5H109.5l33.8,99.7c-13.6,3-23.8,15.2-23.8,29.7
			c0,10.9,5.8,20.5,14.4,25.9c-4.2,6.2-9.1,12-14.7,17.3c-8.9,8.4-18.9,14.8-29.7,19.1c-10.8-6.8-15.4-19.6-10.7-30.8l0.4-0.9
			c0.2-0.5,0.5-1.1,0.7-1.6c11.9-4.1,20.5-15.5,20.5-28.8c0-16.8-13.7-30.4-30.5-30.4s-30.4,13.7-30.4,30.4c0,8.5,3.5,16.1,9.1,21.7
			c-1,2.2-2.1,4.4-3.2,6.6c-5.1,10.5-10.9,22.5-13.1,35.7c-4.4,26.3,2.7,47.4,19.8,59.2c10.4,7.2,21,10,31.6,10
			c20,0,40.3-10.1,60.1-19.9c14.3-7.1,29-14.4,43.6-18c5.4-1.3,11-2.1,16.9-3c11.7-1.7,23.8-3.4,34.6-9.6
			c12.4-7.2,20.9-19.3,23.4-33.1c2.1-11.9-0.4-23.8-6.5-33.9C258.5,159.2,260.1,153.8,260.1,148L260.1,148z M248.2,148
			c0,10.2-8.3,18.5-18.5,18.5s-18.5-8.3-18.5-18.5s8.3-18.5,18.5-18.5S248.2,137.8,248.2,148L248.2,148z M252.4,30.5l-29.8,87.9
			c-1.3,0.3-2.6,0.7-3.8,1.2l-29.4-60.1l-29.5,59.7c-1.3-0.4-2.6-0.8-3.9-1.1l-29.7-87.6H252.4L252.4,30.5z M149.9,129.5
			c10.2,0,18.5,8.3,18.5,18.5s-8.3,18.5-18.5,18.5s-18.5-8.3-18.5-18.5S139.7,129.5,149.9,129.5L149.9,129.5z M69.9,129.7
			c10.2,0,18.5,8.3,18.5,18.5s-8.3,18.5-18.5,18.5s-18.5-8.3-18.5-18.5S59.7,129.7,69.9,129.7L69.9,129.7z M250.4,195.7
			c-1.8,10.4-8.2,19.4-17.6,24.8c-8.7,5.1-19.2,6.6-30.3,8.2c-5.9,0.9-12.1,1.7-18.1,3.2c-15.8,3.9-31.2,11.5-46,18.9
			c-29.7,14.8-55.4,27.5-79.6,10.7c-17.7-12.3-16.9-35-14.8-47.5c1.9-11.5,7.1-22.2,12.1-32.4c0.9-1.8,1.7-3.5,2.5-5.3
			c2.5,1,5.1,1.7,7.9,2c-5.1,16.8,2.9,35.1,19.7,43.7l2.3,1.2l2.4-0.9c13.3-4.7,25.5-12.3,36.4-22.6c7-6.6,13.1-13.9,18-21.8
			c1.5,0.2,3,0.3,4.6,0.3c16.8,0,30.5-13.7,30.5-30.5c0-9-4-17.2-10.2-22.7l19.1-38.7l19.3,39.4c-5.8,5.5-9.4,13.4-9.4,22
			c0,16.8,13.7,30.5,30.4,30.5c6.5,0,12.4-2,17.4-5.5C250.4,180,251.7,187.9,250.4,195.7L250.4,195.7z"/>
	</g>
</g>
</svg>
