<?xml version="1.0" encoding="utf-8"?>
<!-- Generator: Adobe Illustrator 24.2.0, SVG Export Plug-In . SVG Version: 6.00 Build 0)  -->
<svg version="1.1" id="Ebene_1" xmlns="http://www.w3.org/2000/svg" xmlns:xlink="http://www.w3.org/1999/xlink" x="0px" y="0px"
	 viewBox="0 0 300 300" style="enable-background:new 0 0 300 300;" xml:space="preserve">
<style type="text/css">
	.st0{fill:#252F3E;}
	.st1{fill:#FF9900;}
	.st2{display:none;}
	.st3{display:inline;}
	.st4{fill:url(#SVGID_1_);}
	.st5{fill:url(#SVGID_2_);}
</style>
<g id="Layer_3">
	<g>
		<path class="st0" d="M90.2,132.7c0,3.4,0.4,6.1,1,8.1c0.7,2,1.6,4.2,2.9,6.6c0.5,0.7,0.6,1.5,0.6,2.1c0,0.9-0.5,1.8-1.7,2.7
			l-5.8,3.8c-0.8,0.5-1.6,0.8-2.4,0.8c-0.9,0-1.8-0.5-2.7-1.3c-1.3-1.4-2.4-2.8-3.3-4.3c-0.9-1.6-1.8-3.3-2.8-5.4
			c-7.1,8.4-16.1,12.6-26.8,12.6c-7.7,0-13.8-2.2-18.3-6.6s-6.8-10.2-6.8-17.5c0-7.8,2.7-14.1,8.3-18.8s13-7.1,22.3-7.1
			c3.1,0,6.3,0.3,9.7,0.7c3.4,0.5,6.8,1.2,10.5,2v-6.7c0-6.9-1.5-11.8-4.3-14.6c-2.9-2.8-7.9-4.2-14.9-4.2c-3.2,0-6.5,0.4-9.9,1.2
			c-3.4,0.8-6.7,1.8-9.9,3.1c-1.5,0.6-2.6,1-3.2,1.2c-0.6,0.2-1.1,0.3-1.5,0.3c-1.3,0-1.9-0.9-1.9-2.8v-4.5c0-1.5,0.2-2.6,0.6-3.2
			c0.5-0.6,1.3-1.3,2.6-1.9c3.2-1.6,7-3,11.5-4.1c4.5-1.2,9.2-1.7,14.2-1.7c10.9,0,18.8,2.5,23.8,7.4c5,4.9,7.6,12.4,7.6,22.4v29.5
			h0.3V132.7z M53.2,146.5c3,0,6.1-0.5,9.4-1.6s6.2-3.1,8.7-5.8c1.5-1.7,2.6-3.7,3.1-5.8c0.5-2.2,0.9-4.8,0.9-7.9v-3.8
			c-2.6-0.6-5.5-1.2-8.4-1.6c-2.9-0.4-5.8-0.5-8.6-0.5c-6.1,0-10.6,1.2-13.6,3.7s-4.5,5.9-4.5,10.5c0,4.3,1.1,7.5,3.4,9.7
			C45.9,145.4,49,146.5,53.2,146.5z M126.4,156.4c-1.6,0-2.7-0.3-3.5-0.9c-0.7-0.5-1.4-1.8-1.9-3.6L99.6,81.5
			c-0.5-1.8-0.8-3-0.8-3.7c0-1.5,0.7-2.3,2.2-2.3h8.9c1.7,0,2.9,0.3,3.6,0.9c0.7,0.5,1.3,1.8,1.8,3.6l15.3,60.4L144.9,80
			c0.5-1.8,1-3,1.7-3.6c0.7-0.5,2-0.9,3.7-0.9h7.3c1.7,0,2.9,0.3,3.7,0.9c0.7,0.5,1.4,1.8,1.7,3.6l14.4,61.1L193.2,80
			c0.5-1.8,1.2-3,1.8-3.6c0.7-0.5,1.9-0.9,3.6-0.9h8.5c1.5,0,2.3,0.7,2.3,2.3c0,0.5-0.1,0.9-0.2,1.5s-0.3,1.3-0.6,2.3L186.6,152
			c-0.5,1.8-1.2,3-1.9,3.6c-0.7,0.5-1.9,0.9-3.5,0.9h-7.9c-1.7,0-2.9-0.3-3.7-0.9c-0.7-0.6-1.4-1.8-1.7-3.7l-14.3-58.7l-14.1,58.7
			c-0.5,1.8-1,3-1.7,3.7c-0.7,0.6-2,0.9-3.7,0.9L126.4,156.4L126.4,156.4L126.4,156.4z M243.5,158.8c-4.7,0-9.5-0.5-14.1-1.6
			c-4.6-1.1-8.1-2.3-10.5-3.7c-1.5-0.8-2.5-1.7-2.8-2.6c-0.4-0.8-0.5-1.7-0.5-2.6v-4.7c0-1.9,0.7-2.8,2.1-2.8c0.5,0,1.1,0.1,1.6,0.3
			c0.5,0.2,1.4,0.5,2.3,0.9c3.1,1.4,6.5,2.5,10,3.2c3.7,0.7,7.2,1.1,10.9,1.1c5.8,0,10.2-1,13.3-3c3.1-2,4.7-4.9,4.7-8.7
			c0-2.6-0.8-4.7-2.5-6.4c-1.6-1.7-4.7-3.3-9.2-4.7l-13.2-4.1c-6.7-2.1-11.6-5.2-14.6-9.3c-3-4-4.6-8.5-4.6-13.2
			c0-3.8,0.8-7.2,2.5-10.1c1.6-2.9,3.8-5.5,6.6-7.5c2.7-2.1,5.8-3.7,9.5-4.7s7.5-1.6,11.5-1.6c2,0,4.1,0.1,6.1,0.4
			c2.1,0.3,4,0.6,5.9,1c1.8,0.5,3.6,0.9,5.2,1.5c1.6,0.5,2.9,1.1,3.8,1.6c1.3,0.7,2.2,1.5,2.7,2.3c0.5,0.7,0.8,1.7,0.8,3v4.3
			c0,1.9-0.7,2.9-2.1,2.9c-0.7,0-1.9-0.4-3.5-1.1c-5.2-2.4-11-3.6-17.5-3.6c-5.2,0-9.3,0.8-12.1,2.6c-2.8,1.7-4.3,4.4-4.3,8.1
			c0,2.6,0.9,4.7,2.7,6.5s5.2,3.5,10,5l13,4.1c6.6,2.1,11.3,5,14.2,8.8c2.8,3.7,4.2,8,4.2,12.8c0,3.9-0.8,7.5-2.4,10.6
			c-1.6,3.1-3.8,5.8-6.7,8c-2.8,2.3-6.2,3.9-10.1,5.1C252.4,158.2,248.2,158.8,243.5,158.8z"/>
		<path class="st1" d="M260.7,203.1c-30,22.1-73.5,33.9-110.9,33.9c-52.5,0-99.8-19.4-135.5-51.7c-2.8-2.6-0.3-6,3.1-4
			c38.6,22.4,86.3,36,135.6,36c33.2,0,69.8-6.9,103.4-21.1C261.3,193.9,265.6,199.5,260.7,203.1z M273.2,188.9
			c-3.8-4.9-25.3-2.4-35.1-1.2c-2.9,0.4-3.4-2.2-0.7-4.1c17.2-12.1,45.3-8.6,48.6-4.6c3.3,4.1-0.9,32.2-17,45.7
			c-2.5,2.1-4.8,1-3.7-1.7C268.9,214.1,277,193.7,273.2,188.9z"/>
	</g>
</g>
<g id="Layer_4" class="st2">
	<g class="st3">
		
			<linearGradient id="SVGID_1_" gradientUnits="userSpaceOnUse" x1="422.3194" y1="636.1535" x2="421.7143" y2="635.4589" gradientTransform="matrix(244.8024 0 0 122.5174 -103128.4062 -77661.6406)">
			<stop  offset="0.18" style="stop-color:#0052CC"/>
			<stop  offset="1" style="stop-color:#2684FF"/>
		</linearGradient>
		<path class="st4" d="M40.2,209.9c-2.4,4-5.2,8.6-7.5,12.3c-2.1,3.5-0.9,8.1,2.5,10.3l48.9,30.1c1.8,1,3.8,1.4,5.8,0.9
			s3.6-1.8,4.6-3.4c2-3.2,4.5-7.5,7.2-12c19.3-31.9,39-28.1,74-11.3l48.5,23c1.9,0.9,4,0.9,5.9,0.3c1.9-0.7,3.4-2.1,4.3-4l23.3-52.7
			c1.7-3.8,0-8.2-3.8-9.9c-10.3-4.8-30.6-14.5-48.9-23.2C139.3,138.1,83.2,140,40.2,209.9z"/>
		
			<linearGradient id="SVGID_2_" gradientUnits="userSpaceOnUse" x1="421.4078" y1="635.0622" x2="422.0125" y2="635.7563" gradientTransform="matrix(244.9649 0 0 122.6781 -103186.7344 -77886.2344)">
			<stop  offset="0.18" style="stop-color:#0052CC"/>
			<stop  offset="1" style="stop-color:#2684FF"/>
		</linearGradient>
		<path class="st5" d="M259.8,90.2c2.4-4,5.2-8.6,7.5-12.3c2.1-3.5,0.9-8.1-2.5-10.3l-48.9-30c-1.8-1.2-3.9-1.6-6-1.1
			s-3.8,1.8-4.8,3.6c-2,3.2-4.5,7.5-7.2,12c-19.3,31.9-39,28.1-74,11.3l-48.3-23c-1.9-0.9-4-0.9-5.9-0.3c-1.9,0.7-3.4,2.1-4.3,4
			L42,97c-1.7,3.8,0,8.2,3.8,9.9c10.3,4.8,30.6,14.5,48.9,23.2C160.7,162.1,216.8,159.9,259.8,90.2z"/>
	</g>
</g>
<g id="Layer_2">
</g>
</svg>
