<?xml version="1.0" encoding="utf-8"?>
<!-- Generator: Adobe Illustrator 24.2.0, SVG Export Plug-In . SVG Version: 6.00 Build 0)  -->
<svg version="1.1" id="Ebene_1" xmlns="http://www.w3.org/2000/svg" xmlns:xlink="http://www.w3.org/1999/xlink" x="0px" y="0px"
	 viewBox="0 0 300 300" style="enable-background:new 0 0 300 300;" xml:space="preserve">
<style type="text/css">
	.st0{display:none;}
	.st1{display:inline;}
	.st2{fill:#252F3E;}
	.st3{fill:#FF9900;}
	.st4{fill:#009CDA;}
</style>
<g id="Layer_3" class="st0">
	<g class="st1">
		<path class="st2" d="M84.5,130.6c0,3.7,0.4,6.7,1.1,8.9c0.8,2.2,1.8,4.6,3.2,7.2c0.5,0.8,0.7,1.6,0.7,2.3c0,1-0.6,2-1.9,3
			l-6.3,4.2c-0.9,0.6-1.8,0.9-2.6,0.9c-1,0-2-0.5-3-1.4c-1.4-1.5-2.6-3.1-3.6-4.7c-1-1.7-2-3.6-3.1-5.9
			c-7.8,9.2-17.6,13.8-29.3,13.8c-8.4,0-15.1-2.4-20-7.2s-7.4-11.2-7.4-19.2c0-8.5,3-15.4,9.1-20.6s14.2-7.8,24.4-7.8
			c3.4,0,6.9,0.3,10.6,0.8c3.7,0.5,7.5,1.3,11.5,2.2v-7.3c0-7.6-1.6-12.9-4.7-16c-3.2-3.1-8.6-4.6-16.3-4.6c-3.5,0-7.1,0.4-10.8,1.3
			s-7.3,2-10.8,3.4c-1.6,0.7-2.8,1.1-3.5,1.3c-0.7,0.2-1.2,0.3-1.6,0.3c-1.4,0-2.1-1-2.1-3.1v-4.9c0-1.6,0.2-2.8,0.7-3.5
			s1.4-1.4,2.8-2.1c3.5-1.8,7.7-3.3,12.6-4.5c4.9-1.3,10.1-1.9,15.6-1.9c11.9,0,20.6,2.7,26.1,8.1s8.3,13.6,8.3,24.5v32.3h0.3V130.6
			z M44,145.7c3.3,0,6.7-0.6,10.3-1.8s6.8-3.4,9.5-6.4c1.6-1.9,2.8-4,3.4-6.4s1-5.3,1-8.7v-4.2c-2.9-0.7-6-1.3-9.2-1.7
			s-6.3-0.6-9.4-0.6c-6.7,0-11.6,1.3-14.9,4s-4.9,6.5-4.9,11.5c0,4.7,1.2,8.2,3.7,10.6C36,144.5,39.4,145.7,44,145.7z M124.2,156.5
			c-1.8,0-3-0.3-3.8-1c-0.8-0.6-1.5-2-2.1-3.9L94.8,74.5c-0.6-2-0.9-3.3-0.9-4c0-1.6,0.8-2.5,2.4-2.5h9.8c1.9,0,3.2,0.3,3.9,1
			c0.8,0.6,1.4,2,2,3.9l16.8,66.1l15.6-66.1c0.5-2,1.1-3.3,1.9-3.9c0.8-0.6,2.2-1,4-1h8c1.9,0,3.2,0.3,4,1c0.8,0.6,1.5,2,1.9,3.9
			l15.8,66.9l17.3-66.9c0.6-2,1.3-3.3,2-3.9c0.8-0.6,2.1-1,3.9-1h9.3c1.6,0,2.5,0.8,2.5,2.5c0,0.5-0.1,1-0.2,1.6
			c-0.1,0.6-0.3,1.4-0.7,2.5l-24,77.1c-0.6,2-1.3,3.3-2.1,3.9c-0.8,0.6-2.1,1-3.8,1h-8.6c-1.9,0-3.2-0.3-4-1s-1.5-2-1.9-4L154,87.3
			l-15.4,64.3c-0.5,2-1.1,3.3-1.9,4c-0.8,0.7-2.2,1-4,1h-8.5L124.2,156.5L124.2,156.5z M252.4,159.2c-5.2,0-10.4-0.6-15.4-1.8
			s-8.9-2.5-11.5-4c-1.6-0.9-2.7-1.9-3.1-2.8c-0.4-0.9-0.6-1.9-0.6-2.8v-5.1c0-2.1,0.8-3.1,2.3-3.1c0.6,0,1.2,0.1,1.8,0.3
			s1.5,0.6,2.5,1c3.4,1.5,7.1,2.7,11,3.5c4,0.8,7.9,1.2,11.9,1.2c6.3,0,11.2-1.1,14.6-3.3s5.2-5.4,5.2-9.5c0-2.8-0.9-5.1-2.7-7
			c-1.8-1.9-5.2-3.6-10.1-5.2l-14.5-4.5c-7.3-2.3-12.7-5.7-16-10.2c-3.3-4.4-5-9.3-5-14.5c0-4.2,0.9-7.9,2.7-11.1s4.2-6,7.2-8.2
			c3-2.3,6.4-4,10.4-5.2s8.2-1.7,12.6-1.7c2.2,0,4.5,0.1,6.7,0.4c2.3,0.3,4.4,0.7,6.5,1.1c2,0.5,3.9,1,5.7,1.6
			c1.8,0.6,3.2,1.2,4.2,1.8c1.4,0.8,2.4,1.6,3,2.5c0.6,0.8,0.9,1.9,0.9,3.3v4.7c0,2.1-0.8,3.2-2.3,3.2c-0.8,0-2.1-0.4-3.8-1.2
			c-5.7-2.6-12.1-3.9-19.2-3.9c-5.7,0-10.2,0.9-13.3,2.8s-4.7,4.8-4.7,8.9c0,2.8,1,5.2,3,7.1s5.7,3.8,11,5.5l14.2,4.5
			c7.2,2.3,12.4,5.5,15.5,9.6s4.6,8.8,4.6,14c0,4.3-0.9,8.2-2.6,11.6c-1.8,3.4-4.2,6.4-7.3,8.8c-3.1,2.5-6.8,4.3-11.1,5.6
			C262.1,158.5,257.5,159.2,252.4,159.2z"/>
		<path class="st3" d="M271.2,207.7c-32.8,24.2-80.5,37.1-121.5,37.1c-57.5,0-109.3-21.3-148.4-56.6c-3.1-2.8-0.3-6.6,3.4-4.4
			c42.3,24.5,94.5,39.4,148.5,39.4c36.4,0,76.4-7.6,113.2-23.1C271.9,197.6,276.6,203.7,271.2,207.7z M284.9,192.1
			c-4.2-5.4-27.7-2.6-38.4-1.3c-3.2,0.4-3.7-2.4-0.8-4.5c18.8-13.2,49.6-9.4,53.2-5c3.6,4.5-1,35.3-18.6,50.1
			c-2.7,2.3-5.3,1.1-4.1-1.9C280.2,219.7,289.1,197.4,284.9,192.1z"/>
	</g>
</g>
<g id="Layer_4">
	<g>
		<rect x="131.1" y="43.2" class="st4" width="29.6" height="29.6"/>
		<rect x="131.1" y="80.4" class="st4" width="29.6" height="29.6"/>
		<rect x="131.1" y="117.7" class="st4" width="29.6" height="29.6"/>
		<rect x="95.2" y="80.4" class="st4" width="29.6" height="29.6"/>
		<rect x="95.2" y="117.7" class="st4" width="29.6" height="29.6"/>
		<rect x="59.1" y="80.4" class="st4" width="29.6" height="29.6"/>
		<rect x="59.1" y="117.7" class="st4" width="29.6" height="29.6"/>
		<rect x="23.7" y="117.7" class="st4" width="29.6" height="29.6"/>
		<rect x="167.1" y="117.7" class="st4" width="29.6" height="29.6"/>
		<path class="st4" d="M103.8,252.8c-109.1,0-96.4-96-96.4-96s151.4,0,182.1,0s40.9-9.7,40.9-9.7s-17.4-22.4,3-49.5
			c22.9,13.2,22,32.6,22,32.6s23.3-7.6,37.7,5.5c-8,26.2-43.6,24.5-43.6,24.5S216.4,252.8,103.8,252.8z"/>
	</g>
</g>
<g id="Layer_2">
</g>
</svg>
