<?xml version="1.0" encoding="utf-8"?>
<!-- Generator: Adobe Illustrator 24.2.0, SVG Export Plug-In . SVG Version: 6.00 Build 0)  -->
<svg version="1.1" id="Layer_1" xmlns="http://www.w3.org/2000/svg" xmlns:xlink="http://www.w3.org/1999/xlink" x="0px" y="0px"
	 viewBox="0 0 300 300" style="enable-background:new 0 0 300 300;" xml:space="preserve">
<style type="text/css">
	.st0{display:none;}
	.st1{display:inline;fill:url(#SVGID_1_);}
	.st2{display:inline;fill:#31C5F0;}
	.st3{fill:#0ACF83;}
	.st4{fill:#A259FF;}
	.st5{fill:#F24E1E;}
	.st6{fill:#FF7262;}
	.st7{fill:#1ABCFE;}
</style>
<g id="Layer_3" class="st0">
	
		<radialGradient id="SVGID_1_" cx="-957.4379" cy="-542.533" r="0.3038" gradientTransform="matrix(545.6736 0 0 528.3113 522561.3438 286717.7812)" gradientUnits="userSpaceOnUse">
		<stop  offset="0" style="stop-color:#34364E;stop-opacity:0.98"/>
		<stop  offset="1" style="stop-color:#0C0824"/>
	</radialGradient>
	<path class="st1" d="M40.9,43.9H259v212.2H40.9V43.9z"/>
	<path class="st2" d="M40.9,43.9H259v212.2H40.9V43.9z M31,266h237.9V34H31V266z M191.4,129.2c-7.8,0-10.5,4-10.5,7.2
		c0,3.6,1.8,6.1,12.3,11.5c15.5,7.5,20.4,14.8,20.4,25.4c0,15.9-12.1,24.4-28.5,24.4c-8.6,0-16.1-1.8-20.3-4.2
		c-0.7-0.3-0.8-0.8-0.8-1.6v-14.6c0-1,0.5-1.3,1.2-0.8c6.2,4.1,13.4,5.9,19.9,5.9c7.8,0,11.1-3.3,11.1-7.7c0-3.6-2.3-6.7-12.3-11.9
		c-14.1-6.7-19.9-13.5-19.9-25c0-12.8,10-23.4,27.4-23.4c8.5,0,14.5,1.3,17.7,2.8c0.8,0.5,1,1.3,1,2v13.6c0,0.8-0.5,1.3-1.5,1
		C204.3,130.9,197.9,129.2,191.4,129.2L191.4,129.2z M106.2,141c2.3,0.2,4.1,0.2,8,0.2c11.6,0,22.5-4.1,22.5-19.8
		c0-12.6-7.8-18.9-21-18.9c-4,0-7.7,0.2-9.5,0.3V141L106.2,141z M88.5,88.4c0-0.7,1.4-1.2,2.2-1.2c6.3-0.3,15.8-0.5,25.6-0.5
		c27.5,0,38.2,15.1,38.2,34.3c0,25.2-18.3,36-40.7,36c-3.8,0-5.1-0.2-7.7-0.2v38c0,0.8-0.3,1.2-1.2,1.2H89.7c-0.8,0-1.2-0.3-1.2-1.2
		V88.4L88.5,88.4z"/>
</g>
<g id="Layer_2_1_">
	<path id="path0_fill" class="st3" d="M111.2,266.5c21.5,0,38.8-17.4,38.8-38.8v-38.8h-38.8c-21.5,0-38.8,17.4-38.8,38.8
		S89.7,266.5,111.2,266.5z"/>
	<path id="path1_fill" class="st4" d="M72.3,150c0-21.5,17.4-38.8,38.8-38.8h38.8v77.6h-38.8C89.7,188.8,72.3,171.5,72.3,150z"/>
	<path id="path1_fill_1_" class="st5" d="M72.3,72.3c0-21.5,17.4-38.8,38.8-38.8h38.8v77.7h-38.8C89.7,111.2,72.3,93.8,72.3,72.3z"
		/>
	<path id="path2_fill" class="st6" d="M150,33.5h38.8c21.5,0,38.8,17.4,38.8,38.8s-17.4,38.8-38.8,38.8H150V33.5z"/>
	<path id="path3_fill" class="st7" d="M227.7,150c0,21.5-17.4,38.8-38.8,38.8s-38.8-17.4-38.8-38.8s17.4-38.8,38.8-38.8
		S227.7,128.5,227.7,150z"/>
</g>
</svg>
