<?xml version="1.0" encoding="utf-8"?>
<!-- Generator: Adobe Illustrator 24.2.0, SVG Export Plug-In . SVG Version: 6.00 Build 0)  -->
<svg version="1.1" id="Ebene_2" xmlns="http://www.w3.org/2000/svg" xmlns:xlink="http://www.w3.org/1999/xlink" x="0px" y="0px"
	 viewBox="0 0 300 300" style="enable-background:new 0 0 300 300;" xml:space="preserve">
<style type="text/css">
	.st0{fill:#E24329;}
	.st1{fill:#FC6D26;}
	.st2{fill:#FCA326;}
</style>
<g>
	<path class="st0" d="M150,258.5L150,258.5L193.4,125h-86.7L150,258.5L150,258.5z"/>
	<path class="st1" d="M150,258.5L106.6,125H45.9L150,258.5L150,258.5z"/>
	<path class="st2" d="M45.9,125L45.9,125l-13.2,40.6c-1.2,3.7,0.1,7.8,3.3,10L150,258.5L45.9,125L45.9,125z"/>
	<path class="st0" d="M45.9,125h60.8L80.5,44.6c-1.3-4.1-7.2-4.1-8.5,0L45.9,125L45.9,125z"/>
	<path class="st1" d="M150,258.5L193.4,125h60.8L150,258.5L150,258.5z"/>
	<path class="st2" d="M254.1,125L254.1,125l13.2,40.6c1.2,3.7-0.1,7.8-3.3,10L150,258.5L254.1,125L254.1,125z"/>
	<path class="st0" d="M254.1,125h-60.8l26.1-80.4c1.3-4.1,7.2-4.1,8.5,0L254.1,125L254.1,125z"/>
</g>
</svg>
