<?xml version="1.0" encoding="utf-8"?>
<!-- Generator: Adobe Illustrator 24.2.0, SVG Export Plug-In . SVG Version: 6.00 Build 0)  -->
<svg version="1.1" id="Ebene_2" xmlns="http://www.w3.org/2000/svg" xmlns:xlink="http://www.w3.org/1999/xlink" x="0px" y="0px"
	 viewBox="0 0 300 300" style="enable-background:new 0 0 300 300;" xml:space="preserve">
<style type="text/css">
	.st0{fill-rule:evenodd;clip-rule:evenodd;fill:#E535AB;}
</style>
<g>
	<path class="st0" d="M172.3,49.3l53.7,31c1.5-1.6,3.3-3,5.3-4.2c11.1-6.4,25.3-2.6,31.8,8.5c6.4,11.1,2.6,25.3-8.5,31.8
		c-2,1.1-4.1,2-6.2,2.5v62c2.1,0.5,4.2,1.3,6.1,2.5c11.2,6.5,15,20.7,8.5,31.8c-6.4,11.1-20.7,14.9-31.8,8.5
		c-2.2-1.3-4.1-2.9-5.8-4.7l-53.3,30.8c0.8,2.3,1.2,4.8,1.2,7.3c0,12.8-10.4,23.3-23.3,23.3s-23.3-10.4-23.3-23.3
		c0-2.3,0.3-4.5,0.9-6.6l-53.6-31c-1.5,1.6-3.2,3-5.2,4.1c-11.2,6.4-25.4,2.6-31.8-8.5s-2.6-25.3,8.5-31.8c2-1.1,4-1.9,6.1-2.5v-62
		c-2.1-0.5-4.2-1.3-6.2-2.5C34.4,110,30.6,95.8,37,84.6s20.7-14.9,31.8-8.5c2,1.2,3.7,2.6,5.3,4.2l53.7-31c-0.6-2.1-1-4.3-1-6.6
		c0-12.9,10.4-23.3,23.3-23.3s23.3,10.4,23.3,23.3C173.3,45,172.9,47.2,172.3,49.3z M166.7,58.9l53.8,31.1c-1.7,5.8-1.1,12.3,2.2,18
		c3.3,5.7,8.6,9.5,14.5,10.9v62.1c-0.3,0.1-0.6,0.2-0.9,0.2L166.1,59.5C166.3,59.3,166.5,59.1,166.7,58.9z M133.9,59.5L63.7,181.2
		c-0.3-0.1-0.6-0.2-0.9-0.2v-62.1c5.9-1.5,11.3-5.2,14.5-10.9c3.3-5.7,3.9-12.2,2.2-18l53.8-31C133.5,59.1,133.7,59.3,133.9,59.5z
		 M156.5,65l70.2,121.6c-1.6,1.5-3,3.2-4.1,5.2c-1.1,2-1.9,4-2.5,6.1H79.8c-0.5-2.1-1.3-4.2-2.5-6.1c-1.1-2-2.5-3.7-4.1-5.2
		L143.5,65c2.1,0.6,4.2,0.9,6.5,0.9C152.3,65.9,154.4,65.6,156.5,65z M167.2,241.4l53.4-30.9c-0.2-0.5-0.3-1-0.4-1.5H79.8
		c-0.1,0.3-0.2,0.6-0.2,0.9l53.7,31c4.2-4.4,10.2-7.1,16.8-7.1C156.8,233.9,162.9,236.8,167.2,241.4z"/>
</g>
</svg>
