<?xml version="1.0" encoding="utf-8"?>
<!-- Generator: Adobe Illustrator 24.2.0, SVG Export Plug-In . SVG Version: 6.00 Build 0)  -->
<svg version="1.1" id="Ebene_2" xmlns="http://www.w3.org/2000/svg" xmlns:xlink="http://www.w3.org/1999/xlink" x="0px" y="0px"
	 viewBox="0 0 300 300" style="enable-background:new 0 0 300 300;" xml:space="preserve">
<style type="text/css">
	.st0{fill:#330000;}
	.st1{fill:#FF9A00;}
</style>
<g id="Layer_2_4_">
	<g id="Surfaces_3_">
		<g id="Drawing_Surface">
			<g id="Outline_no_shadow_4_">
				<path class="st0" d="M79.6,43.7h140.8c21.3,0,38.6,17.3,38.6,38.6v135.3c0,21.3-17.3,38.6-38.6,38.6H79.6
					C58.3,256.3,41,239,41,217.7V82.3C41,61,58.3,43.7,79.6,43.7z"/>
			</g>
		</g>
	</g>
	<g id="Outlined_Mnemonics_Logos_3_">
		<g id="Ai">
			<path class="st1" d="M146.6,171.3h-33.8l-6.9,21.4c-0.2,0.8-0.9,1.4-1.8,1.3H87.1c-1,0-1.3-0.5-1-1.6l29.2-84.2
				c0.3-0.9,0.6-1.9,0.9-3c0.4-2,0.6-3.9,0.6-5.9c-0.1-0.5,0.3-1,0.8-1c0.1,0,0.2,0,0.3,0h23.3c0.7,0,1.1,0.2,1.2,0.7l33.2,93.6
				c0.3,1,0,1.5-0.9,1.5h-19c-0.7,0.1-1.3-0.4-1.5-1L146.6,171.3z M118.1,152.9h23.1c-0.6-1.9-1.3-4.1-2-6.6c-0.8-2.4-1.6-5-2.5-7.8
				c-0.9-2.8-1.8-5.6-2.6-8.3c-0.9-2.8-1.7-5.5-2.4-8c-0.7-2.6-1.4-4.9-2-7.1h-0.1c-0.8,3.9-1.8,7.9-3.1,11.7
				c-1.4,4.4-2.8,8.9-4.2,13.5C120.9,144.7,119.5,149,118.1,152.9L118.1,152.9z"/>
			<path class="st1" d="M195.2,113.7c-3,0.1-5.9-1-8-3.2c-2.1-2.3-3.2-5.3-3.1-8.3c-0.1-3.1,1.1-6,3.3-8.1c2.2-2.1,5.1-3.2,8.1-3.1
				c3.5,0,6.3,1,8.3,3.1c2,2.2,3.1,5.1,3,8.1c0.1,3.1-1,6.1-3.1,8.3C201.4,112.6,198.3,113.8,195.2,113.7z M185.1,192.5v-69.9
				c0-0.9,0.4-1.3,1.2-1.3h18c0.8,0,1.2,0.4,1.2,1.3v69.9c0,1-0.4,1.5-1.2,1.5h-17.8C185.5,193.9,185.1,193.5,185.1,192.5z"/>
		</g>
	</g>
</g>
</svg>
