<?xml version="1.0" encoding="utf-8"?>
<!-- Generator: Adobe Illustrator 24.2.0, SVG Export Plug-In . SVG Version: 6.00 Build 0)  -->
<svg version="1.1" id="Ebene_1" xmlns="http://www.w3.org/2000/svg" xmlns:xlink="http://www.w3.org/1999/xlink" x="0px" y="0px"
	 viewBox="0 0 300 300" style="enable-background:new 0 0 300 300;" xml:space="preserve">
<style type="text/css">
	.st0{display:none;}
	.st1{display:inline;fill:#E23237;}
	.st2{display:inline;fill:#B52E31;}
	.st3{display:inline;fill:#FFFFFF;}
	.st4{fill:#C63D14;}
	.st5{fill:#FFFFFF;}
</style>
<g id="Layer_1" class="st0">
	<path class="st1" d="M24.3,59.9l124.1-44.2l127.4,43.4l-20.6,164.1l-106.8,59.2L43.2,224L24.3,59.9z"/>
	<path class="st2" d="M275.7,59.1L148.3,15.7v266.7l106.8-59.1L275.7,59.1z"/>
	<path class="st3" d="M148.5,46.8l-77.3,172l28.9-0.5l15.5-38.8h33h0.1H185l17,39.2l27.6,0.5L148.5,46.8z M148.7,102l26.1,54.6h-25
		h-1.3h-22.8L148.7,102z"/>
</g>
<g id="Ebene_2_1_">
	<g>
		<path class="st4" d="M246,148.1c0-12.4-10.1-22.6-22.6-22.6c-0.8,0-1.6,0-2.4,0.1l31-91.3H120.4l31,91.3c-0.5,0-0.9,0-1.4,0
			c-12.4,0-22.6,10.1-22.6,22.6c0,10,6.6,18.6,15.7,21.5c-4.8,8.3-10.9,15.9-17.7,22.3c-9.3,8.8-20,15.5-31.6,19.6
			c-13.7-7.1-20.3-22.8-14.4-36.6c0.6-1.6,1.4-3.1,2-4.7c10-2.3,17.4-11.2,17.4-21.9c0-12.4-10.1-22.6-22.6-22.6
			S53.7,136,53.7,148.4c0,7.7,3.8,14.4,9.6,18.4c-5.6,12.7-13.8,26-16.3,41.5c-3,18.4,0,38.1,15.9,49.1
			c37.2,25.8,77.6-16,120.2-26.5c15.4-3.8,32.4-3.2,46-11.1c10.2-5.9,17-15.8,18.9-26.7c1.8-10.9-0.8-21.7-7.2-30.5
			C244,158.7,246,153.7,246,148.1L246,148.1z M172.5,148.2C172.5,148.1,172.5,148.1,172.5,148.2c0-8.3-4.3-15.4-10.9-19.4l24.6-49.8
			l24.7,50.3c-6.1,4.1-10,11-10,18.8c0,0.2,0,0.4,0,0.5L172.5,148.2L172.5,148.2z"/>
		<path class="st5" d="M251.5,148.1c0-13.7-9.9-25.2-22.9-27.6l31.1-91.8h-147l31.2,91.9c-12.5,2.8-21.9,14-21.9,27.4
			c0,10,5.3,18.9,13.3,23.9c-3.9,5.7-8.4,11.1-13.5,15.9c-8.2,7.7-17.4,13.6-27.4,17.6c-10-6.3-14.2-18.1-9.9-28.4l0.4-0.8
			c0.2-0.5,0.5-1,0.6-1.5c11-3.8,18.9-14.3,18.9-26.5c0-15.5-12.6-28-28.1-28s-28,12.6-28,28c0,7.8,3.2,14.8,8.4,20
			c-0.9,2-1.9,4.1-2.9,6.1c-4.7,9.7-10,20.7-12.1,32.9c-4.1,24.2,2.5,43.7,18.3,54.6c9.6,6.6,19.4,9.2,29.1,9.2
			c18.4,0,37.1-9.3,55.4-18.3c13.2-6.5,26.7-13.3,40.2-16.6c5-1.2,10.1-1.9,15.6-2.8c10.8-1.6,21.9-3.1,31.9-8.8
			c11.4-6.6,19.3-17.8,21.6-30.5c1.9-11-0.4-21.9-6-31.2C250,158.5,251.5,153.5,251.5,148.1L251.5,148.1z M240.5,148.1
			c0,9.4-7.7,17.1-17.1,17.1c-9.4,0-17.1-7.7-17.1-17.1s7.7-17.1,17.1-17.1C232.9,131.1,240.5,138.7,240.5,148.1L240.5,148.1z
			 M244.4,39.8l-27.5,81c-1.2,0.3-2.4,0.6-3.5,1.1l-27.1-55.4l-27.2,55c-1.2-0.4-2.4-0.7-3.6-1l-27.4-80.7H244.4L244.4,39.8z
			 M149.9,131.1c9.4,0,17.1,7.7,17.1,17.1s-7.7,17.1-17.1,17.1c-9.4,0-17.1-7.7-17.1-17.1S140.5,131.1,149.9,131.1L149.9,131.1z
			 M76.2,131.3c9.4,0,17.1,7.7,17.1,17.1c0,9.4-7.7,17.1-17.1,17.1s-17.1-7.7-17.1-17.1C59.1,138.9,66.8,131.3,76.2,131.3
			L76.2,131.3z M242.5,192.1c-1.7,9.6-7.6,17.9-16.2,22.9c-8,4.7-17.7,6.1-27.9,7.6c-5.4,0.8-11.2,1.6-16.7,2.9
			c-14.6,3.6-28.8,10.6-42.4,17.4c-27.4,13.6-51.1,25.3-73.4,9.9c-16.3-11.3-15.6-32.3-13.6-43.8c1.8-10.6,6.5-20.5,11.2-29.9
			c0.8-1.7,1.6-3.2,2.3-4.9c2.3,0.9,4.7,1.6,7.3,1.8c-4.7,15.5,2.7,32.4,18.2,40.3l2.1,1.1l2.2-0.8c12.3-4.3,23.5-11.3,33.6-20.8
			c6.5-6.1,12.1-12.8,16.6-20.1c1.4,0.2,2.8,0.3,4.2,0.3c15.5,0,28.1-12.6,28.1-28.1c0-8.3-3.7-15.9-9.4-20.9l17.6-35.7l17.8,36.3
			c-5.3,5.1-8.7,12.4-8.7,20.3c0,15.5,12.6,28.1,28,28.1c6,0,11.4-1.8,16-5.1C242.5,177.6,243.7,184.9,242.5,192.1L242.5,192.1z"/>
	</g>
</g>
</svg>
