<?xml version="1.0" encoding="utf-8"?>
<!-- Generator: Adobe Illustrator 24.2.0, SVG Export Plug-In . SVG Version: 6.00 Build 0)  -->
<svg version="1.1" id="Ebene_1" xmlns="http://www.w3.org/2000/svg" xmlns:xlink="http://www.w3.org/1999/xlink" x="0px" y="0px"
	 viewBox="0 0 300 300" style="enable-background:new 0 0 300 300;" xml:space="preserve">
<style type="text/css">
	.st0{display:none;}
	.st1{display:inline;}
	.st2{fill:#E23237;}
	.st3{fill:#B52E31;}
	.st4{fill:#FFFFFF;}
	.st5{fill:#539E43;}
</style>
<g id="Layer_1" class="st0">
	<g class="st1">
		<path class="st2" d="M22.1,59.5l125.8-44.8l129.2,44l-20.9,166.4l-108.3,60L41.3,226L22.1,59.5z"/>
		<path class="st3" d="M277.1,58.7l-129.2-44v270.4l108.3-59.9L277.1,58.7L277.1,58.7z"/>
		<path class="st4" d="M148.1,46.3L148.1,46.3L69.7,220.7l29.3-0.5l15.7-39.3h33.5h0.1h36.8l17.2,39.8l28,0.5L148.1,46.3L148.1,46.3
			z M148.3,102.2l26.5,55.4h-25.4h-1.3H125L148.3,102.2L148.3,102.2z"/>
	</g>
</g>
<g id="Layer_2">
	<g>
		<path class="st5" d="M150,273.3c-3.4,0-6.5-0.9-9.6-2.5L110.3,253c-4.5-2.5-2.3-3.4-0.9-3.9c6.1-2,7.3-2.5,13.6-6.1
			c0.7-0.5,1.6-0.3,2.3,0.3l23.1,13.9c0.9,0.5,2,0.5,2.8,0l90.5-52.4c0.9-0.5,1.3-1.3,1.3-2.5V97.7c0-1.1-0.5-2-1.3-2.5l-90.5-52.1
			c-0.9-0.5-2-0.5-2.8,0L58.1,95.2c-0.9,0.5-1.3,1.6-1.3,2.5v104.5c0,0.9,0.5,2,1.3,2.5L82.9,219c13.3,6.8,21.7-1.1,21.7-9.1V106.8
			c0-1.3,1.1-2.8,2.8-2.8h11.6c1.3,0,2.8,1.1,2.8,2.8V210c0,17.9-9.8,28.3-26.8,28.3c-5.2,0-9.3,0-20.8-5.6L50.3,219
			c-5.9-3.4-9.6-9.8-9.6-16.5V97.9c0-6.8,3.6-13.2,9.6-16.5L140.4,29c5.6-3.2,13.3-3.2,19,0l90.5,52.4c5.9,3.4,9.6,9.8,9.6,16.5
			v104.5c0,6.8-3.6,13.2-9.6,16.5l-90.4,52.3C156.5,272.8,153.2,273.3,150,273.3L150,273.3z M177.9,201.4
			c-39.7,0-47.8-18.1-47.8-33.6c0-1.3,1.1-2.8,2.8-2.8h11.8c1.3,0,2.5,0.9,2.5,2.3c1.8,12,7.1,17.9,31.1,17.9
			c19,0,27.2-4.3,27.2-14.4c0-5.9-2.3-10.2-31.9-13.2c-24.8-2.5-40.1-7.9-40.1-27.6c0-18.4,15.5-29.3,41.2-29.3
			c29.1,0,43.2,9.9,45.1,31.7c0,0.7-0.3,1.3-0.7,2c-0.5,0.5-1.1,0.9-1.8,0.9h-11.8c-1.1,0-2.3-0.9-2.5-2
			c-2.8-12.4-9.8-16.5-28.3-16.5c-20.8,0-23.3,7.3-23.3,12.7c0,6.5,2.9,8.6,31.1,12.2c27.9,3.6,41,8.8,41,28.3
			C223.1,190.2,206.7,201.4,177.9,201.4L177.9,201.4z"/>
	</g>
</g>
</svg>
