<?xml version="1.0" encoding="utf-8"?>
<!-- Generator: Adobe Illustrator 24.2.0, SVG Export Plug-In . SVG Version: 6.00 Build 0)  -->
<svg version="1.1" id="Ebene_2" xmlns="http://www.w3.org/2000/svg" xmlns:xlink="http://www.w3.org/1999/xlink" x="0px" y="0px"
	 viewBox="0 0 300 300" style="enable-background:new 0 0 300 300;" xml:space="preserve">
<style type="text/css">
	.st0{fill:#001E36;}
	.st1{fill:#31A8FF;}
</style>
<g id="Layer_2_7_">
	<g id="Surfaces_7_">
		<g id="Photo_Surface_1_">
			<g id="Outline_no_shadow_8_">
				<path class="st0" d="M79.6,42.8h140.8c21.3,0,38.6,17.3,38.6,38.6v135.3c0,21.3-17.3,38.6-38.6,38.6H79.6
					c-21.3,0-38.6-17.3-38.6-38.6V81.4C41,60.1,58.3,42.8,79.6,42.8z"/>
			</g>
		</g>
	</g>
	<g id="Outlined_Mnemonics_Logos_7_">
		<g id="Ps">
			<path class="st1" d="M90.1,191.9V98.4c0-0.7,0.3-1,0.9-1c1.6,0,3,0,5.1-0.1c2.1,0,4.5-0.1,6.9-0.1c2.5,0,5.1-0.1,7.9-0.1
				c2.8,0,5.5-0.1,8.3-0.1c7.4,0,13.6,0.9,18.7,2.8c4.6,1.5,8.7,4.1,12.2,7.5c2.9,2.9,5.2,6.4,6.7,10.3c1.4,3.8,2.1,7.8,2,11.8
				c0,7.8-1.8,14.2-5.4,19.3c-3.6,5.1-8.7,8.9-14.6,11c-6.1,2.3-13,3.1-20.5,3.1c-2.1,0-3.7,0-4.5-0.1c-0.9,0-2.2-0.1-3.9-0.1v29.2
				c0.1,0.6-0.4,1.2-1,1.3c-0.1,0-0.2,0-0.3,0H91.1C90.4,193,90.1,192.7,90.1,191.9z M109.8,115v30.5c1.3,0.1,2.4,0.1,3.5,0.1h4.8
				c3.6,0,7.1-0.6,10.5-1.7c2.9-0.9,5.5-2.5,7.5-4.8c1.9-2.2,2.9-5.4,2.9-9.4c0.1-2.8-0.7-5.6-2.1-8c-1.5-2.3-3.8-4.2-6.4-5.2
				c-3.4-1.3-7-1.9-10.7-1.8c-2.3,0-4.4,0-6.2,0.1C111.8,114.8,110.5,114.9,109.8,115L109.8,115z"/>
			<path class="st1" d="M215.4,139.9c-2.7-1.4-5.7-2.4-8.7-3.1c-3.3-0.8-6.7-1.2-10.2-1.2c-1.9-0.1-3.7,0.2-5.5,0.7
				c-1.1,0.3-2.1,0.9-2.9,1.8c-0.5,0.7-0.7,1.6-0.7,2.5c0,0.9,0.3,1.7,0.9,2.3c0.9,1,1.9,1.8,3.1,2.4c2.1,1.1,4.2,2.1,6.4,3
				c4.9,1.6,9.6,3.9,14,6.7c3,1.9,5.4,4.5,7.2,7.5c1.5,2.9,2.2,6.1,2.1,9.4c0.1,4.3-1.1,8.5-3.5,12.1c-2.5,3.6-6.1,6.4-10.2,8.1
				c-4.4,1.9-9.9,2.9-16.5,2.9c-4.1,0-8.3-0.4-12.4-1.2c-3.2-0.6-6.3-1.6-9.3-2.9c-0.7-0.3-1.1-1-1-1.8v-15.8c0-0.3,0.1-0.6,0.4-0.8
				c0.3-0.1,0.6-0.1,0.8,0.1c3.5,2.1,7.3,3.6,11.3,4.5c3.5,0.9,7.1,1.3,10.7,1.4c3.4,0,5.9-0.4,7.5-1.3c1.5-0.7,2.4-2.2,2.4-3.8
				c0-1.3-0.7-2.5-2.2-3.7c-1.5-1.2-4.4-2.6-8.9-4.2c-4.6-1.6-8.9-3.8-12.9-6.6c-2.9-2-5.2-4.6-6.9-7.7c-1.4-2.9-2.2-6.1-2.1-9.3
				c0-3.9,1.1-7.7,3.1-11c2.3-3.6,5.6-6.5,9.5-8.3c4.3-2.1,9.7-3.2,16.1-3.2c3.8,0,7.5,0.2,11.3,0.8c2.7,0.3,5.3,1.1,7.8,2.1
				c0.4,0.1,0.7,0.4,0.9,0.8c0.1,0.4,0.1,0.7,0.1,1.1V139c0,0.3-0.1,0.7-0.4,0.9C216.2,140.1,215.8,140.1,215.4,139.9z"/>
		</g>
	</g>
</g>
</svg>
