<?xml version="1.0" encoding="utf-8"?>
<!-- Generator: Adobe Illustrator 24.2.0, SVG Export Plug-In . SVG Version: 6.00 Build 0)  -->
<svg version="1.1" id="Ebene_1" xmlns="http://www.w3.org/2000/svg" xmlns:xlink="http://www.w3.org/1999/xlink" x="0px" y="0px"
	 viewBox="0 0 300 300" style="enable-background:new 0 0 300 300;" xml:space="preserve">
<style type="text/css">
	.st0{display:none;}
	.st1{display:inline;}
	.st2{fill:#E23237;}
	.st3{fill:#B52E31;}
	.st4{fill:#FFFFFF;}
	.st5{fill:#539E43;}
	.st6{fill:#53C1DE;}
</style>
<g id="Layer_1" class="st0">
	<g class="st1">
		<path class="st2" d="M22.1,59.5l125.8-44.8l129.2,44l-20.9,166.4l-108.3,60L41.3,226L22.1,59.5z"/>
		<path class="st3" d="M277.1,58.7l-129.2-44v270.4l108.3-59.9L277.1,58.7L277.1,58.7z"/>
		<path class="st4" d="M148.1,46.3L148.1,46.3L69.7,220.7l29.3-0.5l15.7-39.3h33.5h0.1h36.8l17.2,39.8l28,0.5L148.1,46.3L148.1,46.3
			z M148.3,102.2l26.5,55.4h-25.4h-1.3H125L148.3,102.2L148.3,102.2z"/>
	</g>
</g>
<g id="Layer_2" class="st0">
	<g class="st1">
		<path class="st5" d="M150,289.7c-3.9,0-7.4-1-10.8-2.8l-34.1-20.3c-5.1-2.8-2.6-3.9-1-4.4c6.9-2.3,8.2-2.8,15.4-6.9
			c0.8-0.5,1.8-0.3,2.6,0.3l26.2,15.7c1,0.5,2.3,0.5,3.1,0L253.8,212c1-0.5,1.5-1.5,1.5-2.8V90.8c0-1.3-0.5-2.3-1.5-2.8L151.4,29
			c-1-0.5-2.3-0.5-3.1,0L45.9,88c-1,0.5-1.5,1.8-1.5,2.8v118.4c0,1,0.5,2.3,1.5,2.8l28,16.2c15.1,7.7,24.6-1.3,24.6-10.3V101
			c0-1.5,1.3-3.1,3.1-3.1h13.1c1.5,0,3.1,1.3,3.1,3.1v116.8c0,20.3-11,32.1-30.3,32.1c-5.9,0-10.5,0-23.6-6.4l-27-15.4
			c-6.7-3.9-10.8-11-10.8-18.7V91c0-7.7,4.1-14.9,10.8-18.7L139.2,13c6.4-3.6,15.1-3.6,21.6,0l102.4,59.3c6.7,3.9,10.8,11,10.8,18.7
			v118.4c0,7.7-4.1,14.9-10.8,18.7l-102.4,59.3C157.4,289,153.6,289.7,150,289.7L150,289.7z M181.6,208.3c-44.9,0-54.2-20.5-54.2-38
			c0-1.5,1.3-3.1,3.1-3.1h13.3c1.5,0,2.8,1,2.8,2.6c2.1,13.6,8,20.3,35.2,20.3c21.6,0,30.8-4.9,30.8-16.4c0-6.7-2.6-11.6-36.2-14.9
			c-28-2.8-45.4-9-45.4-31.3c0-20.8,17.5-33.1,46.7-33.1c32.9,0,49,11.3,51.1,35.9c0,0.8-0.3,1.5-0.8,2.3c-0.5,0.5-1.3,1-2.1,1
			h-13.3c-1.3,0-2.6-1-2.8-2.3c-3.1-14.1-11-18.7-32.1-18.7c-23.6,0-26.4,8.2-26.4,14.4c0,7.4,3.3,9.8,35.2,13.9
			c31.6,4.1,46.5,10,46.5,32.1C232.7,195.5,214.2,208.3,181.6,208.3L181.6,208.3z"/>
	</g>
</g>
<g id="Layer_3">
	<path class="st6" d="M230,111.2c-2.5-0.9-5.2-1.7-8-2.5c0.4-1.8,0.9-3.7,1.3-5.4c6-29.2,2.1-52.9-11.4-60.7
		c-12.9-7.4-34,0.4-55.3,18.8c-2,1.7-4.1,3.7-6.2,5.6c-1.4-1.3-2.7-2.6-4.1-3.8C123.9,43.3,101.6,35,88.1,42.8
		c-12.9,7.7-16.7,29.8-11.3,57.6c0.5,2.7,1.2,5.4,1.8,8.2c-3.1,0.9-6.2,1.8-9.1,2.9c-26.2,9.1-42.9,23.5-42.9,38.2
		c0,15.3,18,30.7,45.2,40c2.1,0.7,4.4,1.4,6.7,2.1c-0.8,3-1.4,5.9-1.9,8.8c-5.1,27.2-1.2,48.8,11.6,56.3
		c13.3,7.7,35.6-0.2,57.3-19.2c1.7-1.5,3.4-3,5.1-4.8c2.2,2.1,4.5,4.2,6.7,6.1c21.1,18.1,41.7,25.3,54.7,18
		c13.3-7.7,17.7-31,11.9-59.2c-0.4-2.1-1-4.4-1.5-6.6c1.6-0.4,3.1-1,4.7-1.4c28.3-9.4,46.9-24.6,46.9-40.1
		C274,134.8,256.7,120.3,230,111.2L230,111.2L230,111.2z"/>
	<path class="st4" d="M223.9,179.7c-1.4,0.4-2.7,0.9-4.2,1.3c-3.1-9.9-7.3-20.4-12.5-31.4c5-10.7,9-21.1,12-30.9
		c2.5,0.7,5,1.5,7.3,2.3c22.8,7.9,36.9,19.5,36.9,28.5C263.5,159.2,248.3,171.6,223.9,179.7L223.9,179.7L223.9,179.7z M213.7,199.9
		c2.4,12.5,2.8,23.8,1.3,32.6c-1.5,8-4.5,13.3-8.2,15.3c-7.8,4.6-24.5-1.4-42.5-16.8c-2.1-1.7-4.1-3.7-6.2-5.6
		c7-7.6,14-16.5,20.8-26.3c11.9-1.1,23.3-2.8,33.5-5.1C212.8,195.9,213.3,197.9,213.7,199.9L213.7,199.9L213.7,199.9z M111,247.1
		c-7.6,2.7-13.7,2.8-17.4,0.6c-7.8-4.6-11.1-21.9-6.6-45.1c0.5-2.7,1.2-5.4,1.8-8.2c10.1,2.2,21.4,3.9,33.3,4.8
		c6.8,9.6,14.1,18.5,21.2,26.2c-1.6,1.5-3.1,3-4.8,4.4C129,238.1,119.4,244.1,111,247.1L111,247.1L111,247.1z M75.3,179.6
		c-12-4.1-21.9-9.5-28.8-15.3c-6.1-5.2-9.2-10.5-9.2-14.8c0-9,13.4-20.5,35.8-28.3c2.7-1,5.6-1.8,8.5-2.7c3,10,7.2,20.6,12,31.3
		c-5,10.8-9,21.5-12.2,31.6C79.3,181,77.2,180.4,75.3,179.6L75.3,179.6L75.3,179.6z M87.2,98.3c-4.7-23.7-1.6-41.7,6.2-46.1
		c8.3-4.8,26.6,2,45.9,19.2c1.3,1.2,2.4,2.2,3.8,3.4c-7.2,7.7-14.3,16.5-21.1,26.1c-11.6,1.1-22.8,2.8-33,5.1
		C88.3,103.3,87.8,100.7,87.2,98.3L87.2,98.3L87.2,98.3z M193.9,124.6c-2.4-4.2-5-8.3-7.5-12.4c7.9,1,15.4,2.3,22.6,3.9
		c-2.1,6.8-4.8,14-8,21.3C198.8,133.2,196.4,128.8,193.9,124.6L193.9,124.6L193.9,124.6z M150.4,82.2c4.9,5.3,9.8,11.2,14.6,17.6
		c-4.8-0.3-9.8-0.4-14.7-0.4s-9.8,0.1-14.6,0.4C140.5,93.5,145.5,87.5,150.4,82.2L150.4,82.2L150.4,82.2z M106.6,124.7
		c-2.4,4.3-4.8,8.5-7,12.8c-3-7.3-5.6-14.5-7.9-21.4c7.1-1.6,14.6-2.9,22.4-3.9C111.7,116.2,109,120.4,106.6,124.7L106.6,124.7
		L106.6,124.7z M114.5,187.9c-8.2-0.9-15.7-2.1-22.8-3.7c2.1-7.1,4.9-14.4,8.1-21.8c2.1,4.3,4.6,8.5,7,12.8l0,0
		C109.2,179.5,111.8,183.7,114.5,187.9L114.5,187.9L114.5,187.9z M150.8,217.8c-5-5.4-10-11.4-14.9-17.8c4.8,0.2,9.6,0.3,14.5,0.3
		c5,0,10-0.1,14.9-0.4C160.4,206.5,155.5,212.4,150.8,217.8L150.8,217.8L150.8,217.8z M201.2,161.9c3.3,7.5,6.1,14.9,8.3,21.7
		c-7.2,1.7-14.9,3-23.1,3.9c2.5-4.1,5-8.3,7.6-12.5C196.5,170.7,198.9,166.3,201.2,161.9L201.2,161.9L201.2,161.9z M184.9,169.8
		c-3.9,6.7-7.9,13.1-11.8,19.2c-7.3,0.5-14.9,0.8-22.7,0.8c-7.7,0-15.1-0.3-22.4-0.7c-4.2-6.1-8.3-12.5-12.1-19.2l0,0
		c-3.9-6.6-7.3-13.3-10.6-19.9c3.2-6.6,6.7-13.3,10.6-20l0,0c3.9-6.6,7.9-13,12-19.1c7.3-0.5,14.9-0.9,22.5-0.9l0,0
		c7.7,0,15.1,0.3,22.6,0.9c4.1,6,8.2,12.4,11.9,19c3.9,6.7,7.4,13.3,10.7,19.9C192.2,156.3,188.6,163.1,184.9,169.8L184.9,169.8
		L184.9,169.8z M206.7,51.8c8.3,4.8,11.6,24.1,6.3,49.3c-0.4,1.6-0.7,3.2-1.2,4.9c-10.3-2.3-21.4-4.1-33.1-5.2
		c-6.8-9.7-13.9-18.5-21-26.1c1.9-1.8,3.9-3.6,5.6-5.2C181.8,53.5,198.9,47.3,206.7,51.8L206.7,51.8L206.7,51.8z"/>
	<path class="st6" d="M150.3,127.6c12.2,0,22,9.9,22,22c0,12.2-9.9,22-22,22c-12.2,0-22-9.9-22-22
		C128.3,137.4,138.1,127.6,150.3,127.6"/>
</g>
</svg>
