<?xml version="1.0" encoding="utf-8"?>
<!-- Generator: Adobe Illustrator 24.2.0, SVG Export Plug-In . SVG Version: 6.00 Build 0)  -->
<svg version="1.1" id="Layer_2" xmlns="http://www.w3.org/2000/svg" xmlns:xlink="http://www.w3.org/1999/xlink" x="0px" y="0px"
	 viewBox="0 0 300 300" style="enable-background:new 0 0 300 300;" xml:space="preserve">
<style type="text/css">
	.st0{fill:#764ABC;}
</style>
<g>
	<path class="st0" d="M199.4,191.7c9-1,15.9-8.7,15.7-18.1c-0.3-9.4-8.2-16.9-17.5-16.9h-0.7c-9.7,0.3-17.2,8.4-16.9,18.1
		c0.3,4.6,2.2,8.7,5,11.5c-10.6,21-26.9,36.2-51.2,49.1c-16.5,8.7-33.7,11.9-51,9.7c-14-1.9-25-8.2-31.9-18.5
		c-10-15.3-11-31.9-2.5-48.5c6-11.9,15.3-20.7,21.2-25c-1.2-4-3.1-11-4-15.9c-45.4,32.8-40.7,77.2-26.9,98.1
		C49,251.2,70,260.8,93.2,260.8c6.2,0,12.5-0.7,18.7-2.2C151.9,250.8,182.2,227,199.4,191.7z M254.3,153
		c-23.7-27.8-58.6-43.2-98.7-43.2h-5c-2.8-5.7-8.7-9.4-15.3-9.4h-0.7c-9.7,0.3-17.2,8.4-16.9,18.1c0.3,9.4,8.2,16.9,17.5,16.9h0.7
		c6.8-0.3,12.8-4.6,15.3-10.6h5.7c23.7,0,46.2,6.8,66.5,20.3c15.7,10.3,26.9,23.7,33.1,40c5.3,13.2,5,26-0.7,36.8
		c-8.7,16.5-23.4,25.6-42.8,25.6c-12.5,0-24.4-3.7-30.7-6.5c-3.5,3.1-9.7,8.2-14,11.2c13.5,6.2,27.1,9.7,40.3,9.7
		c30,0,52.2-16.5,60.6-33.1C278.4,210.8,277.8,179.6,254.3,153z M95.6,197c0.3,9.4,8.2,16.9,17.5,16.9h0.7
		c9.7-0.3,17.2-8.4,16.9-18.1c-0.3-9.4-8.2-16.9-17.5-16.9h-0.7c-0.7,0-1.5,0-2.2,0.3C97.5,158,92.2,134.9,94,109.8
		c1.2-18.7,7.5-35,18.5-48.5c9-11.5,26.5-17.2,38.4-17.5c33.1-0.7,47.2,40.6,48.1,57.1c4,1,11,3.1,15.7,4.6
		c-3.7-50.7-35-76.9-65-76.9c-28.2,0-54,20.3-64.3,50.3c-14.3,40-5,78.5,12.5,108.7C96.2,190.2,95.3,193.6,95.6,197z"/>
</g>
</svg>
