<?xml version="1.0" encoding="utf-8"?>
<!-- Generator: Adobe Illustrator 24.2.0, SVG Export Plug-In . SVG Version: 6.00 Build 0)  -->
<svg version="1.1" id="Ebene_1" xmlns="http://www.w3.org/2000/svg" xmlns:xlink="http://www.w3.org/1999/xlink" x="0px" y="0px"
	 viewBox="0 0 300 300" style="enable-background:new 0 0 300 300;" xml:space="preserve">
<style type="text/css">
	.st0{display:none;}
	.st1{display:inline;fill:#53C1DE;}
	.st2{display:inline;fill:#FFFFFF;}
	.st3{display:inline;}
	.st4{fill:#E23237;}
	.st5{fill:#B52E31;}
	.st6{fill:#FFFFFF;}
	.st7{fill:#539E43;}
	.st8{fill:#007ACC;}
</style>
<g id="Layer_3" class="st0">
	<path class="st1" d="M241.7,105.5c-2.9-1-6-2-9.1-2.9c0.5-2.1,1-4.2,1.4-6.2c6.9-33.5,2.4-60.6-13-69.5c-14.8-8.5-39,0.4-63.4,21.6
		c-2.3,2-4.7,4.2-7.1,6.5c-1.6-1.5-3.1-3-4.7-4.3C120.1,27.9,94.5,18.3,79,27.3c-14.8,8.6-19.2,34-12.9,65.8
		c0.6,3.1,1.3,6.2,2.1,9.4c-3.6,1-7.1,2.1-10.5,3.3c-30,10.5-49.2,26.9-49.2,43.9c0,17.6,20.6,35.2,51.9,45.9c2.5,0.8,5,1.6,7.7,2.4
		c-0.9,3.4-1.6,6.8-2.2,10.1c-5.9,31.2-1.3,56,13.4,64.5c15.2,8.8,40.8-0.2,65.7-22c2-1.7,3.9-3.5,5.9-5.5c2.6,2.5,5.1,4.8,7.7,7
		c24.1,20.7,47.9,29.1,62.6,20.6c15.2-8.8,20.2-35.5,13.7-67.9c-0.5-2.5-1.1-5-1.7-7.6c1.8-0.5,3.6-1.1,5.3-1.6
		c32.5-10.8,53.7-28.2,53.7-46C292.1,132.5,272.3,116,241.7,105.5L241.7,105.5L241.7,105.5z"/>
	<path class="st2" d="M234.6,184.1c-1.6,0.5-3.1,1-4.8,1.5c-3.6-11.4-8.4-23.4-14.4-35.9c5.7-12.2,10.3-24.1,13.8-35.4
		c2.9,0.8,5.7,1.7,8.4,2.7c26.2,9,42.3,22.4,42.3,32.7C280,160.6,262.7,174.8,234.6,184.1L234.6,184.1L234.6,184.1z M223,207.2
		c2.8,14.3,3.2,27.3,1.4,37.4c-1.7,9.1-5.1,15.2-9.3,17.6c-8.9,5.2-28-1.6-48.7-19.3c-2.4-2-4.7-4.2-7.1-6.5
		c8-8.7,16-18.9,23.8-30.2c13.7-1.2,26.7-3.2,38.4-5.9C222,202.7,222.5,204.9,223,207.2L223,207.2L223,207.2z M105.2,261.3
		c-8.7,3.1-15.7,3.2-19.9,0.7c-8.9-5.2-12.7-25.1-7.6-51.8c0.6-3.1,1.3-6.2,2.1-9.4c11.6,2.6,24.5,4.4,38.2,5.5
		c7.8,11,16.1,21.2,24.3,30.1c-1.8,1.7-3.6,3.4-5.4,5C125.9,251.1,114.9,257.9,105.2,261.3L105.2,261.3L105.2,261.3z M64.3,184
		c-13.8-4.7-25.2-10.9-33.1-17.6c-7-6-10.6-12-10.6-16.9c0-10.3,15.4-23.5,41.1-32.5c3.1-1.1,6.4-2.1,9.8-3.1
		c3.5,11.5,8.2,23.6,13.8,35.8c-5.7,12.4-10.4,24.6-14,36.3C68.9,185.5,66.5,184.8,64.3,184L64.3,184L64.3,184z M78,90.7
		c-5.3-27.2-1.8-47.8,7.1-52.9c9.5-5.5,30.5,2.3,52.6,22c1.4,1.3,2.8,2.6,4.3,3.9c-8.2,8.8-16.4,18.9-24.2,29.9
		c-13.3,1.2-26.1,3.2-37.8,5.9C79.2,96.5,78.6,93.5,78,90.7L78,90.7L78,90.7z M200.3,120.9c-2.8-4.8-5.7-9.6-8.6-14.2
		c9,1.1,17.7,2.7,25.9,4.5c-2.4,7.8-5.5,16-9.1,24.4C205.9,130.8,203.2,125.8,200.3,120.9L200.3,120.9L200.3,120.9z M150.4,72.3
		c5.6,6.1,11.2,12.8,16.7,20.1c-5.5-0.3-11.2-0.4-16.8-0.4s-11.2,0.1-16.7,0.4C139.1,85.2,144.8,78.4,150.4,72.3L150.4,72.3
		L150.4,72.3z M100.2,121c-2.8,4.9-5.5,9.8-8,14.7c-3.5-8.4-6.5-16.6-9-24.5c8.1-1.8,16.7-3.3,25.7-4.4
		C106,111.3,103,116.1,100.2,121L100.2,121L100.2,121z M109.2,193.4c-9.3-1-18-2.4-26.1-4.2c2.5-8.1,5.6-16.5,9.2-25
		c2.5,4.9,5.2,9.8,8,14.7l0,0C103.2,183.8,106.1,188.6,109.2,193.4L109.2,193.4L109.2,193.4z M150.8,227.8
		c-5.7-6.2-11.5-13-17.1-20.4c5.4,0.2,11,0.3,16.6,0.3c5.8,0,11.5-0.1,17.1-0.4C161.9,214.8,156.3,221.6,150.8,227.8L150.8,227.8
		L150.8,227.8z M208.6,163.7c3.8,8.6,7,17,9.5,24.9c-8.2,1.9-17.1,3.4-26.5,4.5c2.9-4.7,5.8-9.5,8.7-14.4
		C203.3,173.7,206,168.7,208.6,163.7L208.6,163.7L208.6,163.7z M189.9,172.7c-4.4,7.7-9,15-13.6,22c-8.4,0.6-17.1,0.9-26,0.9
		c-8.8,0-17.4-0.3-25.7-0.8c-4.8-7-9.5-14.4-13.9-22l0,0c-4.4-7.6-8.4-15.2-12.1-22.8c3.7-7.6,7.7-15.3,12.1-22.9l0,0
		c4.4-7.6,9-14.9,13.8-21.9c8.4-0.6,17.1-1,25.8-1l0,0c8.8,0,17.4,0.3,25.9,1c4.7,6.9,9.3,14.2,13.7,21.8
		c4.4,7.7,8.5,15.3,12.2,22.8C198.4,157.3,194.3,165,189.9,172.7L189.9,172.7L189.9,172.7z M214.9,37.4c9.5,5.5,13.2,27.6,7.2,56.5
		c-0.4,1.8-0.8,3.7-1.3,5.6c-11.8-2.7-24.5-4.7-37.9-6c-7.8-11.1-15.9-21.2-24-29.9c2.2-2.1,4.4-4.1,6.5-6
		C186.4,39.4,206,32.3,214.9,37.4L214.9,37.4L214.9,37.4z"/>
	<path class="st1" d="M150.3,124.3c14,0,25.3,11.3,25.3,25.3s-11.3,25.3-25.3,25.3S125,163.6,125,149.6S136.3,124.3,150.3,124.3"/>
</g>
<g id="Layer_1" class="st0">
	<g class="st3">
		<path class="st4" d="M22.1,59.5l125.8-44.8l129.2,44l-20.9,166.4l-108.3,60L41.3,226L22.1,59.5z"/>
		<path class="st5" d="M277.1,58.7l-129.2-44v270.4l108.3-59.9L277.1,58.7L277.1,58.7z"/>
		<path class="st6" d="M148.1,46.3L148.1,46.3L69.7,220.7l29.3-0.5l15.7-39.3h33.5h0.1h36.8l17.2,39.8l28,0.5L148.1,46.3L148.1,46.3
			z M148.3,102.2l26.5,55.4h-25.4h-1.3H125L148.3,102.2L148.3,102.2z"/>
	</g>
</g>
<g id="Layer_2" class="st0">
	<g class="st3">
		<path class="st7" d="M150,289.7c-3.9,0-7.4-1-10.8-2.8l-34.1-20.3c-5.1-2.8-2.6-3.9-1-4.4c6.9-2.3,8.2-2.8,15.4-6.9
			c0.8-0.5,1.8-0.3,2.6,0.3l26.2,15.7c1,0.5,2.3,0.5,3.1,0L253.8,212c1-0.5,1.5-1.5,1.5-2.8V90.8c0-1.3-0.5-2.3-1.5-2.8L151.4,29
			c-1-0.5-2.3-0.5-3.1,0L45.9,88c-1,0.5-1.5,1.8-1.5,2.8v118.4c0,1,0.5,2.3,1.5,2.8l28,16.2c15.1,7.7,24.6-1.3,24.6-10.3V101
			c0-1.5,1.3-3.1,3.1-3.1h13.1c1.5,0,3.1,1.3,3.1,3.1v116.8c0,20.3-11,32.1-30.3,32.1c-5.9,0-10.5,0-23.6-6.4l-27-15.4
			c-6.7-3.9-10.8-11-10.8-18.7V91c0-7.7,4.1-14.9,10.8-18.7L139.2,13c6.4-3.6,15.1-3.6,21.6,0l102.4,59.3c6.7,3.9,10.8,11,10.8,18.7
			v118.4c0,7.7-4.1,14.9-10.8,18.7l-102.4,59.3C157.4,289,153.6,289.7,150,289.7L150,289.7z M181.6,208.3c-44.9,0-54.2-20.5-54.2-38
			c0-1.5,1.3-3.1,3.1-3.1h13.3c1.5,0,2.8,1,2.8,2.6c2.1,13.6,8,20.3,35.2,20.3c21.6,0,30.8-4.9,30.8-16.4c0-6.7-2.6-11.6-36.2-14.9
			c-28-2.8-45.4-9-45.4-31.3c0-20.8,17.5-33.1,46.7-33.1c32.9,0,49,11.3,51.1,35.9c0,0.8-0.3,1.5-0.8,2.3c-0.5,0.5-1.3,1-2.1,1
			h-13.3c-1.3,0-2.6-1-2.8-2.3c-3.1-14.1-11-18.7-32.1-18.7c-23.6,0-26.4,8.2-26.4,14.4c0,7.4,3.3,9.8,35.2,13.9
			c31.6,4.1,46.5,10,46.5,32.1C232.7,195.5,214.2,208.3,181.6,208.3L181.6,208.3z"/>
	</g>
</g>
<g id="Layer_4">
	<g>
		<polygon class="st8" points="42.5,150 42.5,257.5 150,257.5 257.5,257.5 257.5,150 257.5,42.5 150,42.5 42.5,42.5 		"/>
		<path class="st6" d="M90,150.8l-0.1,8.8h14h14v39.7v39.7h9.9h9.9v-39.7v-39.7h14h14V151c0-4.8-0.1-8.8-0.3-8.8
			c-0.1-0.2-17.2-0.2-37.8-0.2L90.2,142L90,150.8z"/>
		<path class="st6" d="M216,141.7c5.4,1.3,9.7,3.8,13.5,7.8c2,2.1,4.9,6,5.2,6.8c0.1,0.3-9.3,6.6-14.9,10c-0.2,0.2-1-0.8-2-2.1
			c-2.8-4-5.7-5.8-10.1-6.1c-6.5-0.5-10.8,3-10.7,8.7c0,1.7,0.3,2.6,0.9,4c1.4,3,4,4.8,12.5,8.4c15.4,6.6,21.9,11.1,26.2,17.2
			c4.6,6.9,5.6,18,2.5,26.3c-3.5,8.9-11.8,15-23.7,17.1c-3.8,0.7-12.5,0.6-16.3-0.2c-8.7-1.5-16.8-5.8-21.8-11.3
			c-2-2.2-5.9-7.9-5.6-8.3c0.1-0.2,1-0.8,2-1.2c1-0.6,4.6-2.6,8-4.6l6.2-3.7l1.2,1.9c1.8,2.8,5.8,6.6,8.2,7.9
			c6.8,3.7,16.2,3.1,21-1.1c2-1.8,2.8-3.8,2.8-6.4c0-2.5-0.3-3.7-1.6-5.4c-1.7-2.3-5.1-4.4-14.8-8.6c-11.2-4.8-15.9-7.8-20.2-12.5
			c-2.5-2.7-4.9-7.1-5.9-10.8c-0.8-3.1-1-10.7-0.4-13.8c2.2-10.8,10.4-18.2,22-20.4C203.5,140.5,212.2,140.8,216,141.7z"/>
	</g>
</g>
</svg>
