<?xml version="1.0" encoding="utf-8"?>
<!-- Generator: Adobe Illustrator 24.2.0, SVG Export Plug-In . SVG Version: 6.00 Build 0)  -->
<svg version="1.1" id="Layer_1" xmlns="http://www.w3.org/2000/svg" xmlns:xlink="http://www.w3.org/1999/xlink" x="0px" y="0px"
	 viewBox="0 0 300 300" style="enable-background:new 0 0 300 300;" xml:space="preserve">
<style type="text/css">
	.st0{display:none;}
	.st1{display:inline;}
	.st2{clip-path:url(#SVGID_2_);}
	.st3{fill:#00749A;}
	.st4{fill:#464342;}
	.st5{fill:#41B883;}
	.st6{fill:#35495E;}
</style>
<g id="Layer_3" class="st0">
	<g class="st1">
		<g>
			<g>
				<g>
					<g>
						<g>
							<g>
								<defs>
									<rect id="SVGID_1_" x="22.2" y="22.2" width="255.6" height="255.7"/>
								</defs>
								<clipPath id="SVGID_2_">
									<use xlink:href="#SVGID_1_"  style="overflow:visible;"/>
								</clipPath>
								<g class="st2">
									<path class="st3" d="M675.7,122.8h-44.4v4.7c13.9,0,16.1,3,16.1,20.6v31.7c0,17.6-2.2,20.8-16.1,20.8
										c-10.6-1.5-17.8-7.2-27.8-18.1l-11.4-12.4c15.4-2.7,23.5-12.4,23.5-23.3c0-13.6-11.6-24-33.5-24h-43.6v4.7
										c13.9,0,16.1,3,16.1,20.6v31.7c0,17.6-2.2,20.8-16.1,20.8v4.7H588v-4.7c-13.9,0-16.1-3.2-16.1-20.8v-8.9h4.2l27.5,34.4
										h72.1c35.4,0,50.8-18.8,50.8-41.4C726.5,141.4,711.1,122.8,675.7,122.8L675.7,122.8z M571.9,163.2v-33H582
										c11.1,0,16.1,7.7,16.1,16.6c0,8.7-5,16.4-16.1,16.4H571.9L571.9,163.2z M676.4,197.6h-1.7c-8.9,0-10.2-2.2-10.2-13.6v-53.8
										c0,0,10.9,0,11.9,0c25.8,0,30.5,18.8,30.5,33.5C706.9,178.8,702.2,197.6,676.4,197.6z"/>
									<path class="st3" d="M400.7,172.4l17.1-50.6c5-14.6,2.7-18.8-13.1-18.8v-5h46.6v5c-15.6,0-19.3,3.7-25.5,21.8l-28.2,84.7
										h-3.2L368.9,132l-25.8,77.6H340l-27.5-84.7c-5.9-18.1-9.9-21.8-24.3-21.8v-5h55v5c-14.6,0-18.6,3.5-13.4,18.8l16.6,50.6
										l25-74.3h4.7L400.7,172.4z"/>
									<path class="st3" d="M484.9,208.5c-27.3,0-49.6-20.1-49.6-44.6c0-24.3,22.3-44.4,49.6-44.4s49.6,20.1,49.6,44.4
										C534.5,188.5,512.2,208.5,484.9,208.5z M484.9,127.3c-22.8,0-30.7,20.6-30.7,36.7c0,16.4,7.9,36.7,30.7,36.7
										c23,0,31-20.3,31-36.7C515.9,147.8,508,127.3,484.9,127.3z"/>
									<path class="st4" d="M787.7,200.4v5H731v-5c16.6,0,19.6-4.2,19.6-29v-39.6c0-24.8-3-28.7-19.6-28.7v-5h51.3
										c25.5,0,39.6,13.1,39.6,30.7c0,17.1-14.1,30.5-39.6,30.5h-14.1v12.1C768.1,196.1,771.1,200.4,787.7,200.4z M782.2,106.9
										h-14.1V150h14.1c13.9,0,20.3-9.7,20.3-21.3C802.6,116.9,796.1,106.9,782.2,106.9z"/>
									<path class="st4" d="M992.1,182l-1.2,4.5c-2.2,8.2-5,11.2-22.6,11.2h-3.5c-12.9,0-15.1-3-15.1-20.6v-11.4
										c19.3,0,20.8,1.7,20.8,14.6h4.7v-36.9h-4.7c0,12.9-1.5,14.6-20.8,14.6v-27.7h13.6c17.6,0,20.3,3,22.6,11.2l1.2,4.7h4
										l-1.7-23.3h-72.9v4.7c13.9,0,16.1,3,16.1,20.6v31.7c0,16.1-1.9,20.1-12.8,20.7c-10.4-1.6-17.5-7.3-27.3-18l-11.4-12.4
										c15.4-2.7,23.5-12.4,23.5-23.3c0-13.6-11.6-24-33.5-24h-43.6v4.7c13.9,0,16.1,3,16.1,20.6v31.7c0,17.6-2.2,20.8-16.1,20.8
										v4.7h49.3v-4.7c-13.9,0-16.1-3.2-16.1-20.8V171h4.2l27.5,34.4h101.8l1.5-23.3L992.1,182L992.1,182z M860.8,163.2v-33H871
										c11.2,0,16.1,7.7,16.1,16.6c0,8.7-5,16.4-16.1,16.4H860.8L860.8,163.2z"/>
									<path class="st4" d="M1042.4,208.5c-9.9,0-18.6-5.2-22.3-8.4c-1.2,1.2-3.5,5-4,8.4h-4.7v-34.2h5c2,16.4,13.4,26,28,26
										c7.9,0,14.4-4.5,14.4-11.9c0-6.4-5.7-11.4-15.9-16.1l-14.1-6.7c-9.9-4.7-17.3-12.9-17.3-23.8c0-11.9,11.2-22.1,26.5-22.1
										c8.2,0,15.1,3,19.3,6.4c1.2-1,2.5-3.7,3.2-6.7h4.7v29.2h-5.2c-1.7-11.6-8.2-21.3-21.3-21.3c-6.9,0-13.4,4-13.4,10.2
										c0,6.4,5.2,9.9,17.1,15.4l13.6,6.7c11.9,5.7,16.6,14.9,16.6,22.3C1072.6,197.6,1059,208.5,1042.4,208.5L1042.4,208.5z"/>
									<path class="st4" d="M1118.7,208.5c-9.9,0-18.6-5.2-22.3-8.4c-1.2,1.2-3.5,5-4,8.4h-4.7v-34.2h5c2,16.4,13.4,26,28,26
										c7.9,0,14.4-4.5,14.4-11.9c0-6.4-5.7-11.4-15.9-16.1l-14.1-6.7c-9.9-4.7-17.3-12.9-17.3-23.8c0-11.9,11.2-22.1,26.5-22.1
										c8.2,0,15.1,3,19.3,6.4c1.2-1,2.5-3.7,3.2-6.7h4.7v29.2h-5.2c-1.7-11.6-8.2-21.3-21.3-21.3c-6.9,0-13.4,4-13.4,10.2
										c0,6.4,5.2,9.9,17.1,15.4l13.6,6.7c11.9,5.7,16.6,14.9,16.6,22.3C1149,197.6,1135.3,208.5,1118.7,208.5L1118.7,208.5z"/>
									<g>
										<path class="st3" d="M40.4,150c0,43.4,25.2,80.9,61.8,98.7L49.9,105.4C43.8,119,40.4,134.1,40.4,150z"/>
										<path class="st3" d="M224.1,144.5c0-13.6-4.9-22.9-9-30.2c-5.6-9-10.8-16.7-10.8-25.7c0-10.1,7.6-19.5,18.4-19.5
											c0.5,0,0.9,0.1,1.4,0.1c-19.5-17.9-45.5-28.8-74.1-28.8c-38.3,0-72,19.7-91.6,49.4c2.6,0.1,5,0.1,7.1,0.1
											c11.5,0,29.2-1.4,29.2-1.4c5.9-0.3,6.6,8.3,0.7,9c0,0-5.9,0.7-12.6,1l39.9,118.8l24-72l-17.1-46.8c-5.9-0.3-11.5-1-11.5-1
											c-5.9-0.3-5.2-9.4,0.7-9c0,0,18.1,1.4,28.9,1.4c11.5,0,29.2-1.4,29.2-1.4c5.9-0.3,6.6,8.3,0.7,9c0,0-6,0.7-12.6,1
											l39.6,117.9l10.9-36.5C220.5,164.7,224.1,153.9,224.1,144.5z"/>
										<path class="st3" d="M152,159.6l-32.9,95.6c9.8,2.9,20.2,4.5,31,4.5c12.8,0,25-2.2,36.4-6.2c-0.3-0.5-0.6-1-0.8-1.5
											L152,159.6z"/>
										<path class="st3" d="M246.3,97.4c0.5,3.5,0.7,7.2,0.7,11.3c0,11.1-2.1,23.6-8.3,39.3l-33.5,96.8
											c32.6-19,54.5-54.3,54.5-94.8C259.7,130.9,254.8,113,246.3,97.4z"/>
										<path class="st3" d="M150,22.2C79.5,22.2,22.2,79.5,22.2,150S79.5,277.8,150,277.8S277.8,220.5,277.8,150
											C277.9,79.5,220.5,22.2,150,22.2z M150,272c-67.2,0-122-54.7-122-122C28,82.8,82.7,28,150,28c67.2,0,122,54.7,122,122
											S217.3,272,150,272z"/>
									</g>
								</g>
							</g>
						</g>
					</g>
				</g>
			</g>
		</g>
	</g>
</g>
<g id="Layer_2_1_">
	<path class="st5" d="M222.8,54.3h48.4L150,263.4L28.8,54.3h47.9h44.9l28.5,48.6l27.9-48.4L222.8,54.3L222.8,54.3z"/>
	<path class="st5" d="M28.8,54.3L150,263.4L271.2,54.3h-48.4L150,179.8L76.7,54.3H28.8z"/>
	<path class="st6" d="M76.7,54.3L150,180.4l72.8-126.1h-44.9L150,102.8l-28.5-48.4L76.7,54.3L76.7,54.3z"/>
</g>
</svg>
