<?xml version="1.0" encoding="utf-8"?>
<!-- Generator: Adobe Illustrator 24.2.0, SVG Export Plug-In . SVG Version: 6.00 Build 0)  -->
<svg version="1.1" id="Ebene_2" xmlns="http://www.w3.org/2000/svg" xmlns:xlink="http://www.w3.org/1999/xlink" x="0px" y="0px"
	 viewBox="0 0 300 300" style="enable-background:new 0 0 300 300;" xml:space="preserve">
<style type="text/css">
	.st0{fill:#470137;}
	.st1{fill:#FF61F6;}
</style>
<g id="Layer_2_9_">
	<g id="Surfaces_9_">
		<g id="UI_UX_Surface_1_">
			<g id="Outline_no_shadow_10_">
				<path class="st0" d="M79.6,43.7h140.8c21.3,0,38.6,17.3,38.6,38.6v135.3c0,21.3-17.3,38.6-38.6,38.6H79.6
					C58.3,256.3,41,239,41,217.7V82.3C41,61,58.3,43.7,79.6,43.7z"/>
			</g>
		</g>
	</g>
	<g id="Outlined_Mnemonics_Logos_9_">
		<g id="Xd">
			<path class="st1" d="M155.6,99.6l-27.2,44.9l29.1,47.7c0.2,0.3,0.2,0.7,0.1,1.1c-0.1,0.3-0.4,0.1-1,0.2h-20.8
				c-1.5,0-2.5-0.1-3.1-1c-2-3.8-3.9-7.6-5.8-11.3c-2-3.8-4-7.6-6.2-11.5c-2.2-3.9-4.4-7.8-6.5-11.8h-0.1c-2,3.9-4,7.8-6.1,11.7
				c-2.1,3.9-4.2,7.8-6.2,11.6c-2,3.9-4.1,7.7-6.3,11.5c-0.4,0.9-1.1,1-2,1h-20c-0.4,0-0.6,0.2-0.7-0.2c-0.1-0.4,0-0.7,0.2-1
				l28.2-46.4L73.7,99.5c-0.3-0.4-0.3-0.7-0.1-1c0.2-0.3,0.5-0.4,0.9-0.4h20.6c0.4,0,0.9,0.1,1.3,0.2c0.3,0.2,0.6,0.5,0.9,0.8
				c1.8,3.9,3.7,7.8,5.8,11.7c2.1,3.9,4.3,7.8,6.5,11.6c2.2,3.8,4.2,7.7,6.1,11.6h0.1c1.9-4,3.9-7.9,5.9-11.7c2-3.8,4-7.6,6.1-11.5
				c2.1-3.9,4.1-7.7,6.1-11.5c0.1-0.4,0.3-0.7,0.6-1c0.4-0.2,0.8-0.3,1.2-0.2h19.2c0.4-0.1,0.9,0.2,1,0.6
				C156,99.1,155.9,99.4,155.6,99.6L155.6,99.6z"/>
			<path class="st1" d="M197.6,195.4c-6.7,0.1-13.4-1.3-19.5-4.1c-5.7-2.6-10.5-6.9-13.7-12.4c-3.3-5.5-5-12.4-5-20.7
				c-0.1-6.7,1.7-13.3,5-19.2c3.4-5.9,8.4-10.8,14.5-14c6.3-3.5,14-5.3,23-5.3c0.5,0,1.1,0,1.9,0.1c0.8,0.1,1.7,0.1,2.8,0.2V91.3
				c0-0.7,0.3-1,0.9-1h18.4c0.4-0.1,0.8,0.2,0.9,0.7c0,0.1,0,0.1,0,0.2v86.4c0,1.7,0.1,3.5,0.2,5.4c0.1,2,0.3,3.7,0.4,5.3
				c0,0.6-0.3,1.2-0.9,1.5c-4.8,2-9.7,3.5-14.8,4.4C207,194.9,202.3,195.4,197.6,195.4z M206.5,177.3v-39.9
				c-0.8-0.2-1.6-0.4-2.4-0.4c-1-0.1-2-0.1-3-0.1c-3.5,0-7.1,0.8-10.2,2.3c-3.1,1.5-5.7,3.9-7.7,6.7c-2,2.9-3,6.8-3,11.6
				c-0.1,3.2,0.4,6.4,1.5,9.4c0.9,2.4,2.3,4.6,4.1,6.4c1.7,1.7,3.8,2.9,6.1,3.7c2.4,0.8,5,1.2,7.5,1.2c1.4,0,2.6,0,3.8-0.1
				C204.4,177.8,205.4,177.6,206.5,177.3z"/>
		</g>
	</g>
</g>
</svg>
