<?xml version="1.0" encoding="utf-8"?>
<!-- Generator: Adobe Illustrator 24.2.0, SVG Export Plug-In . SVG Version: 6.00 Build 0)  -->
<svg version="1.1" id="Layer_3" xmlns="http://www.w3.org/2000/svg" xmlns:xlink="http://www.w3.org/1999/xlink" x="0px" y="0px"
	 viewBox="0 0 300 300" style="enable-background:new 0 0 300 300;" xml:space="preserve">
<style type="text/css">
	.st0{fill:#F89920;}
	.st1{fill:#FFBE22;}
	.st2{fill:#F0670A;}
	.st3{fill:#FFD00E;}
</style>
<g id="g884" transform="translate(0.64018885)">
	<g id="g891" transform="matrix(1.2117164,0,0,1.2117164,-46.63877,7.1317533)">
		<path id="path4" class="st0" d="M73.6,153.3l-23.3-26l71.3-25.9l11,30.4L73.6,153.3z"/>
		<path id="path6" class="st1" d="M73.4,152.9l-1.1,34.9l71.3-25.9l-11-30.4L73.4,152.9z"/>
		<path id="path8" class="st2" d="M271.3,81.4c10.1,29.4-22.6,68.1-73.5,86.7S96.9,178,85.8,149L271.3,81.4z"/>
		<path id="path10" class="st3" d="M271.3,81.4c-11-29.1-61.1-37.8-112.1-19.2S75.4,119.4,85.7,149L271.3,81.4z"/>
		<path id="path12" class="st0" d="M271.3,81.4c6.3,19.7-29.2,50.3-80,68.8S93.6,168.2,85.7,149L271.3,81.4z"/>
		<path id="path14" class="st1" d="M271.3,81.4c-7.7-19.3-54.7-19.9-105.6-1.4s-86.5,49.2-80,68.9L271.3,81.4z"/>
		<path id="path16" class="st2" d="M185.7,54.7c-4.8-16.8-10.4-26-16.7-25.9c-12.2,0.3-16.1,38.8-12.2,88
			c3.9,49.7,14.3,87.2,27,86.8c7.6-0.2,12-12.4,13.5-33.7c0-0.4-0.5-0.1-0.4-0.6c0,0-0.1-0.8-0.3-0.8l-1.6-0.1
			c-1.3,20.6-5.3,32.6-11.1,32.7c-10.6,0.3-20.7-36.7-24.5-84.4c-3.7-47,0.3-85.1,9.8-85.4c4.5-0.1,9.7,8.4,14.1,23.9
			C183.3,55.1,185.7,54.7,185.7,54.7z"/>
		<path id="path18" class="st2" d="M125.6,42.7c-10.4,6.3,5.3,41.7,33.3,82.4c28.3,41.1,56,68.3,66.8,61.7c6.1-3.7,4.5-15-3.5-32.3
			c-0.3-0.6-1-0.9-1.6-0.7c-0.6,0.3-0.9,1-0.7,1.6v0.1c7.3,16,8.8,26.4,4.5,29.1c-8.9,5.6-36.3-21.4-63.5-61
			c-26.7-38.9-42.3-73.9-34.1-78.9c4.4-2.7,14.7,3.8,28.2,17.7c0.2,0.2,1,1.1,1.2,1.1c0.4,0.1,0.2-0.8,0.5-1.1
			c0.5-0.5,0.5-1.3,0-1.8l0,0C142.5,46,131.5,39.1,125.6,42.7L125.6,42.7z"/>
	</g>
</g>
</svg>
